<?xml version="1.0" standalone="no"?>
<!DOCTYPE svg PUBLIC "-//W3C//DTD SVG 1.1//EN" "http://www.w3.org/Graphics/SVG/1.1/DTD/svg11.dtd" >
<svg xmlns="http://www.w3.org/2000/svg">
<metadata>
This is a custom SVG webfont generated by Font Squirrel.
Foundry     : Process Type Foundry
</metadata>
<defs>
<font id="webfontDvaJrdUe" horiz-adv-x="1273" >
<font-face units-per-em="2048" ascent="1638" descent="-410" />
<missing-glyph horiz-adv-x="440" />
<glyph unicode=" "  horiz-adv-x="440" />
<glyph unicode="&#x09;" horiz-adv-x="440" />
<glyph unicode="&#xa0;" horiz-adv-x="440" />
<glyph unicode="!" horiz-adv-x="544" d="M184 0v236h176v-236h-176zM186 737v668h172v-668l-32 -348h-107z" />
<glyph unicode="&#x22;" horiz-adv-x="768" d="M143 903v502h142v-502h-142zM483 903v502h142v-502h-142z" />
<glyph unicode="#" horiz-adv-x="1447" d="M123 354l8 129h266l21 381h-271l7 129h272l18 330h140l-19 -330h367l18 330h140l-19 -330h264l-8 -129h-264l-21 -381h269l-8 -129h-267l-16 -354h-139l16 354h-371l-22 -354h-139l22 354h-264zM537 483h366l21 381h-367z" />
<glyph unicode="$" horiz-adv-x="1060" d="M123 49l22 139q188 -57 367 -57q156 0 200 42t44 167q0 66 -4 95.5t-33 61t-77 50t-148 51.5q-227 74 -288 143.5t-61 249.5q0 178 76 259t271 91v213h151v-215q158 -6 264 -34l-16 -146q-176 33 -332 33q-145 0 -193.5 -38t-48.5 -167q0 -113 37 -152.5t197 -91.5 q133 -43 201.5 -73.5t111.5 -77.5t53.5 -99.5t10.5 -150.5q0 -182 -73 -263t-255 -95v-215h-151v213q-168 10 -326 67z" />
<glyph unicode="%" horiz-adv-x="1722" d="M102 918v188q0 135 69 206.5t232.5 71.5t232.5 -71.5t69 -206.5v-188q0 -135 -69 -207t-232.5 -72t-232.5 72t-69 207zM242 911q0 -76 36.5 -112.5t125 -36.5t125 37t36.5 112v201q0 76 -36.5 113t-125 37t-125 -37t-36.5 -113v-201zM516 33l551 1351l123 -51l-553 -1353 zM1008 258v188q0 135 68.5 207t232.5 72t232.5 -71.5t68.5 -207.5v-188q0 -135 -68.5 -206.5t-232.5 -71.5t-232.5 71.5t-68.5 206.5zM1147 252q0 -76 37 -113t125 -37t124.5 37t36.5 113v201q0 76 -36.5 112.5t-124.5 36.5t-125 -37t-37 -112v-201z" />
<glyph unicode="&#x26;" horiz-adv-x="1261" d="M154 307v125q0 213 180 262q-152 61 -152 242v141q0 154 94.5 230.5t315.5 76.5q195 0 375 -36l-17 -142q-180 29 -356 29q-135 0 -187.5 -40t-52.5 -138v-137q0 -162 185 -162h661v-148h-201v-573q-205 -57 -417 -57q-227 0 -327.5 79.5t-100.5 247.5zM326 326 q0 -109 55 -153t201 -44q139 0 254 25v456h-291q-117 0 -168 -43t-51 -143v-98z" />
<glyph unicode="'" horiz-adv-x="428" d="M143 903v502h142v-502h-142z" />
<glyph unicode="(" horiz-adv-x="622" d="M143 623q0 514 316 938l123 -82q-143 -223 -205 -425t-62 -431.5t61.5 -431t205.5 -424.5l-123 -82q-316 424 -316 938z" />
<glyph unicode=")" horiz-adv-x="622" d="M41 -233q143 223 204.5 424.5t61.5 431t-61.5 431t-204.5 425.5l123 82q315 -424 315 -938t-315 -938z" />
<glyph unicode="*" horiz-adv-x="968" d="M102 1030v96h297l-161 250l77 51l168 -260l168 260l78 -51l-162 -250h299v-96h-295l160 -246l-80 -49l-168 260l-168 -260l-79 49l159 246h-293z" />
<glyph unicode="+" horiz-adv-x="1077" d="M123 426v143h340v346h151v-346h340v-143h-340v-346h-151v346h-340z" />
<glyph unicode="," horiz-adv-x="520" d="M143 -207l86 207h-59v236h176v-236l-123 -246z" />
<glyph unicode="-" horiz-adv-x="757" d="M123 500v141h512v-141h-512z" />
<glyph unicode="." horiz-adv-x="524" d="M174 0v236h176v-236h-176z" />
<glyph unicode="/" horiz-adv-x="913" d="M123 -240l504 1624h164l-506 -1624h-162z" />
<glyph unicode="0" horiz-adv-x="1130" d="M143 334v655q0 354 422 354t422 -354v-655q0 -354 -422 -354t-422 354zM315 352q0 -115 56.5 -168t193.5 -53t193.5 53.5t56.5 167.5v619q0 115 -56.5 168t-193.5 53t-193.5 -53.5t-56.5 -167.5v-619z" />
<glyph unicode="1" horiz-adv-x="716" d="M20 1116l359 207h153v-1323h-172v1126l-264 -147z" />
<glyph unicode="2" horiz-adv-x="995" d="M102 0v158l353 407q147 174 185 247t38 151v59q0 100 -45 134t-197 34q-147 0 -303 -45l-24 147q170 51 342 51q227 0 313 -76.5t86 -242.5v-45q0 -123 -41 -209t-193 -266l-301 -352h547v-152h-760z" />
<glyph unicode="3" horiz-adv-x="997" d="M102 20l19 144q143 -33 299 -33q145 0 203.5 39t58.5 137v103q0 96 -51 137t-156 41h-280v151h258q115 0 159.5 42t44.5 128v119q0 92 -49 128t-172 36q-131 0 -289 -31l-18 146q156 37 311 36q211 0 300 -71.5t89 -218.5v-121q0 -100 -32.5 -160.5t-122.5 -103.5 q90 -27 135 -82.5t45 -161.5v-133q0 -162 -102.5 -236.5t-331.5 -74.5q-195 -1 -318 40z" />
<glyph unicode="4" horiz-adv-x="1099" d="M45 326v170l571 827h232v-850h190v-147h-190v-326h-172v326h-631zM215 473h461v676z" />
<glyph unicode="5" horiz-adv-x="1015" d="M119 27l18 139q145 -35 324 -35q150 0 200 43t50 156v90q0 96 -44 136t-167 42q-82 2 -199 4t-131 2v719h696v-152h-524v-419q174 -4 219 -7q174 -8 248 -85.5t74 -221.5v-119q0 -172 -93.5 -255.5t-326.5 -83.5q-203 0 -344 47z" />
<glyph unicode="6" horiz-adv-x="1048" d="M143 295v586q0 254 123 358t414 104q127 0 225 -24l-18 -143q-88 18 -180 18q-236 0 -315 -64.5t-79 -250.5v-168q129 47 273 47q190 0 270 -79t80 -247v-65q0 -197 -81 -292t-312 -95q-400 0 -400 315zM313 319q0 -106 54.5 -147t175.5 -41q129 0 176 42t47 146v113 q0 96 -43 136t-154 40q-125 0 -256 -55v-234z" />
<glyph unicode="7" horiz-adv-x="901" d="M51 1171v152h813v-145l-545 -1178h-174l543 1171h-637z" />
<glyph unicode="8" horiz-adv-x="1114" d="M133 305v60q0 106 53.5 176.5t188.5 134.5q-119 57 -163 123.5t-44 169.5v53q0 322 389 321.5t389 -321.5v-53q0 -100 -46 -168t-167 -125q137 -63 192.5 -134t55.5 -177v-60q0 -172 -99.5 -248.5t-324.5 -76.5q-227 0 -325.5 76.5t-98.5 248.5zM301 311 q0 -104 56.5 -144t199.5 -40q141 0 198.5 40t57.5 144v47q0 86 -49 130t-207 110q-158 -63 -207 -108.5t-49 -131.5v-47zM336 965q0 -78 44 -122t177 -98q133 53 177 97.5t44 122.5v65q0 84 -49 126t-172 42t-172 -42t-49 -126v-65z" />
<glyph unicode="9" horiz-adv-x="1048" d="M113 891v65q0 197 83 292t310 95q399 0 399 -321v-580q0 -254 -123 -358t-413 -104q-127 0 -226 24l17 143q88 -18 182 -18q236 0 314.5 64.5t78.5 250.5v168q-129 -47 -272 -47q-190 0 -270 79t-80 247zM283 891q0 -96 43 -136t153 -40q125 0 256 55v234q0 106 -54 147 t-175 41q-129 0 -176 -42t-47 -146v-113z" />
<glyph unicode=":" horiz-adv-x="524" d="M174 0v236h176v-236h-176zM174 627v235h176v-235h-176z" />
<glyph unicode=";" horiz-adv-x="520" d="M143 -207l86 207h-59v236h176v-236l-123 -246zM170 627v235h176v-235h-176z" />
<glyph unicode="&#x3c;" horiz-adv-x="1142" d="M102 446v107l846 467l62 -113l-748 -407l748 -408l-62 -112z" />
<glyph unicode="=" horiz-adv-x="1042" d="M143 248v127h756v-127h-756zM143 612v127h756v-127h-756z" />
<glyph unicode="&#x3e;" horiz-adv-x="1142" d="M133 92l748 408l-748 407l62 113l845 -467v-107l-845 -466z" />
<glyph unicode="?" horiz-adv-x="974" d="M113 1389q139 37 331 36q238 0 318 -84t80 -284q0 -172 -30 -242t-155 -168l-247 -188l-99 131l104 77q77 56 124 95q92 74 111.5 119t19.5 168q0 135 -42 179t-196 44q-166 0 -297 -31zM309 0v236h176v-236h-176z" />
<glyph unicode="@" horiz-adv-x="1523" d="M123 682q0 309 185.5 505.5t482 196.5t458.5 -152.5t162 -410.5q0 -184 -94 -298.5t-273 -114.5q-127 0 -174 73q-104 -57 -211 -57q-84 0 -121.5 45t-23.5 123l41 235q18 100 75.5 142.5t170.5 42.5q115 0 243 -58l-75 -430q33 -12 80 -12q123 0 179 87t56 218 q0 207 -129 329t-364 122q-231 0 -384 -163t-153 -423q0 -270 153.5 -428t446.5 -158q174 0 365 78l36 -102q-170 -92 -405 -92q-346 0 -536.5 190t-190.5 512zM635 604q-8 -39 6 -54t61 -15q90 0 158 47l53 305q-72 23 -131 22q-94 0 -108 -84z" />
<glyph unicode="A" d="M57 0l461 1364h238l461 -1364h-179l-112 328h-580l-110 -328h-179zM393 481h488l-244 756z" />
<glyph unicode="B" horiz-adv-x="1169" d="M174 0v1364h526q322 0 322 -277v-157q0 -170 -156 -228q92 -16 146.5 -78.5t54.5 -166.5v-164q0 -141 -91 -217t-247 -76h-555zM350 152h355q186 0 186 155v144q0 168 -197 167h-344v-466zM350 770h312q184 0 184 160v153q0 129 -156 129h-340v-442z" />
<glyph unicode="C" horiz-adv-x="1056" d="M143 381v602q0 199 112 300t355 101q182 0 344 -36l-18 -152q-162 29 -320 29q-168 0 -232.5 -54.5t-64.5 -197.5v-582q0 -143 65 -197.5t232 -54.5q158 0 320 29l18 -152q-162 -37 -344 -36q-244 0 -355.5 101t-111.5 300z" />
<glyph unicode="D" horiz-adv-x="1222" d="M174 0v1364h477q438 0 439 -391v-582q0 -391 -439 -391h-477zM350 158h295q150 0 209 60.5t59 184.5v558q0 125 -59 185t-209 60h-295v-1048z" />
<glyph unicode="E" horiz-adv-x="1105" d="M174 0v1364h803v-158h-627v-428h582v-157h-582v-463h629v-158h-805z" />
<glyph unicode="F" horiz-adv-x="1067" d="M174 0v1364h811v-158h-635v-454h592v-158h-592v-594h-176z" />
<glyph unicode="G" horiz-adv-x="1183" d="M143 381v600q0 209 113 306t365 97q188 0 378 -43l-20 -151q-203 35 -367 35q-166 0 -229.5 -56.5t-63.5 -195.5v-582q0 -137 58.5 -194.5t226.5 -57.5q131 0 256 25v463h170v-588q-203 -59 -432 -59q-250 0 -352.5 100t-102.5 301z" />
<glyph unicode="H" horiz-adv-x="1304" d="M174 0v1364h176v-588h604v588h176v-1364h-176v618h-604v-618h-176z" />
<glyph unicode="I" horiz-adv-x="544" d="M184 0v1364h176v-1364h-176z" />
<glyph unicode="J" horiz-adv-x="524" d="M-18 -281q141 135 166.5 172t25.5 109v1364h176v-1370q0 -117 -37 -173.5t-221 -226.5z" />
<glyph unicode="K" horiz-adv-x="1204" d="M174 0v1364h176v-1364h-176zM393 694l492 670h207l-500 -670l541 -694h-211z" />
<glyph unicode="L" horiz-adv-x="1024" d="M174 0v1364h176v-1206h592v-158h-768z" />
<glyph unicode="M" horiz-adv-x="1634" d="M154 0l47 1364h223l393 -1055l393 1055h224l47 -1364h-170l-27 1106l-348 -930h-238l-348 930l-26 -1106h-170z" />
<glyph unicode="N" horiz-adv-x="1351" d="M174 0v1364h242l594 -1167v1167h168v-1364h-242l-594 1161v-1161h-168z" />
<glyph unicode="O" d="M143 393v578q0 184 122 298.5t372 114.5t371.5 -114.5t121.5 -298.5v-578q0 -184 -121.5 -298.5t-371.5 -114.5t-372 114.5t-122 298.5zM319 397q0 -262 317.5 -262t317.5 262v570q0 262 -317.5 262t-317.5 -262v-570z" />
<glyph unicode="P" horiz-adv-x="1140" d="M174 0v1364h494q211 0 303 -86t92 -250v-203q0 -166 -92 -252t-303 -86h-318v-487h-176zM350 645h312q125 0 175 40t50 140v201q0 100 -49.5 140t-175.5 40h-312v-561z" />
<glyph unicode="Q" d="M143 393v578q0 184 122 298.5t372 114.5t371.5 -114.5t121.5 -298.5v-578q0 -156 -88 -264.5t-268 -136.5l115 -260l-158 -72l-141 322q-225 12 -336 124.5t-111 286.5zM319 397q0 -262 317.5 -262t317.5 262v570q0 262 -317.5 262t-317.5 -262v-570z" />
<glyph unicode="R" horiz-adv-x="1294" d="M174 0v1364h520q211 0 303.5 -86t92.5 -250v-197q0 -256 -218 -317l355 -514h-203l-340 494h-334v-494h-176zM350 649h338q125 0 175 40t50 140v197q0 100 -49 140t-176 40h-338v-557z" />
<glyph unicode="S" horiz-adv-x="1105" d="M123 51l29 144q190 -59 380 -60q160 0 212.5 46t52.5 167q0 80 -3 112t-34 64.5t-81 47t-165 40.5q-129 29 -197.5 55.5t-109.5 77t-51.5 112t-10.5 175.5q0 186 95.5 269t341.5 83q199 0 368 -45l-14 -149q-172 39 -350 39q-164 0 -214 -41t-50 -162v-81q0 -24 10 -55.5 t22.5 -41.5t48 -28.5t73.5 -29t116 -28.5q141 -35 213 -62.5t112.5 -78t48 -103.5t7.5 -166q0 -96 -17.5 -159.5t-64.5 -114.5t-136 -74.5t-227 -23.5q-227 -1 -405 71z" />
<glyph unicode="T" horiz-adv-x="1073" d="M41 1206v158h991v-158h-407v-1206h-176v1206h-408z" />
<glyph unicode="U" horiz-adv-x="1294" d="M164 383v981h176v-971q0 -256 307 -256t307 256v971h176v-981q0 -182 -116.5 -292.5t-366.5 -110.5t-366.5 110.5t-116.5 292.5z" />
<glyph unicode="V" horiz-adv-x="1212" d="M37 1364h170l399 -1210l400 1210h170l-451 -1364h-238z" />
<glyph unicode="W" horiz-adv-x="1859" d="M41 1364h172l311 -1196l283 1196h246l282 -1196l312 1196h172l-359 -1364h-248l-282 1219l-283 -1219h-248z" />
<glyph unicode="X" horiz-adv-x="1206" d="M61 0l443 692l-428 672h188l338 -533l340 533h188l-430 -672l445 -692h-189l-354 553l-352 -553h-189z" />
<glyph unicode="Y" horiz-adv-x="1122" d="M20 1364h185l356 -762l357 762h184l-453 -952v-412h-176v412z" />
<glyph unicode="Z" horiz-adv-x="1187" d="M143 0v152l703 1060h-690v152h884v-152l-704 -1060h719v-152h-912z" />
<glyph unicode="[" horiz-adv-x="632" d="M195 -258v1876h397v-148h-225v-1581h225v-147h-397z" />
<glyph unicode="\" horiz-adv-x="903" d="M123 1384h164l504 -1624h-162z" />
<glyph unicode="]" horiz-adv-x="632" d="M41 -111h225v1581h-225v148h397v-1876h-397v147z" />
<glyph unicode="^" horiz-adv-x="942" d="M92 836l305 569h148l305 -569l-123 -64l-256 483l-256 -483z" />
<glyph unicode="_" horiz-adv-x="880" d="M-2 -20h885v-80h-885v80z" />
<glyph unicode="`" horiz-adv-x="641" d="M143 1296l74 115q94 -78 281 -186l-70 -107q-154 82 -285 178z" />
<glyph unicode="a" horiz-adv-x="1009" d="M127 266q0 152 74.5 216.5t230.5 64.5h266v155q0 94 -48 131t-169 37q-143 0 -299 -32l-18 137q164 43 328 43q207 0 292.5 -79t85.5 -245v-694h-145l-10 74q-135 -94 -324 -94q-264 -1 -264 286zM299 270q0 -82 26.5 -112.5t114.5 -30.5q131 0 258 82v194h-254 q-80 0 -112.5 -29.5t-32.5 -103.5z" />
<glyph unicode="b" horiz-adv-x="1062" d="M164 18v1387l172 25v-482q131 70 315 70q293 0 293 -311v-355q0 -186 -91 -279t-333 -93q-188 -1 -356 38zM336 145q94 -14 196 -14q141 0 190.5 52.5t49.5 162.5v367q0 78 -38 115.5t-124 37.5q-119 0 -274 -75v-646z" />
<glyph unicode="c" horiz-adv-x="837" d="M102 342v313q0 182 87 272.5t311 90.5q141 0 237 -31l-14 -143q-106 23 -219 22q-129 0 -179.5 -44t-50.5 -160v-326q0 -117 50.5 -161t179.5 -44q113 0 219 23l16 -144q-96 -31 -239 -30q-227 0 -312.5 89t-85.5 273z" />
<glyph unicode="d" horiz-adv-x="1071" d="M127 285v407q0 326 324 326q135 0 284 -31v418l172 25v-1430h-145l-14 90q-137 -111 -330 -110q-291 0 -291 305zM299 285q0 -80 33 -117t121 -37q150 0 282 119v586q-154 31 -274 30q-86 0 -124 -42t-38 -132v-407z" />
<glyph unicode="e" horiz-adv-x="985" d="M113 346v299q0 373 391 373q375 0 375 -377v-209h-594v-84q0 -123 48 -172t189 -49q137 0 316 47l22 -137q-156 -57 -352 -57q-211 0 -303 94t-92 272zM285 575h428v82q0 111 -46 164t-163 53t-168 -54t-51 -163v-82z" />
<glyph unicode="f" horiz-adv-x="722" d="M61 854v143h177v185q0 264 282 264q109 0 203 -29l-14 -133q-96 18 -166 19q-78 0 -105.5 -30t-27.5 -108v-168h284l-14 -143h-270v-854h-172v854h-177z" />
<glyph unicode="g" horiz-adv-x="1003" d="M92 631v45q0 170 91 256t298 86q100 0 168 -21h287v-100l-119 -23q51 -72 55 -198v-45q0 -164 -99 -252t-292 -88q-55 0 -102 6q-72 -59 -72 -107q0 -51 66 -57l282 -29q135 -14 192.5 -69t57.5 -170q0 -168 -86 -228.5t-350 -60.5q-190 0 -363 47l25 135 q174 -41 334 -41q182 0 230 28t48 112q0 61 -28.5 80.5t-118.5 27.5q-27 2 -112 10l-152 15q-195 16 -195 182q0 104 94 176q-139 78 -139 283zM254 631q0 -113 51 -156t176 -43q121 0 174.5 49t53.5 150v43q0 109 -52.5 156t-175.5 47q-125 0 -176 -46.5t-51 -156.5v-43z " />
<glyph unicode="h" horiz-adv-x="1091" d="M164 0v1405l172 25v-517q217 104 385 105q217 0 217 -254v-764h-172v762q0 92 -96 92q-55 0 -154.5 -30.5t-179.5 -71.5v-752h-172z" />
<glyph unicode="i" horiz-adv-x="499" d="M164 0v997h172v-997h-172zM164 1157v248h172v-248h-172z" />
<glyph unicode="j" horiz-adv-x="489" d="M0 -293q119 106 141.5 140t22.5 100v1050h172v-1060q0 -104 -34 -155.5t-198 -195.5zM164 1157v248h172v-248h-172z" />
<glyph unicode="k" horiz-adv-x="991" d="M164 0v1405l172 25v-1430h-172zM379 504l352 493h199l-357 -493l373 -504h-203z" />
<glyph unicode="l" horiz-adv-x="499" d="M164 0v1405l172 25v-1430h-172z" />
<glyph unicode="m" horiz-adv-x="1693" d="M164 0v997h139l16 -86q221 106 402 107q145 0 190 -107q221 106 412 107q217 0 217 -254v-764h-172v762q0 92 -96 92q-61 0 -156.5 -28.5t-177.5 -71.5v-754h-172v762q0 92 -96 92q-55 0 -154.5 -29.5t-179.5 -70.5v-754h-172z" />
<glyph unicode="n" horiz-adv-x="1091" d="M164 0v997h139l16 -86q221 106 402 107q217 0 217 -254v-764h-172v762q0 92 -96 92q-55 0 -154.5 -29.5t-179.5 -70.5v-754h-172z" />
<glyph unicode="o" horiz-adv-x="1036" d="M113 354v289q0 168 99 271.5t306 103.5t306.5 -103.5t99.5 -271.5v-289q0 -168 -99.5 -271t-306.5 -103t-306 103t-99 271zM285 348q0 -219 233.5 -219t233.5 219v301q0 219 -233.5 219t-233.5 -219v-301z" />
<glyph unicode="p" horiz-adv-x="1071" d="M164 -428v1425h145l15 -90q139 111 329 111q291 0 291 -305v-408q0 -326 -323 -325q-135 0 -285 30v-413zM336 162q154 -31 274 -31q86 0 124 42t38 132v408q0 80 -32.5 116.5t-121.5 36.5q-150 0 -282 -118v-586z" />
<glyph unicode="q" horiz-adv-x="1062" d="M119 291v354q0 186 91 279.5t333 93.5q188 0 356 -39v-1382l-172 -25v477q-131 -70 -315 -69q-293 0 -293 311zM291 285q0 -78 38 -116t124 -38q119 0 274 76v645q-94 14 -197 14q-141 0 -190 -52t-49 -163v-366z" />
<glyph unicode="r" horiz-adv-x="630" d="M164 0v997h149l11 -139q125 98 274 160l23 -158q-123 -59 -285 -172v-688h-172z" />
<glyph unicode="s" horiz-adv-x="899" d="M123 33l22 135q143 -41 285 -41q115 0 149.5 26.5t34.5 108.5t-30.5 106.5t-177.5 61.5q-180 45 -225.5 101.5t-45.5 218.5q0 141 76 204.5t268 63.5q156 0 283 -35l-12 -141q-147 29 -277 28q-104 0 -136 -26.5t-32 -98.5q0 -88 24.5 -115.5t145.5 -56.5 q113 -29 170 -49t91 -57t41 -77t7 -122q0 -156 -70.5 -222t-273.5 -66q-178 0 -317 53z" />
<glyph unicode="t" horiz-adv-x="755" d="M51 854v143h176v246l172 25v-271h283l-14 -143h-269v-618q0 -61 18.5 -86t84.5 -25q63 0 160 25l22 -134q-100 -37 -209 -36q-129 0 -188.5 52t-59.5 175v647h-176z" />
<glyph unicode="u" horiz-adv-x="1091" d="M154 233v764h172v-761q0 -92 96 -93q55 0 154.5 30t179.5 71v753h172v-997h-140l-16 86q-221 -106 -401 -106q-217 -1 -217 253z" />
<glyph unicode="v" horiz-adv-x="921" d="M16 997h170l275 -856l274 856h170l-330 -997h-229z" />
<glyph unicode="w" horiz-adv-x="1425" d="M37 997h164l166 -827l241 827h209l242 -827l166 827h164l-213 -997h-222l-241 846l-242 -846h-221z" />
<glyph unicode="x" horiz-adv-x="917" d="M37 0l328 502l-322 495h178l238 -366l237 366h178l-323 -495l330 -502h-181l-241 371l-240 -371h-182z" />
<glyph unicode="y" horiz-adv-x="917" d="M16 997h170l273 -860l276 860h170l-330 -997l-141 -403h-162l140 403h-72z" />
<glyph unicode="z" horiz-adv-x="940" d="M123 0v139l508 719h-498v139h688l-2 -139l-508 -719h516v-139h-704z" />
<glyph unicode="{" horiz-adv-x="641" d="M113 594v139h47q49 0 67.5 21.5t18.5 64.5v529q0 147 52 208.5t189 61.5h134v-145h-123q-43 0 -61.5 -18.5t-18.5 -63.5v-494q0 -133 -37 -182q-33 -47 -100 -51q39 -2 67.5 -20.5t41.5 -40t19.5 -57.5t7.5 -54.5t1 -49.5v-12v-493q0 -45 18.5 -63.5t61.5 -18.5h123v-146 h-134q-137 0 -189 61.5t-52 209.5v528q0 43 -18.5 64.5t-67.5 21.5h-47z" />
<glyph unicode="|" horiz-adv-x="526" d="M205 -430v2048h117v-2048h-117z" />
<glyph unicode="}" horiz-adv-x="641" d="M20 -145h123q43 0 61.5 18t18.5 64v493q0 133 37 182q33 47 100 52q-39 2 -67.5 20t-41.5 39.5t-19.5 57.5t-7.5 54.5t-1 49.5v12v494q0 45 -18.5 63.5t-61.5 18.5h-123v145h134q137 0 189 -61.5t52 -208.5v-529q0 -43 18.5 -64.5t67.5 -21.5h47v-139h-47 q-49 0 -67.5 -21.5t-18.5 -64.5v-528q0 -147 -52 -209t-189 -62h-134v146z" />
<glyph unicode="~" horiz-adv-x="1024" d="M92 463q45 119 105.5 179t156.5 60q74 0 173.5 -75.5t146.5 -75.5q43 0 73.5 26.5t43 51t32.5 78.5l109 -50q-80 -242 -260 -241q-63 0 -121.5 38t-109 74.5t-89.5 36.5q-55 0 -85.5 -36.5t-65.5 -118.5z" />
<glyph unicode="&#xa1;" horiz-adv-x="544" d="M184 762v235h176v-235h-176zM186 260l33 348h107l32 -348v-663h-172v663z" />
<glyph unicode="&#xa2;" horiz-adv-x="868" d="M113 524v314q0 162 66.5 250t232.5 106v190h137v-184q111 -6 194 -26l-10 -144q-102 18 -219 19q-129 0 -179 -44t-50 -161v-326q0 -117 50 -161t179 -44q106 0 219 19l12 -144q-92 -25 -196 -26v-182h-137v186q-170 18 -234.5 106t-64.5 252z" />
<glyph unicode="&#xa3;" horiz-adv-x="1091" d="M143 612v136h179q-82 135 -82 284q0 164 91 237.5t300 73.5q164 0 325 -43l-20 -141q-143 37 -305 37q-125 0 -172 -37t-47 -137q0 -125 88 -274h393l-6 -136h-350q16 -39 16 -94q0 -188 -174 -368h579v-150h-788v150q211 168 211 368q0 55 -19 94h-219z" />
<glyph unicode="&#xa4;" horiz-adv-x="1138" d="M143 268l131 131q-35 55 -34 144v288q0 84 34 142l-131 131l107 106l141 -141q68 31 178 31q100 0 179 -31l141 141l106 -106l-131 -131q35 -57 35 -142v-288q0 -88 -35 -144l131 -131l-106 -106l-141 141q-72 -31 -179 -31q-109 0 -178 29l-141 -139zM393 569 q0 -86 37 -121.5t139 -35.5q100 0 138 35.5t38 121.5v234q0 86 -37.5 122t-138.5 36q-102 0 -139 -36t-37 -122v-234z" />
<glyph unicode="&#xa5;" horiz-adv-x="1126" d="M41 1323h184l338 -721l338 721h184l-286 -600h211v-121h-269l-90 -190h359v-121h-359v-291h-176v291h-356v121h356l-92 190h-264v121h207z" />
<glyph unicode="&#xa6;" horiz-adv-x="526" d="M205 424h117v-854h-117v854zM205 764v854h117v-854h-117z" />
<glyph unicode="&#xa7;" horiz-adv-x="1128" d="M143 1153q0 123 66.5 177t224.5 54t303 -51l-22 -123q-178 41 -285 41q-78 0 -103.5 -24.5t-25.5 -91.5q0 -350 244 -1090l-144 -45q-258 737 -258 1153zM401 -330l23 123q178 -41 285 -41q78 0 103.5 24.5t25.5 92.5q0 350 -244 1089l143 46q258 -737 258 -1154 q0 -123 -66.5 -177t-224.5 -54t-303 51z" />
<glyph unicode="&#xa8;" horiz-adv-x="800" d="M143 1149v170h160v-170h-160zM498 1149v170h159v-170h-159z" />
<glyph unicode="&#xa9;" horiz-adv-x="1648" d="M123 682q0 297 194.5 499.5t505.5 202.5q313 0 508 -201.5t195 -500.5q0 -297 -194.5 -499.5t-508.5 -202.5q-309 0 -504.5 202.5t-195.5 499.5zM250 682q0 -248 157.5 -415t415.5 -167q260 0 418 166t158 416t-158 416t-418 166q-258 0 -415.5 -167t-157.5 -415z M580 547v282q0 115 61 168.5t205 53.5q104 0 196 -27l-12 -109q-92 20 -180 21q-90 0 -116.5 -23.5t-26.5 -95.5v-258q0 -72 26.5 -95.5t116.5 -23.5q88 0 180 21l12 -109q-92 -27 -196 -26q-143 0 -204.5 53t-61.5 168z" />
<glyph unicode="&#xaa;" horiz-adv-x="776" d="M154 961q0 94 46 134t142 40h164v96q0 59 -28.5 81.5t-104.5 22.5q-80 0 -185 -22l-12 86q94 27 203 26q129 0 181 -48t52 -152v-428h-90l-6 45q-82 -57 -199 -58q-163 1 -163 177zM260 965q0 -51 16.5 -71t69.5 -20q82 0 160 52v121h-156q-49 0 -69.5 -18.5t-20.5 -63.5 z" />
<glyph unicode="&#xab;" horiz-adv-x="991" d="M82 500l260 395l119 -78l-209 -317l209 -318l-119 -78zM479 500l260 395l119 -78l-209 -317l209 -318l-119 -78z" />
<glyph unicode="&#xac;" horiz-adv-x="1128" d="M123 469v143h831v-489h-151v346h-680z" />
<glyph unicode="&#xad;" horiz-adv-x="757" d="M123 500v141h512v-141h-512z" />
<glyph unicode="&#xae;" horiz-adv-x="964" d="M113 1054.5q0 157.5 102 264t268 106.5t267.5 -106.5t101.5 -264t-101.5 -264t-267.5 -106.5t-268 106.5t-102 264zM199 1055q0 -125 74.5 -207t209.5 -82t209 82t74 207t-74 206.5t-209 81.5t-209.5 -81.5t-74.5 -206.5zM369 893v340h133q106 0 106 -90v-47 q0 -53 -49 -80l90 -123h-69l-84 113h-70v-113h-57zM426 1059h74q49 0 49 39v41q0 25 -11.5 33t-37.5 8h-74v-121z" />
<glyph unicode="&#xaf;" horiz-adv-x="759" d="M133 1139v121h494v-121h-494z" />
<glyph unicode="&#xb0;" horiz-adv-x="712" d="M123 1110q0 100 61.5 166.5t172 66.5t172 -66.5t61.5 -166.5t-61.5 -166.5t-172 -66.5t-172 66.5t-61.5 166.5zM227 1110q0 -61 33 -101t96.5 -40t96 40t32.5 101t-32.5 101t-96 40t-96.5 -40t-33 -101z" />
<glyph unicode="&#xb1;" horiz-adv-x="1118" d="M143 0v135h832v-135h-832zM143 614v144h340v346h152v-346h340v-144h-340v-346h-152v346h-340z" />
<glyph unicode="&#xb2;" horiz-adv-x="794" d="M143 498v106l203 242q102 123 124 162t22 82v30q0 57 -27 78t-105 21q-84 0 -190 -27l-20 117q104 35 221 34q137 0 197.5 -51t60.5 -159v-39q0 -70 -21.5 -115t-107.5 -154l-168 -207h299v-120h-488z" />
<glyph unicode="&#xb3;" horiz-adv-x="790" d="M154 508l14 108q106 -18 207 -18q78 0 103.5 22.5t25.5 75.5v68q0 92 -115 92h-188v117h190q96 0 96 84v82q0 49 -27.5 68.5t-97.5 19.5q-109 0 -186 -15l-10 109q90 23 203 22q137 0 194.5 -45t57.5 -149v-86q0 -102 -89 -145q104 -33 105 -152v-72q0 -113 -58.5 -163 t-209.5 -50q-115 0 -215 27z" />
<glyph unicode="&#xb4;" horiz-adv-x="641" d="M143 1225q186 109 281 186l74 -115q-131 -96 -285 -178z" />
<glyph unicode="&#xb5;" horiz-adv-x="1091" d="M154 -403v1400h172v-772q2 -82 96 -82q55 0 154.5 30t179.5 71v753h172v-997h-140l-16 86q-221 -106 -401 -106q-16 0 -45 4v-387h-172z" />
<glyph unicode="&#xb6;" horiz-adv-x="1052" d="M133 936q0 182 122 305t304 123v-854q-182 0 -304 122t-122 304zM508 -322q145 137 174 173t29 75v1438h147v-1444q0 -72 -33.5 -117t-226.5 -227z" />
<glyph unicode="&#xb7;" horiz-adv-x="524" d="M174 543v235h176v-235h-176z" />
<glyph unicode="&#xb8;" horiz-adv-x="634" d="M133 -373l21 84q70 -20 127 -20q111 0 110 63q0 59 -86 60q-27 0 -61 -11l-60 27l43 197h99l-29 -142q27 6 55 6q150 0 150 -135q0 -72 -52.5 -115.5t-152.5 -43.5q-86 -1 -164 30z" />
<glyph unicode="&#xb9;" horiz-adv-x="681" d="M113 1184l243 139h111v-829h-137v669l-166 -84z" />
<glyph unicode="&#xba;" horiz-adv-x="806" d="M154 1016v178q0 104 60 167.5t189 63.5q127 0 188.5 -63.5t61.5 -167.5v-178q0 -104 -61.5 -168t-188.5 -64q-129 0 -189 64t-60 168zM258 1012q0 -135 145 -135q143 0 144 135v186q0 135 -144 135q-145 0 -145 -135v-186z" />
<glyph unicode="&#xbb;" horiz-adv-x="991" d="M133 182l209 318l-209 317l119 78l260 -395l-260 -396zM530 182l209 318l-209 317l119 78l260 -395l-260 -396z" />
<glyph unicode="&#xbc;" horiz-adv-x="1710" d="M123 1184l244 139h110v-829h-137v669l-166 -84zM457 -20l569 1411l113 -48l-568 -1411zM934 178v113l323 538h189v-538h121v-113h-121v-178h-131v178h-381zM1077 291h238v416z" />
<glyph unicode="&#xbd;" horiz-adv-x="1742" d="M123 1184l244 139h110v-829h-137v669l-166 -84zM455 -20l569 1411l113 -48l-568 -1411zM1092 0v106l202 242q102 123 124 162t22 82v31q0 57 -27 77.5t-104 20.5q-84 0 -191 -27l-20 117q104 35 221 35q137 0 197.5 -51.5t60.5 -159.5v-39q0 -70 -21.5 -115t-107.5 -153 l-168 -207h299v-121h-487z" />
<glyph unicode="&#xbe;" horiz-adv-x="1781" d="M154 508l14 108q106 -18 207 -18q78 0 103.5 22.5t25.5 75.5v68q0 92 -115 92h-188v117h190q96 0 96 84v82q0 49 -27.5 68.5t-97.5 19.5q-109 0 -186 -15l-10 109q90 23 203 22q137 0 194.5 -45t57.5 -149v-86q0 -102 -89 -145q104 -33 105 -152v-72q0 -113 -58.5 -163 t-209.5 -50q-115 0 -215 27zM532 -20l570 1411l112 -48l-567 -1411zM1006 178v113l323 538h189v-538h120v-113h-120v-178h-132v178h-380zM1149 291h237v416z" />
<glyph unicode="&#xbf;" horiz-adv-x="974" d="M133 -55q0 172 30 241.5t154 167.5l248 189l99 -131l-104 -77q-77 -56 -124 -95q-92 -74 -111.5 -119t-19.5 -168q0 -135 42 -179t196 -44q166 0 297 30l22 -147q-139 -37 -332 -37q-238 0 -317.5 84t-79.5 285zM489 762v235h177v-235h-177z" />
<glyph unicode="&#xc0;" d="M57 0l461 1364h238l461 -1364h-179l-112 328h-580l-110 -328h-179zM393 481h488l-244 756zM395 1618l78 119q113 -84 256 -168l-70 -113q-147 74 -264 162z" />
<glyph unicode="&#xc1;" d="M57 0l461 1364h238l461 -1364h-179l-112 328h-580l-110 -328h-179zM393 481h488l-244 756zM561 1569q143 84 256 168l78 -119q-117 -88 -264 -162z" />
<glyph unicode="&#xc2;" d="M57 0l461 1364h238l461 -1364h-179l-112 328h-580l-110 -328h-179zM381 1552q147 90 256 174q109 -84 256 -174l-53 -96q-88 41 -203 115q-115 -74 -203 -115zM393 481h488l-244 756z" />
<glyph unicode="&#xc3;" d="M57 0l461 1364h238l461 -1364h-179l-112 328h-580l-110 -328h-179zM354 1556q76 123 183 123q47 0 116 -34q82 -41 113 -41q53 0 92 61l84 -57q-59 -129 -176 -129q-51 0 -123 37q-72 39 -108 38q-47 0 -107 -67zM393 481h488l-244 756z" />
<glyph unicode="&#xc4;" d="M57 0l461 1364h238l461 -1364h-179l-112 328h-580l-110 -328h-179zM375 1483v159h164v-159h-164zM393 481h488l-244 756zM737 1483v159h164v-159h-164z" />
<glyph unicode="&#xc5;" d="M57 0l461 1364h238l461 -1364h-179l-112 328h-580l-110 -328h-179zM393 481h488l-244 756zM496 1567q0 61 36.5 101t104.5 40t105.5 -40t37.5 -101q0 -59 -37.5 -99.5t-105.5 -40.5t-104.5 40.5t-36.5 99.5zM575 1567q0 -66 61.5 -66t61.5 66q0 68 -61.5 68t-61.5 -68z " />
<glyph unicode="&#xc6;" horiz-adv-x="1718" d="M57 0l461 1364h1065v-158h-774l143 -428h586v-157h-532l157 -463h422v-158h-547l-112 328h-580l-110 -328h-179zM393 481h488l-244 756z" />
<glyph unicode="&#xc7;" horiz-adv-x="1056" d="M143 381v602q0 199 112 300t355 101q182 0 344 -36l-18 -152q-162 29 -320 29q-168 0 -232.5 -54.5t-64.5 -197.5v-582q0 -143 65 -197.5t232 -54.5q158 0 320 29l18 -152q-150 -33 -325 -36l-23 -109q29 6 56 6q150 0 149 -135q0 -72 -52 -116t-153 -44q-86 0 -164 31 l21 84q70 -20 127 -21q111 0 110 64q0 59 -86 59q-27 0 -61 -10l-59 27l36 168q-203 14 -295 114.5t-92 282.5z" />
<glyph unicode="&#xc8;" horiz-adv-x="1105" d="M174 0v1364h803v-158h-627v-428h582v-157h-582v-463h629v-158h-805zM356 1618l78 119q113 -84 256 -168l-69 -113q-148 74 -265 162z" />
<glyph unicode="&#xc9;" horiz-adv-x="1105" d="M174 0v1364h803v-158h-627v-428h582v-157h-582v-463h629v-158h-805zM469 1569q143 84 256 168l78 -119q-117 -88 -264 -162z" />
<glyph unicode="&#xca;" horiz-adv-x="1105" d="M174 0v1364h803v-158h-627v-428h582v-157h-582v-463h629v-158h-805zM338 1552q147 90 256 174q109 -84 256 -174l-53 -96q-88 41 -203 115q-115 -74 -203 -115z" />
<glyph unicode="&#xcb;" horiz-adv-x="1105" d="M174 0v1364h803v-158h-627v-428h582v-157h-582v-463h629v-158h-805zM311 1483v159h164v-159h-164zM674 1483v159h164v-159h-164z" />
<glyph unicode="&#xcc;" horiz-adv-x="544" d="M23 1618l77 119q113 -84 256 -168l-69 -113q-147 74 -264 162zM184 0v1364h176v-1364h-176z" />
<glyph unicode="&#xcd;" horiz-adv-x="544" d="M184 0v1364h176v-1364h-176zM197 1569q143 84 256 168l77 -119q-117 -88 -264 -162z" />
<glyph unicode="&#xce;" horiz-adv-x="544" d="M16 1552q147 90 256 174q109 -84 256 -174l-53 -96q-88 41 -203 115q-115 -74 -202 -115zM184 0v1364h176v-1364h-176z" />
<glyph unicode="&#xcf;" horiz-adv-x="544" d="M10 1483v159h164v-159h-164zM184 0v1364h176v-1364h-176zM373 1483v159h164v-159h-164z" />
<glyph unicode="&#xd0;" horiz-adv-x="1292" d="M82 621v143h162v600h477q438 0 438 -391v-582q0 -391 -438 -391h-477v621h-162zM420 158h295q150 0 209 60.5t59 184.5v558q0 125 -59.5 185t-208.5 60h-295v-442h270v-143h-270v-463z" />
<glyph unicode="&#xd1;" horiz-adv-x="1351" d="M174 0v1364h242l594 -1167v1167h168v-1364h-242l-594 1161v-1161h-168zM399 1556q76 123 183 123q47 0 116 -34q82 -41 113 -41q53 0 92 61l84 -57q-59 -129 -176 -129q-51 0 -123 37q-72 39 -108 38q-47 0 -107 -67z" />
<glyph unicode="&#xd2;" d="M143 393v578q0 184 122 298.5t372 114.5t371.5 -114.5t121.5 -298.5v-578q0 -184 -121.5 -298.5t-371.5 -114.5t-372 114.5t-122 298.5zM319 397q0 -262 317.5 -262t317.5 262v570q0 262 -317.5 262t-317.5 -262v-570zM399 1618l78 119q113 -84 256 -168l-69 -113 q-148 74 -265 162z" />
<glyph unicode="&#xd3;" d="M143 393v578q0 184 122 298.5t372 114.5t371.5 -114.5t121.5 -298.5v-578q0 -184 -121.5 -298.5t-371.5 -114.5t-372 114.5t-122 298.5zM319 397q0 -262 317.5 -262t317.5 262v570q0 262 -317.5 262t-317.5 -262v-570zM543 1569q143 84 256 168l78 -119 q-117 -88 -265 -162z" />
<glyph unicode="&#xd4;" d="M143 393v578q0 184 122 298.5t372 114.5t371.5 -114.5t121.5 -298.5v-578q0 -184 -121.5 -298.5t-371.5 -114.5t-372 114.5t-122 298.5zM319 397q0 -262 317.5 -262t317.5 262v570q0 262 -317.5 262t-317.5 -262v-570zM381 1552q147 90 256 174q109 -84 256 -174l-53 -96 q-88 41 -203 115q-115 -74 -203 -115z" />
<glyph unicode="&#xd5;" d="M143 393v578q0 184 122 298.5t372 114.5t371.5 -114.5t121.5 -298.5v-578q0 -184 -121.5 -298.5t-371.5 -114.5t-372 114.5t-122 298.5zM319 397q0 -262 317.5 -262t317.5 262v570q0 262 -317.5 262t-317.5 -262v-570zM344 1556q78 123 182 123q47 0 117 -34 q82 -41 113 -41q53 0 92 61l84 -57q-59 -129 -176 -129q-51 0 -123 37q-72 39 -109 38q-47 0 -106 -67z" />
<glyph unicode="&#xd6;" d="M143 393v578q0 184 122 298.5t372 114.5t371.5 -114.5t121.5 -298.5v-578q0 -184 -121.5 -298.5t-371.5 -114.5t-372 114.5t-122 298.5zM319 397q0 -262 317.5 -262t317.5 262v570q0 262 -317.5 262t-317.5 -262v-570zM375 1483v159h164v-159h-164zM737 1483v159h164 v-159h-164z" />
<glyph unicode="&#xd7;" horiz-adv-x="1071" d="M143 207l289 289l-289 290l103 101l289 -287l290 287l103 -101l-289 -290l289 -289l-103 -103l-290 289l-289 -289z" />
<glyph unicode="&#xd8;" d="M143 -70l105 181q-104 106 -105 282v578q0 184 122 298.5t372 114.5q186 0 305 -67l98 170l90 -53l-104 -183q104 -106 104 -280v-578q0 -184 -121.5 -298.5t-371.5 -114.5q-186 0 -305 67l-99 -170zM319 397q0 -66 23 -121l518 898q-84 55 -223 55q-317 0 -318 -262 v-570zM414 190q78 -55 223 -55q317 0 317 262v570q0 70 -24 120z" />
<glyph unicode="&#xd9;" horiz-adv-x="1294" d="M164 383v981h176v-971q0 -256 307 -256t307 256v971h176v-981q0 -182 -116.5 -292.5t-366.5 -110.5t-366.5 110.5t-116.5 292.5zM430 1618l78 119q113 -84 256 -168l-70 -113q-147 74 -264 162z" />
<glyph unicode="&#xda;" horiz-adv-x="1294" d="M164 383v981h176v-971q0 -256 307 -256t307 256v971h176v-981q0 -182 -116.5 -292.5t-366.5 -110.5t-366.5 110.5t-116.5 292.5zM543 1569q143 84 256 168l78 -119q-117 -88 -265 -162z" />
<glyph unicode="&#xdb;" horiz-adv-x="1294" d="M164 383v981h176v-971q0 -256 307 -256t307 256v971h176v-981q0 -182 -116.5 -292.5t-366.5 -110.5t-366.5 110.5t-116.5 292.5zM391 1552q147 90 256 174q109 -84 256 -174l-53 -96q-88 41 -203 115q-115 -74 -203 -115z" />
<glyph unicode="&#xdc;" horiz-adv-x="1294" d="M164 383v981h176v-971q0 -256 307 -256t307 256v971h176v-981q0 -182 -116.5 -292.5t-366.5 -110.5t-366.5 110.5t-116.5 292.5zM385 1483v159h164v-159h-164zM748 1483v159h163v-159h-163z" />
<glyph unicode="&#xdd;" horiz-adv-x="1122" d="M20 1364h185l356 -762l357 762h184l-453 -952v-412h-176v412zM481 1569q143 84 256 168l78 -119q-117 -88 -264 -162z" />
<glyph unicode="&#xde;" horiz-adv-x="1134" d="M174 0v1364h176v-236h318q211 0 303 -86t92 -249v-203q0 -166 -92 -252t-303 -86h-318v-252h-176zM350 410h312q125 0 175 39.5t50 140.5v201q0 100 -49.5 140t-175.5 40h-312v-561z" />
<glyph unicode="&#xdf;" horiz-adv-x="1216" d="M174 0v1071q0 178 101.5 276.5t290 98.5t283.5 -88t95 -228q0 -121 -82 -266q-70 -123 -69 -182q0 -20 5 -35.5t37.5 -48.5t96.5 -78q125 -90 153.5 -135t28.5 -145q0 -135 -62.5 -197.5t-238.5 -62.5q-127 0 -231 34l20 133q94 -23 197 -22q88 0 117.5 24.5t29.5 81.5 q0 66 -22.5 94.5t-137.5 108.5q-104 72 -134.5 122t-30.5 124q0 88 65 201q55 96 70.5 143t15.5 106q0 170 -207 170q-113 0 -166 -52t-53 -177v-1071h-172z" />
<glyph unicode="&#xe0;" horiz-adv-x="1009" d="M127 266q0 152 74.5 216.5t230.5 64.5h266v155q0 94 -48 131t-169 37q-143 0 -299 -32l-18 137q164 43 328 43q207 0 292.5 -79t85.5 -245v-694h-145l-10 74q-135 -94 -324 -94q-264 -1 -264 286zM293 1296l74 115q94 -78 280 -186l-69 -107q-154 82 -285 178zM299 270 q0 -82 26.5 -112.5t114.5 -30.5q131 0 258 82v194h-254q-80 0 -112.5 -29.5t-32.5 -103.5z" />
<glyph unicode="&#xe1;" horiz-adv-x="1009" d="M127 266q0 152 74.5 216.5t230.5 64.5h266v155q0 94 -48 131t-169 37q-143 0 -299 -32l-18 137q164 43 328 43q207 0 292.5 -79t85.5 -245v-694h-145l-10 74q-135 -94 -324 -94q-264 -1 -264 286zM299 270q0 -82 26.5 -112.5t114.5 -30.5q131 0 258 82v194h-254 q-80 0 -112.5 -29.5t-32.5 -103.5zM371 1225q186 109 280 186l74 -115q-131 -96 -285 -178z" />
<glyph unicode="&#xe2;" horiz-adv-x="1009" d="M127 266q0 152 74.5 216.5t230.5 64.5h266v155q0 94 -48 131t-169 37q-143 0 -299 -32l-18 137q164 43 328 43q207 0 292.5 -79t85.5 -245v-694h-145l-10 74q-135 -94 -324 -94q-264 -1 -264 286zM236 1200q135 80 272 193q137 -113 272 -193l-61 -96q-129 70 -211 137 q-82 -68 -211 -137zM299 270q0 -82 26.5 -112.5t114.5 -30.5q131 0 258 82v194h-254q-80 0 -112.5 -29.5t-32.5 -103.5z" />
<glyph unicode="&#xe3;" horiz-adv-x="1009" d="M127 266q0 152 74.5 216.5t230.5 64.5h266v155q0 94 -48 131t-169 37q-143 0 -299 -32l-18 137q164 43 328 43q207 0 292.5 -79t85.5 -245v-694h-145l-10 74q-135 -94 -324 -94q-264 -1 -264 286zM233 1204q78 123 183 123q47 0 116 -35q82 -41 113 -41q53 0 92 62 l84 -58q-59 -129 -176 -129q-51 0 -123 37q-72 39 -108 39q-47 0 -107 -67zM299 270q0 -82 26.5 -112.5t114.5 -30.5q131 0 258 82v194h-254q-80 0 -112.5 -29.5t-32.5 -103.5z" />
<glyph unicode="&#xe4;" horiz-adv-x="1009" d="M127 266q0 152 74.5 216.5t230.5 64.5h266v155q0 94 -48 131t-169 37q-143 0 -299 -32l-18 137q164 43 328 43q207 0 292.5 -79t85.5 -245v-694h-145l-10 74q-135 -94 -324 -94q-264 -1 -264 286zM266 1149v170h160v-170h-160zM299 270q0 -82 26.5 -112.5t114.5 -30.5 q131 0 258 82v194h-254q-80 0 -112.5 -29.5t-32.5 -103.5zM621 1149v170h159v-170h-159z" />
<glyph unicode="&#xe5;" horiz-adv-x="1009" d="M127 266q0 152 74.5 216.5t230.5 64.5h266v155q0 94 -48 131t-169 37q-143 0 -299 -32l-18 137q164 43 328 43q207 0 292.5 -79t85.5 -245v-694h-145l-10 74q-135 -94 -324 -94q-264 -1 -264 286zM299 270q0 -82 26.5 -112.5t114.5 -30.5q131 0 258 82v194h-254 q-80 0 -112.5 -29.5t-32.5 -103.5zM356 1251.5q0 65.5 40 107.5t112 42t111.5 -42t39.5 -107.5t-39.5 -107.5t-111.5 -42t-112 42t-40 107.5zM440 1251.5q0 -32.5 18.5 -53t49.5 -20.5t49 20.5t18 53t-18 53t-49 20.5t-49.5 -20.5t-18.5 -53z" />
<glyph unicode="&#xe6;" horiz-adv-x="1570" d="M127 266q0 152 74.5 216.5t230.5 64.5h266v155q0 94 -48 131t-169 37q-143 0 -299 -32l-18 137q164 43 328 43q201 0 303 -100q106 100 295 100q375 0 374 -377v-209h-594v-106q4 -111 53.5 -155t184.5 -44q137 0 315 47l23 -137q-156 -57 -352 -57q-231 0 -324 116 q-160 -117 -369 -116q-152 0 -213 72.5t-61 213.5zM299 270q0 -82 26.5 -112.5t114.5 -30.5q133 0 275 78q-16 66 -17 141v57h-254q-80 0 -112.5 -29.5t-32.5 -103.5zM870 575h428v82q0 111 -46 164t-162.5 53t-168 -54t-51.5 -163v-82z" />
<glyph unicode="&#xe7;" horiz-adv-x="837" d="M102 342v313q0 182 87 272.5t311 90.5q141 0 237 -31l-14 -143q-106 23 -219 22q-129 0 -179.5 -44t-50.5 -160v-326q0 -117 50.5 -161t179.5 -44q113 0 219 23l16 -144q-96 -31 -239 -30l-23 -109q27 6 55 6q150 0 150 -135q0 -72 -52 -116t-153 -44q-86 0 -164 31 l21 84q70 -20 127 -21q111 0 110 64q0 59 -86 59q-27 0 -61 -10l-59 27l36 170q-170 18 -234.5 105t-64.5 251z" />
<glyph unicode="&#xe8;" horiz-adv-x="985" d="M113 346v299q0 373 391 373q375 0 375 -377v-209h-594v-84q0 -123 48 -172t189 -49q137 0 316 47l22 -137q-156 -57 -352 -57q-211 0 -303 94t-92 272zM279 1296l73 115q94 -78 281 -186l-70 -107q-153 82 -284 178zM285 575h428v82q0 111 -46 164t-163 53t-168 -54 t-51 -163v-82z" />
<glyph unicode="&#xe9;" horiz-adv-x="985" d="M113 346v299q0 373 391 373q375 0 375 -377v-209h-594v-84q0 -123 48 -172t189 -49q137 0 316 47l22 -137q-156 -57 -352 -57q-211 0 -303 94t-92 272zM285 575h428v82q0 111 -46 164t-163 53t-168 -54t-51 -163v-82zM375 1225q186 109 280 186l74 -115 q-131 -96 -285 -178z" />
<glyph unicode="&#xea;" horiz-adv-x="985" d="M113 346v299q0 373 391 373q375 0 375 -377v-209h-594v-84q0 -123 48 -172t189 -49q137 0 316 47l22 -137q-156 -57 -352 -57q-211 0 -303 94t-92 272zM246 1200q135 80 272 193q137 -113 273 -193l-62 -96q-129 70 -211 137q-82 -68 -211 -137zM285 575h428v82 q0 111 -46 164t-163 53t-168 -54t-51 -163v-82z" />
<glyph unicode="&#xeb;" horiz-adv-x="985" d="M113 346v299q0 373 391 373q375 0 375 -377v-209h-594v-84q0 -123 48 -172t189 -49q137 0 316 47l22 -137q-156 -57 -352 -57q-211 0 -303 94t-92 272zM258 1149v170h160v-170h-160zM285 575h428v82q0 111 -46 164t-163 53t-168 -54t-51 -163v-82zM612 1149v170h160v-170 h-160z" />
<glyph unicode="&#xec;" horiz-adv-x="499" d="M4 1296l74 115q94 -78 280 -186l-69 -107q-154 82 -285 178zM164 0v997h172v-997h-172z" />
<glyph unicode="&#xed;" horiz-adv-x="499" d="M164 0v997h172v-997h-172zM166 1225q186 109 280 186l74 -115q-131 -96 -284 -178z" />
<glyph unicode="&#xee;" horiz-adv-x="499" d="M-23 1200q135 80 273 193q137 -113 272 -193l-61 -96q-129 70 -211 137q-82 -68 -211 -137zM164 0v997h172v-997h-172z" />
<glyph unicode="&#xef;" horiz-adv-x="499" d="M-6 1149v170h160v-170h-160zM164 0v997h172v-997h-172zM348 1149v170h160v-170h-160z" />
<glyph unicode="&#xf0;" horiz-adv-x="1060" d="M133 336v229q0 199 79 290t284 91q143 0 260 -67q-14 172 -162 280l-176 -127l-60 78l148 107q-72 39 -211 86l43 133q164 -47 295 -127l135 96l59 -78l-108 -78q209 -174 209 -493v-420q0 -164 -95.5 -260t-302.5 -96q-397 0 -397 356zM305 362q0 -121 43 -177 t182.5 -56t182.5 56.5t43 176.5v357q-113 80 -246 80q-109 0 -157 -50.5t-48 -158.5v-228z" />
<glyph unicode="&#xf1;" horiz-adv-x="1091" d="M164 0v997h139l16 -86q221 106 402 107q217 0 217 -254v-764h-172v762q0 92 -96 92q-55 0 -154.5 -29.5t-179.5 -70.5v-754h-172zM262 1204q78 123 182 123q47 0 117 -35q82 -41 113 -41q53 0 92 62l84 -58q-59 -129 -176 -129q-51 0 -123 37q-72 39 -109 39 q-47 0 -106 -67z" />
<glyph unicode="&#xf2;" horiz-adv-x="1036" d="M113 354v289q0 168 99 271.5t306 103.5t306.5 -103.5t99.5 -271.5v-289q0 -168 -99.5 -271t-306.5 -103t-306 103t-99 271zM260 1296l74 115q94 -78 280 -186l-69 -107q-154 82 -285 178zM285 348q0 -219 233.5 -219t233.5 219v301q0 219 -233.5 219t-233.5 -219v-301z " />
<glyph unicode="&#xf3;" horiz-adv-x="1036" d="M113 354v289q0 168 99 271.5t306 103.5t306.5 -103.5t99.5 -271.5v-289q0 -168 -99.5 -271t-306.5 -103t-306 103t-99 271zM285 348q0 -219 233.5 -219t233.5 219v301q0 219 -233.5 219t-233.5 -219v-301zM389 1225q186 109 281 186l73 -115q-131 -96 -284 -178z" />
<glyph unicode="&#xf4;" horiz-adv-x="1036" d="M113 354v289q0 168 99 271.5t306 103.5t306.5 -103.5t99.5 -271.5v-289q0 -168 -99.5 -271t-306.5 -103t-306 103t-99 271zM246 1200q135 80 272 193q137 -113 273 -193l-62 -96q-129 70 -211 137q-82 -68 -211 -137zM285 348q0 -219 233.5 -219t233.5 219v301 q0 219 -233.5 219t-233.5 -219v-301z" />
<glyph unicode="&#xf5;" horiz-adv-x="1036" d="M113 354v289q0 168 99 271.5t306 103.5t306.5 -103.5t99.5 -271.5v-289q0 -168 -99.5 -271t-306.5 -103t-306 103t-99 271zM236 1204q76 123 182 123q47 0 117 -35q82 -41 112 -41q53 0 92 62l84 -58q-59 -129 -176 -129q-51 0 -123 37q-72 39 -108 39q-47 0 -107 -67z M285 348q0 -219 233.5 -219t233.5 219v301q0 219 -233.5 219t-233.5 -219v-301z" />
<glyph unicode="&#xf6;" horiz-adv-x="1036" d="M113 354v289q0 168 99 271.5t306 103.5t306.5 -103.5t99.5 -271.5v-289q0 -168 -99.5 -271t-306.5 -103t-306 103t-99 271zM262 1149v170h160v-170h-160zM285 348q0 -219 233.5 -219t233.5 219v301q0 219 -233.5 219t-233.5 -219v-301zM616 1149v170h160v-170h-160z" />
<glyph unicode="&#xf7;" horiz-adv-x="1101" d="M133 428v139h836v-139h-836zM465 63v193h172v-193h-172zM465 739v193h172v-193h-172z" />
<glyph unicode="&#xf8;" horiz-adv-x="1036" d="M113 -55l92 145q-92 94 -92 264v289q0 168 99 271.5t306 103.5q143 0 242 -55l88 137l76 -47l-93 -146q92 -98 93 -264v-289q0 -168 -99.5 -271t-306.5 -103q-145 0 -244 55l-86 -137zM285 348q0 -66 16 -104l373 583q-57 41 -156 41q-233 0 -233 -219v-301zM360 168 q57 -39 158 -39q233 0 234 219v301q0 59 -19 105z" />
<glyph unicode="&#xf9;" horiz-adv-x="1091" d="M154 233v764h172v-761q0 -92 96 -93q55 0 154.5 30t179.5 71v753h172v-997h-140l-16 86q-221 -106 -401 -106q-217 -1 -217 253zM317 1296l74 115q94 -78 281 -186l-70 -107q-154 82 -285 178z" />
<glyph unicode="&#xfa;" horiz-adv-x="1091" d="M154 233v764h172v-761q0 -92 96 -93q55 0 154.5 30t179.5 71v753h172v-997h-140l-16 86q-221 -106 -401 -106q-217 -1 -217 253zM412 1225q186 109 280 186l74 -115q-131 -96 -285 -178z" />
<glyph unicode="&#xfb;" horiz-adv-x="1091" d="M154 233v764h172v-761q0 -92 96 -93q55 0 154.5 30t179.5 71v753h172v-997h-140l-16 86q-221 -106 -401 -106q-217 -1 -217 253zM272 1200q135 80 273 193q137 -113 272 -193l-61 -96q-129 70 -211 137q-82 -68 -211 -137z" />
<glyph unicode="&#xfc;" horiz-adv-x="1091" d="M154 233v764h172v-761q0 -92 96 -93q55 0 154.5 30t179.5 71v753h172v-997h-140l-16 86q-221 -106 -401 -106q-217 -1 -217 253zM293 1149v170h160v-170h-160zM647 1149v170h160v-170h-160z" />
<glyph unicode="&#xfd;" horiz-adv-x="917" d="M16 997h170l273 -860l276 860h170l-330 -997l-141 -403h-162l140 403h-72zM332 1225q186 109 280 186l74 -115q-131 -96 -285 -178z" />
<glyph unicode="&#xfe;" horiz-adv-x="1071" d="M164 -428v1833l172 25v-515q133 102 317 103q291 0 291 -305v-408q0 -326 -323 -325q-135 0 -285 30v-413zM336 162q154 -31 274 -31q86 0 124 42t38 132v408q0 80 -32.5 116.5t-121.5 36.5q-150 0 -282 -118v-586z" />
<glyph unicode="&#xff;" horiz-adv-x="917" d="M16 997h170l273 -860l276 860h170l-330 -997l-141 -403h-162l140 403h-72zM211 1149v170h160v-170h-160zM565 1149v170h160v-170h-160z" />
<glyph unicode="&#x152;" horiz-adv-x="1863" d="M143 414v536q0 184 122 299t372 115h1092v-158h-627v-428h581v-157h-581v-463h629v-158h-1094q-250 0 -372 115t-122 299zM319 418q0 -262 318 -262h289v1052h-289q-317 0 -318 -262v-528z" />
<glyph unicode="&#x153;" horiz-adv-x="1624" d="M113 354v289q0 168 99 271.5t306 103.5q209 0 316 -113q96 113 309 113q375 0 375 -377v-209h-594v-94q0 -117 49 -164t188 -47q137 0 316 47l22 -137q-156 -57 -352 -57q-221 0 -318 108q-104 -109 -311 -108.5t-306 103.5t-99 271zM285 348q0 -219 233.5 -219 t233.5 207v313q0 219 -233.5 219t-233.5 -219v-301zM924 575h428v82q0 111 -46 164t-163 53t-168 -54t-51 -163v-82z" />
<glyph unicode="&#x178;" horiz-adv-x="1122" d="M20 1364h185l356 -762l357 762h184l-453 -952v-412h-176v412zM299 1483v159h164v-159h-164zM662 1483v159h163v-159h-163z" />
<glyph unicode="&#x2c6;" horiz-adv-x="811" d="M133 1200q135 80 273 193q137 -113 272 -193l-62 -96q-129 70 -210 137q-82 -68 -211 -137z" />
<glyph unicode="&#x2dc;" horiz-adv-x="854" d="M133 1204q76 123 182 123q47 0 117 -35q82 -41 113 -41q53 0 92 62l84 -58q-59 -129 -176 -129q-51 0 -123 37q-72 39 -109 39q-47 0 -106 -67z" />
<glyph unicode="&#x2000;" horiz-adv-x="868" />
<glyph unicode="&#x2001;" horiz-adv-x="1736" />
<glyph unicode="&#x2002;" horiz-adv-x="868" />
<glyph unicode="&#x2003;" horiz-adv-x="1736" />
<glyph unicode="&#x2004;" horiz-adv-x="577" />
<glyph unicode="&#x2005;" horiz-adv-x="434" />
<glyph unicode="&#x2006;" horiz-adv-x="288" />
<glyph unicode="&#x2007;" horiz-adv-x="288" />
<glyph unicode="&#x2008;" horiz-adv-x="217" />
<glyph unicode="&#x2009;" horiz-adv-x="346" />
<glyph unicode="&#x200a;" horiz-adv-x="96" />
<glyph unicode="&#x2010;" horiz-adv-x="757" d="M123 500v141h512v-141h-512z" />
<glyph unicode="&#x2011;" horiz-adv-x="757" d="M123 500v141h512v-141h-512z" />
<glyph unicode="&#x2013;" horiz-adv-x="995" d="M123 500v141h749v-141h-749z" />
<glyph unicode="&#x2014;" horiz-adv-x="1253" d="M123 500v141h1007v-141h-1007z" />
<glyph unicode="&#x2018;" horiz-adv-x="520" d="M174 952v236l123 246l80 -39l-86 -207h59v-236h-176z" />
<glyph unicode="&#x2019;" horiz-adv-x="489" d="M154 963l86 206h-60v236h176v-236l-123 -245z" />
<glyph unicode="&#x201a;" horiz-adv-x="520" d="M143 -207l86 207h-59v236h176v-236l-123 -246z" />
<glyph unicode="&#x201c;" horiz-adv-x="886" d="M174 952v236l123 246l80 -39l-86 -207h59v-236h-176zM541 952v236l123 246l79 -39l-86 -207h60v-236h-176z" />
<glyph unicode="&#x201d;" horiz-adv-x="886" d="M143 963l86 206h-59v236h176v-236l-123 -245zM510 963l86 206h-59v236h176v-236l-123 -245z" />
<glyph unicode="&#x201e;" horiz-adv-x="886" d="M143 -207l86 207h-59v236h176v-236l-123 -246zM510 -207l86 207h-59v236h176v-236l-123 -246z" />
<glyph unicode="&#x2022;" horiz-adv-x="763" d="M133 661.5q0 102.5 73 175t175 72.5t176 -72.5t74 -175t-74 -175t-176 -72.5t-175 72.5t-73 175z" />
<glyph unicode="&#x2026;" horiz-adv-x="1572" d="M174 0v236h176v-236h-176zM698 0v236h176v-236h-176zM1223 0v236h176v-236h-176z" />
<glyph unicode="&#x202f;" horiz-adv-x="346" />
<glyph unicode="&#x2039;" horiz-adv-x="593" d="M82 500l260 395l119 -78l-209 -317l209 -318l-119 -78z" />
<glyph unicode="&#x203a;" horiz-adv-x="593" d="M133 182l209 318l-209 317l119 78l260 -395l-260 -396z" />
<glyph unicode="&#x205f;" horiz-adv-x="434" />
<glyph unicode="&#x20ac;" horiz-adv-x="1112" d="M72 455v112h178v224h-178v112h178v39q0 199 111.5 300t355.5 101q152 0 303 -34l-19 -148q-154 27 -278 27q-168 0 -234.5 -55.5t-66.5 -196.5v-33h448v-112h-448v-224h448v-112h-448v-68q0 -141 66.5 -196.5t234.5 -55.5q139 0 278 25l19 -148q-143 -33 -303 -32 q-244 0 -355.5 101t-111.5 300v74h-178z" />
<glyph unicode="&#x2122;" horiz-adv-x="1046" d="M102 1294v70h322v-70h-123v-350h-76v350h-123zM504 944l12 420h90l113 -301l112 301h91l12 -420h-76l-6 281l-86 -230h-94l-86 230l-6 -281h-76z" />
</font>
</defs>
</svg>
