<?xml version="1.0" standalone="no"?>
<!DOCTYPE svg PUBLIC "-//W3C//DTD SVG 1.1//EN" "http://www.w3.org/Graphics/SVG/1.1/DTD/svg11.dtd" >
<svg xmlns="http://www.w3.org/2000/svg">
<metadata>
This is a custom SVG webfont generated by Font Squirrel.
Foundry     : Process Type Foundry
</metadata>
<defs>
<font id="webfontBUN34PZS" horiz-adv-x="1261" >
<font-face units-per-em="2048" ascent="1638" descent="-410" />
<missing-glyph horiz-adv-x="430" />
<glyph unicode=" "  horiz-adv-x="430" />
<glyph unicode="&#x09;" horiz-adv-x="430" />
<glyph unicode="&#xa0;" horiz-adv-x="430" />
<glyph unicode="!" horiz-adv-x="581" d="M143 0v340h295v-340h-295zM143 829v576h295v-576l-61 -356h-172z" />
<glyph unicode="&#x22;" horiz-adv-x="776" d="M102 897v508h203v-508h-203zM471 897v508h203v-508h-203z" />
<glyph unicode="#" horiz-adv-x="1388" d="M72 322l10 196h244l14 295h-250l10 197h250l17 313h211l-17 -313h291l16 313h211l-16 -313h233l-10 -197h-233l-15 -295h240l-10 -196h-238l-16 -322h-211l16 322h-291l-16 -322h-211l16 322h-245zM537 518h290l15 295h-291z" />
<glyph unicode="$" horiz-adv-x="1028" d="M92 49l53 240q190 -55 326 -56q104 0 137 30t33 118t-29.5 115.5t-165.5 54.5q-217 43 -281.5 124t-64.5 288q0 182 77 271t267 105v236h236v-238q135 -10 231 -34l-30 -252q-156 35 -338 34q-94 0 -121 -24.5t-27 -104.5q0 -84 27 -106.5t174 -58.5q100 -25 162.5 -52.5 t99.5 -55.5t53.5 -78t20.5 -92t4 -130q0 -188 -63.5 -280.5t-245.5 -114.5v-236h-236v232q-158 12 -299 65z" />
<glyph unicode="%" horiz-adv-x="1785" d="M72 936v151q0 141 73.5 219t255.5 78q180 0 254 -77.5t74 -219.5v-151q0 -141 -73.5 -219t-254.5 -78q-182 0 -255.5 78t-73.5 219zM299 920q0 -47 22.5 -65.5t80 -18.5t79 18t21.5 66v184q0 47 -21.5 65.5t-79 18.5t-80 -18.5t-22.5 -65.5v-184zM518 53l549 1331 l180 -71l-549 -1333zM1047 276v152q0 141 73.5 219t255.5 78q180 0 254 -78t74 -219v-152q0 -141 -74 -218.5t-254 -77.5q-182 0 -255.5 77.5t-73.5 218.5zM1274 260q0 -47 22.5 -65.5t80 -18.5t79 18.5t21.5 65.5v184q0 47 -21.5 65.5t-79 18.5t-80 -18t-22.5 -66v-184z " />
<glyph unicode="&#x26;" horiz-adv-x="1323" d="M123 319v111q0 207 158 275q-135 72 -136 251v86q0 342 435 342q236 0 444 -49l-37 -237q-190 39 -407 39q-139 0 -140 -109v-100q0 -125 119 -125h703v-248h-199v-502q-229 -74 -506 -73q-225 0 -329.5 91.5t-104.5 247.5zM418 354q0 -66 40 -99.5t109 -33.5 q121 0 217 23v311h-204q-162 0 -162 -125v-76z" />
<glyph unicode="'" horiz-adv-x="407" d="M102 897v508h203v-508h-203z" />
<glyph unicode="(" horiz-adv-x="667" d="M113 622.5q0 544.5 317 938.5l217 -123q-121 -201 -180 -387.5t-59 -428t59 -428t180 -387.5l-217 -122q-317 393 -317 937.5z" />
<glyph unicode=")" horiz-adv-x="667" d="M20 -193q121 201 180.5 387.5t59.5 428t-59.5 428t-180.5 387.5l218 123q317 -393 317 -938t-317 -938z" />
<glyph unicode="*" horiz-adv-x="956" d="M82 981v137h270l-147 232l114 75l158 -245l158 245l115 -75l-150 -232h274v-137h-268l144 -223l-117 -74l-156 242l-155 -242l-117 74l143 223h-266z" />
<glyph unicode="+" horiz-adv-x="1058" d="M113 385v225h299v305h235v-305h299v-225h-299v-303h-235v303h-299z" />
<glyph unicode="," horiz-adv-x="559" d="M113 -229l116 229h-98v340h295v-360l-180 -285z" />
<glyph unicode="-" horiz-adv-x="692" d="M82 451v245h528v-245h-528z" />
<glyph unicode="." horiz-adv-x="561" d="M133 0v340h295v-340h-295z" />
<glyph unicode="/" horiz-adv-x="946" d="M92 -240l510 1624h262l-510 -1624h-262z" />
<glyph unicode="0" horiz-adv-x="1130" d="M113 342v639q0 362 452.5 362t452.5 -362v-639q0 -362 -452.5 -362t-452.5 362zM408 383q0 -80 31.5 -112.5t125.5 -32.5t126 32.5t32 112.5v557q0 80 -32 112.5t-126 32.5t-125.5 -32.5t-31.5 -112.5v-557z" />
<glyph unicode="1" horiz-adv-x="796" d="M0 1100l387 223h266v-1323h-295v981l-231 -125z" />
<glyph unicode="2" horiz-adv-x="1030" d="M82 1290q207 53 391 53q236 0 339 -76.5t103 -244.5v-53q0 -154 -27.5 -224.5t-160.5 -232.5q-141 -170 -219 -254h420v-258h-828v252q201 207 297 315q164 188 189 226q35 57 35 155v37q0 53 -37 74.5t-125 21.5q-186 0 -338 -39z" />
<glyph unicode="3" horiz-adv-x="997" d="M92 25l31 227q145 -27 295 -27q106 0 144 23.5t38 85.5v94q0 109 -149 109h-271v251h228q96 0 131.5 29t35.5 98v84q0 63 -33.5 84t-131.5 21q-123 0 -283 -29l-31 232q174 37 340 36q246 0 340 -72.5t94 -234.5v-96q0 -188 -137 -272q86 -39 124 -97.5t38 -154.5v-105 q0 -164 -101.5 -247.5t-365.5 -83.5q-199 0 -336 45z" />
<glyph unicode="4" horiz-adv-x="1150" d="M31 281v256l506 786h387v-803h166v-239h-166v-281h-291v281h-602zM319 520h314v510z" />
<glyph unicode="5" horiz-adv-x="1019" d="M102 31l43 237q150 -33 320 -32q100 0 134 28.5t34 95.5v56q0 70 -30 94.5t-126 28.5q-182 8 -325 10v774h747v-256h-453v-279q66 -2 185 -8q166 -10 231.5 -83.5t65.5 -207.5v-145q-2 -125 -38 -199.5t-138.5 -119.5t-284.5 -45q-199 0 -365 51z" />
<glyph unicode="6" horiz-adv-x="1060" d="M102 375v499q0 262 161 365.5t468 103.5q96 0 201 -16l-21 -242q-72 10 -139 11q-209 0 -292 -47.5t-83 -171.5v-101q100 31 226 31q176 0 261 -82t85 -262v-88q0 -178 -95.5 -286.5t-338.5 -108.5q-246 0 -339.5 105.5t-93.5 289.5zM397 360q0 -72 29 -99.5t109 -27.5 q78 0 108.5 30t30.5 97v91q0 102 -101 102q-96 0 -176 -37v-156z" />
<glyph unicode="7" horiz-adv-x="935" d="M41 1063v260h854v-250l-440 -1073h-303l436 1063h-547z" />
<glyph unicode="8" horiz-adv-x="1093" d="M102 328v104q0 78 38 134.5t134 107.5q-139 90 -139 229v115q0 162 95.5 243.5t316.5 81.5t316 -81.5t95 -243.5v-115q0 -76 -30.5 -128t-108.5 -101q96 -51 134 -107.5t38 -134.5v-104q0 -188 -100 -268t-344 -80t-344.5 80t-100.5 268zM387 332q0 -63 34 -87t126 -24 q90 0 125 25.5t35 85.5v67q0 55 -27 82t-137 70q-109 -41 -132.5 -67.5t-23.5 -84.5v-67zM420 907q0 -49 22.5 -71.5t108.5 -55.5q86 31 104.5 53.5t18.5 73.5v99q0 53 -26.5 75.5t-100.5 22.5t-100.5 -22.5t-26.5 -75.5v-99z" />
<glyph unicode="9" horiz-adv-x="1050" d="M82 860v88q0 178 95 286.5t339 108.5q246 0 339 -105t93 -290v-499q0 -262 -160.5 -365.5t-468.5 -103.5q-98 0 -200 16l16 242q98 -10 144 -11q205 0 289.5 47.5t84.5 171.5v101q-100 -31 -225 -31q-176 0 -261 82t-85 262zM377 872q0 -102 100 -102q96 0 176 37v156 q0 72 -28.5 99.5t-108.5 27.5q-78 0 -108.5 -30t-30.5 -97v-91z" />
<glyph unicode=":" horiz-adv-x="561" d="M133 0v340h295v-340h-295zM133 596v340h295v-340h-295z" />
<glyph unicode=";" horiz-adv-x="559" d="M113 -229l116 229h-98v340h295v-360l-180 -285zM131 596v340h295v-340h-295z" />
<glyph unicode="&#x3c;" horiz-adv-x="1159" d="M61 424v151l908 443l88 -174l-721 -344l721 -344l-88 -176z" />
<glyph unicode="=" horiz-adv-x="1075" d="M113 217v197h850v-197h-850zM113 614v197h850v-197h-850z" />
<glyph unicode="&#x3e;" horiz-adv-x="1159" d="M102 156l721 344l-721 344l88 174l908 -443v-151l-908 -444z" />
<glyph unicode="?" horiz-adv-x="993" d="M72 1384q203 41 374 41q260 0 357.5 -96t97.5 -293q0 -135 -23.5 -202.5t-100.5 -143.5t-279 -223l-166 225q190 141 232 193.5t42 134.5q0 74 -41 108.5t-151 34.5q-119 0 -301 -33zM311 0v340h295v-340h-295z" />
<glyph unicode="@" horiz-adv-x="1478" d="M82 682q0 305 186.5 503.5t495.5 198.5q291 0 462 -162.5t171 -398.5q0 -188 -99.5 -320t-289.5 -132q-72 0 -128.5 31.5t-76.5 82.5q-82 -55 -205 -55q-145 0 -145 154q0 31 6 67l30 150q39 221 267 221q131 0 282 -68l-86 -405q23 -18 70 -19q92 0 141 84t49 205 q0 166 -114.5 280.5t-333.5 114.5q-221 0 -356.5 -149.5t-135.5 -382.5q0 -242 151.5 -384t383.5 -142q137 0 291 49l53 -158q-143 -68 -338 -67q-328 0 -529.5 196.5t-201.5 505.5zM631 657q-14 -68 53 -67q53 0 123 43l51 217q-49 20 -119 20q-61 0 -75 -67z" />
<glyph unicode="A" horiz-adv-x="1284" d="M20 0l416 1364h410l418 -1364h-320l-74 266h-456l-74 -266h-320zM483 522h314l-156 572z" />
<glyph unicode="B" horiz-adv-x="1171" d="M133 0v1364h539q389 0 389 -299v-139q0 -150 -152 -215q86 -20 143.5 -90t57.5 -162v-133q0 -150 -99.5 -238t-295.5 -88h-582zM440 248h191q82 0 127 25.5t45 93.5v84q0 115 -129 114h-234v-317zM440 805h191q59 0 91 26.5t32 69.5v119q0 96 -123 96h-191v-311z" />
<glyph unicode="C" horiz-adv-x="1067" d="M102 397v570q0 195 124 306t374 111q193 0 395 -43l-43 -268q-190 33 -352 33q-109 0 -149.5 -46t-40.5 -142v-472q0 -96 41 -142t149 -46q162 0 352 33l43 -268q-203 -43 -395 -43q-250 0 -374 111t-124 306z" />
<glyph unicode="D" horiz-adv-x="1224" d="M133 0v1364h529q236 0 348 -100.5t112 -253.5v-656q0 -152 -112.5 -253t-347.5 -101h-529zM440 272h185q109 0 149.5 40t40.5 126v488q0 86 -41 126t-149 40h-185v-820z" />
<glyph unicode="E" horiz-adv-x="1093" d="M133 0v1364h858v-272h-551v-250h508v-273h-508v-297h551v-272h-858z" />
<glyph unicode="F" horiz-adv-x="1060" d="M133 0v1364h866v-272h-559v-291h516v-273h-516v-528h-307z" />
<glyph unicode="G" horiz-adv-x="1196" d="M102 397v570q0 195 128 306t372 111q213 0 436 -43l-37 -268q-211 33 -399 33q-109 0 -150.5 -49t-41.5 -137v-469q0 -195 192 -195q86 0 182 12v418h289v-641q-227 -66 -471 -65q-242 0 -371 113.5t-129 303.5z" />
<glyph unicode="H" horiz-adv-x="1320" d="M133 0v1364h307v-543h441v543h307v-1364h-307v549h-441v-549h-307z" />
<glyph unicode="I" horiz-adv-x="593" d="M143 0v1364h308v-1364h-308z" />
<glyph unicode="J" horiz-adv-x="563" d="M-33 -215q111 90 138.5 126t27.5 89v1364h307v-1411q0 -92 -71.5 -181t-218.5 -204z" />
<glyph unicode="K" horiz-adv-x="1263" d="M133 0v1364h307v-1364h-307zM479 696l369 668h346l-383 -668l412 -696h-346z" />
<glyph unicode="L" horiz-adv-x="1021" d="M133 0v1364h307v-1092h541v-272h-848z" />
<glyph unicode="M" horiz-adv-x="1609" d="M113 0l57 1364h307l328 -868l328 868h307l57 -1364h-297l-20 758l-238 -582h-274l-238 582l-20 -758h-297z" />
<glyph unicode="N" horiz-adv-x="1384" d="M133 0v1364h377l448 -940v940h293v-1364h-379l-446 897v-897h-293z" />
<glyph unicode="O" d="M102 397v570q0 174 130 295.5t398.5 121.5t398.5 -121.5t130 -295.5v-570q0 -174 -130 -295.5t-398.5 -121.5t-398.5 121.5t-130 295.5zM410 424q0 -172 221 -172t221 172v516q0 172 -221 172t-221 -172v-516z" />
<glyph unicode="P" horiz-adv-x="1196" d="M133 0v1364h557q244 0 349.5 -95t105.5 -292v-178q0 -195 -112.5 -290t-358.5 -95h-234v-414h-307zM440 680h234q96 0 130 35t34 114v119q0 76 -35 110t-129 34h-234v-412z" />
<glyph unicode="Q" d="M102 397v570q0 174 130 295.5t398.5 121.5t398.5 -121.5t130 -295.5v-570q0 -129 -74.5 -234.5t-228.5 -152.5l109 -254l-279 -116l-145 344q-223 20 -331 137.5t-108 275.5zM410 424q0 -172 221 -172t221 172v516q0 172 -221 172t-221 -172v-516z" />
<glyph unicode="R" horiz-adv-x="1316" d="M133 0v1364h567q244 0 349.5 -95t105.5 -292v-168q0 -258 -199 -342l330 -467h-364l-301 424h-181v-424h-307zM440 690h244q94 0 129 35t35 115v108q0 78 -36 111t-128 33h-244v-402z" />
<glyph unicode="S" horiz-adv-x="1114" d="M92 68l51 237q211 -66 394 -65q117 0 152.5 28.5t35.5 116.5q0 53 -3 74.5t-28.5 45t-66.5 35t-131 31.5q-246 53 -312.5 131t-66.5 302q0 211 98 295.5t373 84.5q205 0 413 -45l-30 -258q-227 39 -379 39q-102 0 -135 -24.5t-33 -100.5q0 -98 29.5 -121.5t191.5 -62.5 q94 -23 156.5 -43t107.5 -49t68.5 -53.5t36 -72.5t15.5 -90t3 -120q0 -143 -38 -226t-149.5 -130t-312.5 -47q-247 0 -440 88z" />
<glyph unicode="T" horiz-adv-x="1089" d="M25 1092v272h1040v-272h-367v-1092h-307v1092h-366z" />
<glyph unicode="U" horiz-adv-x="1273" d="M123 397v967h307v-938q0 -86 48 -130t159 -44t159 44t48 130v938h307v-967q0 -176 -124 -296.5t-390 -120.5t-390 120.5t-124 296.5z" />
<glyph unicode="V" horiz-adv-x="1208" d="M0 1364h315l289 -1085l289 1085h315l-385 -1364h-438z" />
<glyph unicode="W" horiz-adv-x="1933" d="M10 1364h303l232 -975l237 975h375l234 -975l229 975h303l-334 -1364h-391l-229 1036l-232 -1036h-391z" />
<glyph unicode="X" horiz-adv-x="1253" d="M41 0l412 692l-398 672h322l250 -430l250 430h321l-399 -672l413 -692h-321l-264 451l-265 -451h-321z" />
<glyph unicode="Y" horiz-adv-x="1155" d="M0 1364h322l256 -633l256 633h321l-424 -971v-393h-307v393z" />
<glyph unicode="Z" horiz-adv-x="1159" d="M102 0v250l600 862h-573v252h918v-252l-594 -860h604v-252h-955z" />
<glyph unicode="[" horiz-adv-x="653" d="M154 -258v1876h458v-236h-163v-1405h163v-235h-458z" />
<glyph unicode="\" horiz-adv-x="946" d="M82 1384h262l510 -1624h-262z" />
<glyph unicode="]" horiz-adv-x="653" d="M41 -23h164v1405h-164v236h459v-1876h-459v235z" />
<glyph unicode="^" horiz-adv-x="954" d="M72 858l309 547h188l314 -547l-176 -106l-232 411l-231 -411z" />
<glyph unicode="_" horiz-adv-x="909" d="M-2 -20h913v-156h-913v156z" />
<glyph unicode="`" horiz-adv-x="634" d="M113 1292l110 172q129 -94 309 -209l-102 -155q-143 79 -317 192z" />
<glyph unicode="a" horiz-adv-x="1021" d="M102 283q0 150 71 215t226 65h215v76q0 82 -31.5 109.5t-144.5 27.5q-123 0 -270 -28l-39 221q162 49 358 49q252 0 337 -83t85 -298v-637h-241l-21 63q-152 -84 -285 -83q-131 0 -195.5 84t-64.5 219zM385 287q0 -41 18.5 -59.5t61.5 -18.5q74 0 149 35v114h-141 q-49 0 -68.5 -15t-19.5 -56z" />
<glyph unicode="b" horiz-adv-x="1099" d="M133 12v1393l295 41v-483q143 55 283 55q307 0 307 -361v-258q0 -98 -17.5 -166.5t-66.5 -130t-147.5 -92t-247.5 -30.5q-207 -1 -406 32zM428 240q43 -4 121 -4q102 0 138 40.5t36 120.5v258q0 106 -107 107q-82 0 -188 -55v-467z" />
<glyph unicode="c" horiz-adv-x="831" d="M72 385v227q0 213 107.5 309.5t348.5 96.5q104 0 242 -31l-37 -246q-104 25 -205 25q-88 0 -124.5 -36t-36.5 -114v-235q0 -78 36.5 -114t124.5 -36q98 0 205 25l37 -246q-137 -31 -242 -30q-242 0 -349 96t-107 309z" />
<glyph unicode="d" horiz-adv-x="1099" d="M82 348v301q0 369 336 369q135 0 254 -29v416l295 41v-1446h-232l-30 80q-156 -100 -308 -100q-154 0 -234.5 93t-80.5 275zM377 348q0 -113 106 -112q98 0 189 77v424q-102 25 -189 25q-106 0 -106 -113v-301z" />
<glyph unicode="e" horiz-adv-x="995" d="M82 385v233q0 399 428 400q119 0 202 -33t125 -94.5t59 -130t17 -156.5v-209h-536v-28q0 -84 39 -115t141 -31q162 0 303 43l43 -221q-174 -63 -375 -63q-446 -1 -446 405zM377 616h258v43q0 59 -25.5 93t-97.5 34q-135 0 -135 -127v-43z" />
<glyph unicode="f" horiz-adv-x="755" d="M41 735v242h152v149q0 158 80.5 239t256.5 81q86 0 226 -29l-37 -231q-72 14 -131 14q-66 0 -83.5 -24.5t-17.5 -81.5v-117h236l-21 -242h-215v-735h-294v735h-152z" />
<glyph unicode="g" horiz-adv-x="991" d="M72 -373l43 215q170 -41 327 -41q125 0 170 12.5t45 59.5q0 29 -16 40t-61 15q-90 8 -254 25q-113 12 -163 48t-50 132t86 182q-127 76 -127 256v121q6 326 407 326q88 0 170 -21h312v-139l-101 -37q23 -55 27 -129v-121q0 -147 -103.5 -232t-304.5 -85h-30 q-43 -27 -43 -55q0 -37 32 -41l248 -25q129 -10 185.5 -64.5t56.5 -179.5q0 -174 -109.5 -243.5t-349.5 -69.5q-204 0 -397 51zM346 586q0 -51 31 -75t102.5 -24t102 24t30.5 75v94q0 104 -133 104t-133 -104v-94z" />
<glyph unicode="h" horiz-adv-x="1132" d="M133 0v1405l291 41v-520q201 92 356 92q229 0 230 -320v-698h-295v659q0 72 -72 72t-215 -74v-657h-295z" />
<glyph unicode="i" horiz-adv-x="561" d="M133 0v997h295v-997h-295zM133 1122v314h295v-314h-295z" />
<glyph unicode="j" horiz-adv-x="540" d="M-31 -231q6 6 26.5 24.5l26 23.5l21.5 20.5t20.5 21.5t16.5 20.5t16 21.5l12 19q7 12 9 22.5t4 24t2 25.5v1005h295v-1044q0 -86 -63.5 -172t-207.5 -205zM123 1122v314h295v-314h-295z" />
<glyph unicode="k" horiz-adv-x="1079" d="M133 0v1405l295 41v-1446h-295zM467 502l254 495h315l-262 -495l275 -502h-316z" />
<glyph unicode="l" horiz-adv-x="561" d="M133 0v1405l295 41v-1446h-295z" />
<glyph unicode="m" horiz-adv-x="1714" d="M133 0v997h219l31 -75q199 96 397 96q127 0 183 -96q197 96 399 96q229 0 229 -320v-698h-295v659q0 72 -71 72q-84 0 -215 -72v-659h-295v659q0 72 -72 72q-84 0 -215 -72v-659h-295z" />
<glyph unicode="n" horiz-adv-x="1132" d="M133 0v997h219l31 -75q199 96 397 96q229 0 230 -320v-698h-295v659q0 72 -72 72q-84 0 -215 -72v-659h-295z" />
<glyph unicode="o" horiz-adv-x="1064" d="M82 383v231q0 176 103.5 290t347 114t347 -113.5t103.5 -290.5v-231q0 -176 -103.5 -289.5t-347 -113.5t-347 113.5t-103.5 289.5zM377 375q0 -147 155.5 -147.5t155.5 147.5v248q0 147 -155.5 147t-155.5 -147v-248z" />
<glyph unicode="p" horiz-adv-x="1099" d="M133 -444v1441h232l30 -79q156 100 307 100q154 0 235 -93.5t81 -275.5v-301q0 -369 -336 -368q-135 0 -254 28v-411zM428 260q102 -25 188 -24q106 0 107 112v301q0 113 -107 113q-98 0 -188 -78v-424z" />
<glyph unicode="q" horiz-adv-x="1099" d="M82 340v258q0 98 17.5 167t66.5 130t147.5 92t247.5 31q197 0 406 -35v-1386l-295 -41v479q-143 -55 -283 -55q-307 0 -307 360zM377 342q0 -106 106 -106q82 0 189 55v467q-43 4 -121 4q-102 0 -138 -41t-36 -121v-258z" />
<glyph unicode="r" horiz-adv-x="706" d="M133 0v997h246l20 -96q49 33 130 69t139 48l24 -279q-180 -72 -264 -131v-608h-295z" />
<glyph unicode="s" horiz-adv-x="886" d="M82 39l47 219q150 -45 301 -45q63 0 82.5 18.5t19.5 65.5q0 49 -22.5 65.5t-138.5 45.5q-172 43 -218.5 102t-46.5 209q0 164 81 231.5t300 67.5q174 0 304 -33l-27 -229q-154 29 -275 28q-61 0 -83.5 -16t-22.5 -51q0 -47 19.5 -61.5t107.5 -34.5q109 -25 168 -48.5 t91 -64.5t39 -84t7 -127q0 -162 -83 -239.5t-288 -77.5q-184 0 -362 59z" />
<glyph unicode="t" horiz-adv-x="737" d="M31 760v237h135v240l295 41v-281h227l-16 -237h-211v-484q0 -55 61 -55q68 0 123 19l35 -224q-106 -37 -213 -36q-301 0 -301 256v524h-135z" />
<glyph unicode="u" horiz-adv-x="1132" d="M123 299v698h295v-659q0 -72 71 -72q84 0 216 72v659h294v-997h-219l-30 76q-199 -96 -398 -96q-229 0 -229 319z" />
<glyph unicode="v" horiz-adv-x="1024" d="M10 997h299l203 -706l203 706h299l-314 -997h-376z" />
<glyph unicode="w" horiz-adv-x="1443" d="M37 997h270l94 -583l174 583h295l172 -583l95 583h270l-172 -997h-320l-194 651l-193 -651h-319z" />
<glyph unicode="x" horiz-adv-x="1007" d="M31 0l317 502l-309 495h291l174 -272l174 272h291l-310 -495l318 -502h-297l-176 276l-176 -276h-297z" />
<glyph unicode="y" horiz-adv-x="1013" d="M10 997h299l203 -706l203 706h299l-314 -997l-127 -403h-278l117 403h-95z" />
<glyph unicode="z" horiz-adv-x="942" d="M92 0v225l412 547h-410v225h754v-225l-414 -547h426v-225h-768z" />
<glyph unicode="{" horiz-adv-x="696" d="M82 553v221h53q74 0 74 70v469q0 305 289 305h178v-234h-90q-82 0 -82 -86v-419q0 -209 -195 -215q195 -6 195 -215v-420q0 -86 82 -86h90v-234h-178q-289 0 -289 305v469q0 70 -74 70h-53z" />
<glyph unicode="|" horiz-adv-x="532" d="M164 -430v2048h205v-2048h-205z" />
<glyph unicode="}" horiz-adv-x="696" d="M20 -57h91q82 0 82 86v420q0 209 194 215q-195 6 -194 215v419q0 86 -82 86h-91v234h179q289 0 288 -305v-469q0 -70 74 -70h53v-221h-53q-74 0 -74 -70v-469q0 -305 -288 -305h-179v234z" />
<glyph unicode="~" horiz-adv-x="944" d="M51 475q100 258 289 258q53 0 152.5 -63.5t132.5 -63.5q45 0 78.5 39t50.5 88l159 -92q-88 -258 -288 -258q-57 0 -115.5 31.5t-101.5 63.5t-68 32q-76 0 -129 -127z" />
<glyph unicode="&#xa1;" horiz-adv-x="581" d="M143 168l62 356h172l61 -356v-571h-295v571zM143 657v340h295v-340h-295z" />
<glyph unicode="&#xa2;" horiz-adv-x="872" d="M72 569v228q0 180 74.5 274t238.5 121v192h190v-184q72 -2 195 -29l-37 -245q-104 25 -205 24q-88 0 -124.5 -35.5t-36.5 -113.5v-236q0 -78 36.5 -113.5t124.5 -35.5q98 0 205 24l37 -245q-100 -25 -195 -31v-184h-190v194q-164 25 -238.5 120t-74.5 275z" />
<glyph unicode="&#xa3;" horiz-adv-x="1112" d="M113 575v211h147q-35 143 -35 220q0 178 100.5 257.5t317.5 79.5q178 0 371 -49l-39 -231q-156 35 -330 35q-70 0 -97.5 -29t-27.5 -88q0 -80 33 -195h358l-20 -211h-313q2 -14 2 -40q0 -150 -127 -283h567v-252h-897v252q162 125 162 287q0 25 -2 36h-170z" />
<glyph unicode="&#xa4;" horiz-adv-x="1196" d="M113 305l139 139q-18 47 -19 105v274q0 55 19 105l-139 139l174 174l157 -160q63 18 154 19q86 0 152 -19l159 160l174 -174l-139 -139q20 -47 21 -105v-274q0 -59 -21 -107l139 -137l-174 -174l-159 158q-70 -16 -152 -17q-84 0 -154 17l-157 -158zM483 582 q0 -53 29 -69.5t86 -16.5t87 16t30 70v209q0 53 -30 69.5t-87 16.5t-86 -16.5t-29 -69.5v-209z" />
<glyph unicode="&#xa5;" horiz-adv-x="1122" d="M0 1323h322l239 -592l240 592h321l-239 -545h125v-190h-209l-70 -160h279v-182h-293v-246h-307v246h-291v182h274l-69 160h-205v190h123z" />
<glyph unicode="&#xa6;" horiz-adv-x="532" d="M164 424h205v-854h-205v854zM164 764v854h205v-854h-205z" />
<glyph unicode="&#xa7;" horiz-adv-x="1095" d="M92 1141q0 117 77 180t222 63q178 0 377 -59l-35 -195q-199 47 -307 48q-88 0 -88 -82q0 -309 203 -1045l-230 -51q-219 723 -219 1141zM338 -324l35 195q199 -47 307 -47q88 0 88 82q0 309 -203 1044l230 51q219 -723 219 -1140q0 -117 -77 -180.5t-222 -63.5 q-178 0 -377 59z" />
<glyph unicode="&#xa8;" horiz-adv-x="888" d="M113 1135v241h233v-241h-233zM543 1135v241h233v-241h-233z" />
<glyph unicode="&#xa9;" horiz-adv-x="1568" d="M82 682q0 299 195.5 501.5t507 202.5t507 -202.5t195.5 -501.5q0 -297 -195.5 -499.5t-507 -202.5t-507 202.5t-195.5 499.5zM281 682q0 -219 139 -364.5t364.5 -145.5t364.5 145.5t139 364.5q0 221 -139 366.5t-364.5 145.5t-364.5 -145.5t-139 -366.5zM502 590v192 q0 131 75.5 195.5t239.5 64.5q109 0 187 -22l-27 -180q-78 18 -160 18q-100 0 -100 -92v-158q0 -49 23.5 -71.5t76.5 -22.5q86 0 160 16l27 -180q-80 -23 -187 -22q-315 0 -315 262z" />
<glyph unicode="&#xaa;" horiz-adv-x="772" d="M133 954q0 96 45 138.5t146 42.5h137v49q0 51 -20.5 69.5t-92.5 18.5q-82 0 -172 -19l-26 142q102 31 229 30q162 0 216 -53t54 -190v-408h-155l-13 41q-96 -53 -182 -53q-84 0 -125 53t-41 139zM313 958q0 -51 52 -51q43 0 96 23v74h-90q-31 0 -44.5 -10.5t-13.5 -35.5z " />
<glyph unicode="&#xab;" horiz-adv-x="1146" d="M92 500l260 395l187 -117l-183 -278l183 -279l-187 -117zM547 500l260 395l186 -117l-182 -278l182 -279l-186 -117z" />
<glyph unicode="&#xac;" horiz-adv-x="1038" d="M82 528v226h823v-541h-246v315h-577z" />
<glyph unicode="&#xad;" horiz-adv-x="692" d="M82 451v245h528v-245h-528z" />
<glyph unicode="&#xae;" horiz-adv-x="923" d="M92 1054.5q0 157.5 102.5 264t266.5 106.5q166 0 268 -106.5t102 -264t-102 -265t-268 -107.5q-164 0 -266.5 107.5t-102.5 265zM213 1055q0 -113 63.5 -185.5t184.5 -72.5t185.5 73.5t64.5 184t-64.5 183.5t-185.5 73t-184.5 -72.5t-63.5 -183.5zM336 893v340h141 q113 0 113 -98v-33q0 -61 -45 -84l86 -125h-94l-78 111h-41v-111h-82zM418 1077h53q39 0 39 33v16q0 31 -39 31h-53v-80z" />
<glyph unicode="&#xaf;" horiz-adv-x="704" d="M92 1147v188h520v-188h-520z" />
<glyph unicode="&#xb0;" horiz-adv-x="763" d="M102 1069q0 117 77 195.5t204 78.5t203 -78.5t76 -195.5t-76 -195.5t-203 -78.5q-129 0 -205 78.5t-76 195.5zM260 1069q0 -57 32 -96t91 -39q57 0 89 39t32 96q0 59 -31 97t-90 38t-91 -38t-32 -97z" />
<glyph unicode="&#xb1;" horiz-adv-x="1058" d="M113 0v215h833v-215h-833zM113 629v225h299v305h235v-305h299v-225h-299v-303h-235v303h-299z" />
<glyph unicode="&#xb2;" horiz-adv-x="806" d="M102 1300q150 43 287 43q152 0 210 -54t58 -175v-67q0 -100 -84 -201l-143 -168h254v-180h-561v159l188 195q94 94 112.5 124t18.5 64v39q0 39 -16 53.5t-61 14.5q-92 0 -224 -33z" />
<glyph unicode="&#xb3;" horiz-adv-x="751" d="M102 514l27 164q92 -23 205 -23q57 0 77.5 16.5t20.5 51.5v43q0 63 -74 63h-206v166h200q68 0 68 62v45q0 39 -18.5 54t-79.5 15q-84 0 -177 -16l-24 162q115 27 211 26q162 0 228.5 -53t66.5 -162v-47q0 -59 -19.5 -94t-75.5 -67q63 -20 85 -60.5t22 -105.5v-45 q0 -113 -65.5 -170.5t-237.5 -57.5q-123 0 -234 33z" />
<glyph unicode="&#xb4;" horiz-adv-x="634" d="M102 1255q180 115 310 209l110 -172q-174 -113 -317 -192z" />
<glyph unicode="&#xb5;" horiz-adv-x="1132" d="M123 -403v1400h295v-659q0 -72 71 -72q84 0 216 72v659h294v-997h-219l-30 76q-156 -76 -332 -92v-387h-295z" />
<glyph unicode="&#xb6;" horiz-adv-x="1101" d="M92 903.5q0 196.5 132 328.5t329 132v-920q-197 0 -329 131.5t-132 328zM473 -264q193 176 221.5 210t28.5 97v1321h225v-1354q0 -25 -2 -42l-4 -34q-2 -16 -11 -32.5t-14.5 -29.5t-24.5 -34l-32 -34q-12 -13 -44 -43l-53 -49l-69 -62l-82 -74z" />
<glyph unicode="&#xb7;" horiz-adv-x="561" d="M133 520v340h295v-340h-295z" />
<glyph unicode="&#xb8;" horiz-adv-x="585" d="M92 -371l29 113q70 -20 127 -21q96 0 96 46q0 33 -14.5 39t-57.5 6q-20 0 -86 -5l-41 35l43 199h129l-26 -137q111 14 157 -20t46 -120q0 -168 -230 -167q-88 -1 -172 32z" />
<glyph unicode="&#xb9;" horiz-adv-x="729" d="M72 1163l293 160h170v-829h-216v583l-172 -82z" />
<glyph unicode="&#xba;" horiz-adv-x="821" d="M123 1020v147q0 258 289 258q156 0 221 -72.5t65 -185.5v-147q0 -113 -65.5 -185.5t-220.5 -72.5q-289 0 -289 258zM311 1014q0 -94 101 -94q98 0 98 94v160q0 94 -98 94q-100 0 -101 -94v-160z" />
<glyph unicode="&#xbb;" horiz-adv-x="1146" d="M154 221l182 279l-182 278l186 117l260 -395l-260 -396zM608 221l183 279l-183 278l187 117l260 -395l-260 -396z" />
<glyph unicode="&#xbc;" horiz-adv-x="1777" d="M72 1163l293 160h170v-829h-216v583l-172 -82zM432 -20l637 1435l160 -72l-635 -1433zM954 158v147l283 524h297v-505h121v-166h-121v-158h-205v158h-375zM1165 324h164v331z" />
<glyph unicode="&#xbd;" horiz-adv-x="1798" d="M72 1163l293 160h170v-829h-216v583l-172 -82zM430 -20l637 1435l160 -72l-635 -1433zM1094 803q150 43 286 43q152 0 210.5 -54.5t58.5 -175.5v-67q0 -100 -84 -201l-144 -168h254v-180h-561v160l189 194q94 94 112.5 124t18.5 65v39q0 39 -16.5 53t-61.5 14 q-92 0 -223 -33z" />
<glyph unicode="&#xbe;" horiz-adv-x="1812" d="M92 514l27 160q90 -18 237 -19q66 0 66 60v59q0 59 -66 60h-215v157h201q68 0 68 62v49q0 39 -18.5 54t-80.5 15q-113 0 -176 -14l-24 162q111 25 211 24q162 0 228 -53t66 -162v-47q0 -59 -19 -94t-75 -67q63 -20 85 -60.5t22 -105.5v-45q0 -113 -65.5 -170.5 t-237.5 -57.5q-123 0 -234 33zM463 -20l635 1435l159 -72l-632 -1433zM989 158v147l283 524h297v-505h121v-166h-121v-158h-205v158h-375zM1200 324h164v331z" />
<glyph unicode="&#xbf;" horiz-adv-x="993" d="M92 -35q0 84 7 130t23.5 93.5t68 96.5t115 101t190.5 144l166 -225q-193 -143 -234 -192.5t-41 -130.5q0 -74 41 -109t152 -35q119 0 301 33l41 -254q-203 -41 -375 -41q-260 0 -357.5 96t-97.5 293zM387 657v340h295v-340h-295z" />
<glyph unicode="&#xc0;" horiz-adv-x="1284" d="M20 0l416 1364h410l418 -1364h-320l-74 266h-456l-74 -266h-320zM383 1620l111 172q90 -70 278 -188l-102 -156q-170 90 -287 172zM483 522h314l-156 572z" />
<glyph unicode="&#xc1;" horiz-adv-x="1284" d="M20 0l416 1364h410l418 -1364h-320l-74 266h-456l-74 -266h-320zM483 522h314l-156 572zM547 1604q188 119 278 188l111 -172q-117 -82 -287 -172z" />
<glyph unicode="&#xc2;" horiz-adv-x="1284" d="M20 0l416 1364h410l418 -1364h-320l-74 266h-456l-74 -266h-320zM379 1585q125 84 262 193q137 -109 262 -193l-80 -127q-98 43 -182 92q-84 -49 -182 -92zM483 522h314l-156 572z" />
<glyph unicode="&#xc3;" horiz-adv-x="1284" d="M20 0l416 1364h410l418 -1364h-320l-74 266h-456l-74 -266h-320zM313 1556q90 178 215 179q70 0 134 -43q72 -47 104 -47q59 0 78 84l139 -64q-55 -197 -217 -197q-76 0 -137 43q-61 45 -94 45q-10 0 -19.5 -3t-18 -10t-14.5 -11t-15 -16l-12 -17l-14 -18 q-10 -14 -10 -17zM483 522h314l-156 572z" />
<glyph unicode="&#xc4;" horiz-adv-x="1284" d="M20 0l416 1364h410l418 -1364h-320l-74 266h-456l-74 -266h-320zM317 1489v223h234v-223h-234zM483 522h314l-156 572zM731 1489v223h234v-223h-234z" />
<glyph unicode="&#xc5;" horiz-adv-x="1284" d="M20 0l416 1364h410l418 -1364h-320l-74 266h-456l-74 -266h-320zM461 1620q0 74 49 124t131 50t131 -50t49 -124q0 -72 -50 -122t-130 -50q-82 0 -131 47t-49 125zM483 522h314l-156 572zM571 1620q0 -33 18.5 -52.5t51.5 -19.5t51.5 19.5t18.5 52.5q0 35 -18.5 54.5 t-51.5 19.5t-51.5 -19.5t-18.5 -54.5z" />
<glyph unicode="&#xc6;" horiz-adv-x="1751" d="M20 0l416 1364h1213v-272h-721l78 -250h600v-273h-519l93 -297h469v-272h-705l-74 266h-456l-74 -266h-320zM483 522h314l-156 572z" />
<glyph unicode="&#xc7;" horiz-adv-x="1067" d="M102 397v570q0 195 124 306t374 111q193 0 395 -43l-43 -268q-190 33 -352 33q-190 0 -190 -188v-472q0 -188 190 -188q162 0 352 33l43 -268q-182 -39 -338 -41l-14 -78q111 14 157 -20t46 -120q0 -168 -230 -167q-88 0 -172 32l29 113q70 -20 127 -21q96 0 96 46 q0 33 -14 39t-57 6q-20 0 -86 -5l-41 35l30 142q-213 14 -319.5 124.5t-106.5 288.5z" />
<glyph unicode="&#xc8;" horiz-adv-x="1093" d="M133 0v1364h858v-272h-551v-250h508v-273h-508v-297h551v-272h-858zM326 1620l110 172q90 -70 279 -188l-103 -156q-169 90 -286 172z" />
<glyph unicode="&#xc9;" horiz-adv-x="1093" d="M133 0v1364h858v-272h-551v-250h508v-273h-508v-297h551v-272h-858zM420 1604q188 119 278 188l111 -172q-117 -82 -287 -172z" />
<glyph unicode="&#xca;" horiz-adv-x="1093" d="M133 0v1364h858v-272h-551v-250h508v-273h-508v-297h551v-272h-858zM322 1585q125 84 262 193q137 -109 262 -193l-80 -127q-98 43 -182 92q-84 -49 -183 -92z" />
<glyph unicode="&#xcb;" horiz-adv-x="1093" d="M133 0v1364h858v-272h-551v-250h508v-273h-508v-297h551v-272h-858zM246 1489v223h233v-223h-233zM659 1489v223h234v-223h-234z" />
<glyph unicode="&#xcc;" horiz-adv-x="593" d="M47 1620l111 172q90 -70 278 -188l-102 -156q-170 90 -287 172zM143 0v1364h308v-1364h-308z" />
<glyph unicode="&#xcd;" horiz-adv-x="593" d="M143 0v1364h308v-1364h-308zM168 1604q188 119 278 188l111 -172q-117 -82 -287 -172z" />
<glyph unicode="&#xce;" horiz-adv-x="593" d="M35 1585q125 84 262 193q137 -109 262 -193l-80 -127q-98 43 -182 92q-84 -49 -182 -92zM143 0v1364h308v-1364h-308z" />
<glyph unicode="&#xcf;" horiz-adv-x="593" d="M-27 1489v223h234v-223h-234zM143 0v1364h308v-1364h-308zM387 1489v223h234v-223h-234z" />
<glyph unicode="&#xd0;" horiz-adv-x="1277" d="M51 565v244h135v555h529q236 0 348.5 -100.5t112.5 -253.5v-656q0 -152 -113 -253t-348 -101h-529v565h-135zM494 272h184q109 0 149.5 40t40.5 126v488q0 86 -41 126t-149 40h-184v-283h180v-244h-180v-293z" />
<glyph unicode="&#xd1;" horiz-adv-x="1384" d="M133 0v1364h377l448 -940v940h293v-1364h-379l-446 897v-897h-293zM373 1556q90 178 215 179q68 0 133 -43q72 -47 104 -47q59 0 78 84l139 -64q-55 -197 -217 -197q-76 0 -137 43q-61 45 -94 45q-10 0 -19.5 -3t-17.5 -10t-14 -11t-16 -16l-12 -17l-13 -18 q-10 -14 -10 -17z" />
<glyph unicode="&#xd2;" d="M102 397v570q0 174 130 295.5t398.5 121.5t398.5 -121.5t130 -295.5v-570q0 -174 -130 -295.5t-398.5 -121.5t-398.5 121.5t-130 295.5zM356 1620l111 172q90 -70 278 -188l-102 -156q-170 90 -287 172zM410 424q0 -172 221 -172t221 172v516q0 172 -221 172t-221 -172 v-516z" />
<glyph unicode="&#xd3;" d="M102 397v570q0 174 130 295.5t398.5 121.5t398.5 -121.5t130 -295.5v-570q0 -174 -130 -295.5t-398.5 -121.5t-398.5 121.5t-130 295.5zM410 424q0 -172 221 -172t221 172v516q0 172 -221 172t-221 -172v-516zM512 1604q188 119 279 188l110 -172q-117 -82 -287 -172z " />
<glyph unicode="&#xd4;" d="M102 397v570q0 174 130 295.5t398.5 121.5t398.5 -121.5t130 -295.5v-570q0 -174 -130 -295.5t-398.5 -121.5t-398.5 121.5t-130 295.5zM369 1585q125 84 262 193q137 -109 262 -193l-80 -127q-98 43 -182 92q-84 -49 -182 -92zM410 424q0 -172 221 -172t221 172v516 q0 172 -221 172t-221 -172v-516z" />
<glyph unicode="&#xd5;" d="M102 397v570q0 174 130 295.5t398.5 121.5t398.5 -121.5t130 -295.5v-570q0 -174 -130 -295.5t-398.5 -121.5t-398.5 121.5t-130 295.5zM309 1556q90 178 215 179q70 0 133 -43q72 -47 105 -47q59 0 78 84l139 -64q-55 -197 -217 -197q-76 0 -137 43q-61 45 -95 45 q-10 0 -19 -3t-17.5 -10t-14.5 -11t-15 -16l-12 -17l-14 -18q-10 -14 -10 -17zM410 424q0 -172 221 -172t221 172v516q0 172 -221 172t-221 -172v-516z" />
<glyph unicode="&#xd6;" d="M102 397v570q0 174 130 295.5t398.5 121.5t398.5 -121.5t130 -295.5v-570q0 -174 -130 -295.5t-398.5 -121.5t-398.5 121.5t-130 295.5zM307 1489v223h234v-223h-234zM410 424q0 -172 221 -172t221 172v516q0 172 -221 172t-221 -172v-516zM721 1489v223h233v-223h-233z " />
<glyph unicode="&#xd7;" horiz-adv-x="983" d="M113 276l211 211l-211 211l168 168l211 -211l210 211l168 -168l-211 -211l211 -211l-168 -167l-210 210l-211 -210z" />
<glyph unicode="&#xd8;" d="M102 -51l107 174q-106 109 -107 274v570q0 174 130 295.5t399 121.5q176 0 305 -61l100 164l123 -74l-106 -174q106 -113 106 -272v-570q0 -174 -130 -295.5t-398 -121.5q-184 0 -307 61l-99 -164zM410 455l376 620q-59 37 -155 37q-221 0 -221 -172v-485zM475 289 q53 -37 156 -37q221 0 221 172v483z" />
<glyph unicode="&#xd9;" horiz-adv-x="1273" d="M123 397v967h307v-938q0 -86 48 -130t159 -44t159 44t48 130v938h307v-967q0 -176 -124 -296.5t-390 -120.5t-390 120.5t-124 296.5zM403 1620l111 172q90 -70 279 -188l-103 -156q-170 90 -287 172z" />
<glyph unicode="&#xda;" horiz-adv-x="1273" d="M123 397v967h307v-938q0 -86 48 -130t159 -44t159 44t48 130v938h307v-967q0 -176 -124 -296.5t-390 -120.5t-390 120.5t-124 296.5zM492 1604q188 119 278 188l111 -172q-117 -82 -287 -172z" />
<glyph unicode="&#xdb;" horiz-adv-x="1273" d="M123 397v967h307v-938q0 -86 48 -130t159 -44t159 44t48 130v938h307v-967q0 -176 -124 -296.5t-390 -120.5t-390 120.5t-124 296.5zM373 1585q125 84 262 193q137 -109 262 -193l-80 -127q-98 43 -182 92q-84 -49 -182 -92z" />
<glyph unicode="&#xdc;" horiz-adv-x="1273" d="M123 397v967h307v-938q0 -86 48 -130t159 -44t159 44t48 130v938h307v-967q0 -176 -124 -296.5t-390 -120.5t-390 120.5t-124 296.5zM313 1489v223h234v-223h-234zM727 1489v223h234v-223h-234z" />
<glyph unicode="&#xdd;" horiz-adv-x="1155" d="M0 1364h322l256 -633l256 633h321l-424 -971v-393h-307v393zM455 1604q188 119 278 188l111 -172q-117 -82 -287 -172z" />
<glyph unicode="&#xde;" horiz-adv-x="1196" d="M133 0v1364h307v-203h250q244 0 349.5 -95t105.5 -292v-178q0 -195 -112.5 -290t-358.5 -95h-234v-211h-307zM440 477h234q96 0 130 35t34 115v118q0 76 -35 110t-129 34h-234v-412z" />
<glyph unicode="&#xdf;" horiz-adv-x="1208" d="M133 0v1061q0 385 438 385q219 0 332 -95.5t113 -254.5q0 -102 -82 -234q-76 -119 -76 -160q0 -45 115 -145q121 -109 147.5 -154t26.5 -129q0 -154 -66.5 -224t-242.5 -70q-150 0 -267 36l35 220q90 -23 176 -23q82 0 82 53v10q0 4 -2 9.5t-5 9.5t-9 10l-11 11 q-5 5 -17.5 16.5t-23.5 20.5l-31 26l-38 33q-104 90 -134 141t-30 133q0 55 15.5 95t62.5 112q80 125 80 197q0 111 -143 110q-80 0 -115 -33.5t-35 -109.5v-1057h-295z" />
<glyph unicode="&#xe0;" horiz-adv-x="1021" d="M102 283q0 150 71 215t226 65h215v76q0 82 -31.5 109.5t-144.5 27.5q-123 0 -270 -28l-39 221q162 49 358 49q252 0 337 -83t85 -298v-637h-241l-21 63q-152 -84 -285 -83q-131 0 -195.5 84t-64.5 219zM242 1292l110 172q129 -94 310 -209l-103 -155q-143 79 -317 192z M385 287q0 -41 18.5 -59.5t61.5 -18.5q74 0 149 35v114h-141q-49 0 -68.5 -15t-19.5 -56z" />
<glyph unicode="&#xe1;" horiz-adv-x="1021" d="M102 283q0 150 71 215t226 65h215v76q0 82 -31.5 109.5t-144.5 27.5q-123 0 -270 -28l-39 221q162 49 358 49q252 0 337 -83t85 -298v-637h-241l-21 63q-152 -84 -285 -83q-131 0 -195.5 84t-64.5 219zM358 1255q180 115 310 209l110 -172q-174 -113 -317 -192zM385 287 q0 -41 18.5 -59.5t61.5 -18.5q74 0 149 35v114h-141q-49 0 -68.5 -15t-19.5 -56z" />
<glyph unicode="&#xe2;" horiz-adv-x="1021" d="M102 283q0 150 71 215t226 65h215v76q0 82 -31.5 109.5t-144.5 27.5q-123 0 -270 -28l-39 221q162 49 358 49q252 0 337 -83t85 -298v-637h-241l-21 63q-152 -84 -285 -83q-131 0 -195.5 84t-64.5 219zM227 1208q156 121 293 240q137 -119 293 -240l-90 -121 q-119 72 -203 134q-84 -61 -203 -134zM385 287q0 -41 18.5 -59.5t61.5 -18.5q74 0 149 35v114h-141q-49 0 -68.5 -15t-19.5 -56z" />
<glyph unicode="&#xe3;" horiz-adv-x="1021" d="M102 283q0 150 71 215t226 65h215v76q0 82 -31.5 109.5t-144.5 27.5q-123 0 -270 -28l-39 221q162 49 358 49q252 0 337 -83t85 -298v-637h-241l-21 63q-152 -84 -285 -83q-131 0 -195.5 84t-64.5 219zM182 1206q90 178 215 178q70 0 133 -43q72 -47 105 -47q59 0 78 84 l139 -63q-55 -197 -217 -197q-76 0 -137 43q-61 45 -95 45q-10 0 -19 -3t-17.5 -10t-14.5 -11t-15 -17l-12 -16l-14 -19q-10 -14 -10 -16zM385 287q0 -41 18.5 -59.5t61.5 -18.5q74 0 149 35v114h-141q-49 0 -68.5 -15t-19.5 -56z" />
<glyph unicode="&#xe4;" horiz-adv-x="1021" d="M102 283q0 150 71 215t226 65h215v76q0 82 -31.5 109.5t-144.5 27.5q-123 0 -270 -28l-39 221q162 49 358 49q252 0 337 -83t85 -298v-637h-241l-21 63q-152 -84 -285 -83q-131 0 -195.5 84t-64.5 219zM197 1135v241h233v-241h-233zM385 287q0 -41 18.5 -59.5t61.5 -18.5 q74 0 149 35v114h-141q-49 0 -68.5 -15t-19.5 -56zM627 1135v241h233v-241h-233z" />
<glyph unicode="&#xe5;" horiz-adv-x="1021" d="M102 283q0 150 71 215t226 65h215v76q0 82 -31.5 109.5t-144.5 27.5q-123 0 -270 -28l-39 221q162 49 358 49q252 0 337 -83t85 -298v-637h-241l-21 63q-152 -84 -285 -83q-131 0 -195.5 84t-64.5 219zM342 1284q0 82 53.5 136.5t145.5 54.5q94 0 146 -54.5t52 -136.5 t-52 -136t-146.5 -54t-146.5 52t-52 138zM385 287q0 -41 18.5 -59.5t61.5 -18.5q74 0 149 35v114h-141q-49 0 -68.5 -15t-19.5 -56zM465 1284q0 -37 20.5 -59.5t55 -22.5t55 22.5t20.5 59.5t-20.5 59.5t-55 22.5t-55 -22.5t-20.5 -59.5z" />
<glyph unicode="&#xe6;" horiz-adv-x="1527" d="M102 283q0 150 71 215t226 65h215v76q0 82 -31.5 109.5t-144.5 27.5q-123 0 -270 -28l-39 221q162 49 358 49q182 0 299 -76q115 76 256 76q119 0 202 -33t125 -94.5t59.5 -130t17.5 -156.5v-209h-537v-45q2 -76 42 -102.5t139 -26.5q162 0 303 43l43 -221 q-174 -63 -375 -63q-203 0 -313 81q-158 -82 -345 -81q-145 0 -223 85t-78 218zM385 287q0 -41 18.5 -59.5t61.5 -18.5q74 0 149 35v114h-141q-49 0 -68.5 -15t-19.5 -56zM909 616h258v43q0 59 -25.5 93t-97.5 34q-135 0 -135 -127v-43z" />
<glyph unicode="&#xe7;" horiz-adv-x="831" d="M72 385v227q0 213 107.5 309.5t348.5 96.5q104 0 242 -31l-37 -246q-104 25 -205 25q-88 0 -124.5 -36t-36.5 -114v-235q0 -78 36.5 -114t124.5 -36q98 0 205 25l37 -246q-137 -31 -242 -30l-14 -76q111 14 157 -20t46 -120q0 -168 -230 -167q-88 0 -172 32l29 113 q70 -20 127 -21q96 0 96 46q0 33 -14 39t-57 6q-20 0 -86 -5l-41 35l30 146q-172 23 -249.5 118t-77.5 279z" />
<glyph unicode="&#xe8;" horiz-adv-x="995" d="M82 385v233q0 399 428 400q119 0 202 -33t125 -94.5t59 -130t17 -156.5v-209h-536v-28q0 -84 39 -115t141 -31q162 0 303 43l43 -221q-174 -63 -375 -63q-446 -1 -446 405zM238 1292l110 172q129 -94 309 -209l-102 -155q-143 79 -317 192zM377 616h258v43q0 59 -25.5 93 t-97.5 34q-135 0 -135 -127v-43z" />
<glyph unicode="&#xe9;" horiz-adv-x="995" d="M82 385v233q0 399 428 400q119 0 202 -33t125 -94.5t59 -130t17 -156.5v-209h-536v-28q0 -84 39 -115t141 -31q162 0 303 43l43 -221q-174 -63 -375 -63q-446 -1 -446 405zM360 1255q180 115 310 209l110 -172q-174 -113 -317 -192zM377 616h258v43q0 59 -25.5 93 t-97.5 34q-135 0 -135 -127v-43z" />
<glyph unicode="&#xea;" horiz-adv-x="995" d="M82 385v233q0 399 428 400q119 0 202 -33t125 -94.5t59 -130t17 -156.5v-209h-536v-28q0 -84 39 -115t141 -31q162 0 303 43l43 -221q-174 -63 -375 -63q-446 -1 -446 405zM217 1208q156 121 293 240q137 -119 293 -240l-90 -121q-119 72 -203 134q-84 -61 -203 -134z M377 616h258v43q0 59 -25.5 93t-97.5 34q-135 0 -135 -127v-43z" />
<glyph unicode="&#xeb;" horiz-adv-x="995" d="M82 385v233q0 399 428 400q119 0 202 -33t125 -94.5t59 -130t17 -156.5v-209h-536v-28q0 -84 39 -115t141 -31q162 0 303 43l43 -221q-174 -63 -375 -63q-446 -1 -446 405zM182 1135v241h234v-241h-234zM377 616h258v43q0 59 -25.5 93t-97.5 34q-135 0 -135 -127v-43z M612 1135v241h234v-241h-234z" />
<glyph unicode="&#xec;" horiz-adv-x="561" d="M2 1292l111 172q129 -94 309 -209l-103 -155q-143 79 -317 192zM133 0v997h295v-997h-295z" />
<glyph unicode="&#xed;" horiz-adv-x="561" d="M133 0v997h295v-997h-295zM156 1255q180 115 309 209l110 -172q-174 -113 -317 -192z" />
<glyph unicode="&#xee;" horiz-adv-x="561" d="M-12 1208q156 121 293 240q137 -119 292 -240l-90 -121q-119 72 -202 134q-84 -61 -203 -134zM133 0v997h295v-997h-295z" />
<glyph unicode="&#xef;" horiz-adv-x="561" d="M-51 1135v241h233v-241h-233zM133 0v997h295v-997h-295zM379 1135v241h233v-241h-233z" />
<glyph unicode="&#xf0;" horiz-adv-x="1003" d="M102 375v61q0 184 78 264t250 80q82 0 197 -30v22q0 150 -107 244l-145 -142l-92 93l123 118q-92 37 -238 66l45 233q223 -27 385 -112l102 100l93 -92l-84 -82q213 -172 213 -477v-367q0 -375 -408 -374q-127 0 -213 31.5t-127 91t-56.5 123t-15.5 149.5zM391 346 q0 -119 119 -119q66 0 91.5 28t25.5 99v142q-80 37 -148 36q-43 0 -65.5 -21.5t-22.5 -80.5v-84z" />
<glyph unicode="&#xf1;" horiz-adv-x="1132" d="M133 0v997h219l31 -75q199 96 397 96q229 0 230 -320v-698h-295v659q0 72 -72 72q-84 0 -215 -72v-659h-295zM250 1206q90 178 215 178q68 0 133 -43q72 -47 104 -47q59 0 78 84l140 -63q-55 -197 -218 -197q-76 0 -137 43q-61 45 -94 45q-10 0 -19.5 -3t-17.5 -10 t-14 -11t-16 -17l-12 -16l-13 -19q-10 -14 -10 -16z" />
<glyph unicode="&#xf2;" horiz-adv-x="1064" d="M82 383v231q0 176 103.5 290t347 114t347 -113.5t103.5 -290.5v-231q0 -176 -103.5 -289.5t-347 -113.5t-347 113.5t-103.5 289.5zM248 1292l110 172q129 -94 310 -209l-103 -155q-143 79 -317 192zM377 375q0 -147 155.5 -147.5t155.5 147.5v248q0 147 -155.5 147 t-155.5 -147v-248z" />
<glyph unicode="&#xf3;" horiz-adv-x="1064" d="M82 383v231q0 176 103.5 290t347 114t347 -113.5t103.5 -290.5v-231q0 -176 -103.5 -289.5t-347 -113.5t-347 113.5t-103.5 289.5zM377 375q0 -147 155.5 -147.5t155.5 147.5v248q0 147 -155.5 147t-155.5 -147v-248zM393 1255q180 115 309 209l111 -172 q-174 -113 -317 -192z" />
<glyph unicode="&#xf4;" horiz-adv-x="1064" d="M82 383v231q0 176 103.5 290t347 114t347 -113.5t103.5 -290.5v-231q0 -176 -103.5 -289.5t-347 -113.5t-347 113.5t-103.5 289.5zM240 1208q156 121 292 240q137 -119 293 -240l-90 -121q-119 72 -203 134q-84 -61 -202 -134zM377 375q0 -147 155.5 -147.5t155.5 147.5 v248q0 147 -155.5 147t-155.5 -147v-248z" />
<glyph unicode="&#xf5;" horiz-adv-x="1064" d="M82 383v231q0 176 103.5 290t347 114t347 -113.5t103.5 -290.5v-231q0 -176 -103.5 -289.5t-347 -113.5t-347 113.5t-103.5 289.5zM199 1206q90 178 215 178q70 0 133 -43q72 -47 104 -47q59 0 78 84l139 -63q-55 -197 -217 -197q-76 0 -137 43q-61 45 -94 45 q-10 0 -19.5 -3t-17.5 -10t-14.5 -11t-15.5 -17l-12 -16l-13 -19q-10 -14 -11 -16zM377 375q0 -147 155.5 -147.5t155.5 147.5v248q0 147 -155.5 147t-155.5 -147v-248z" />
<glyph unicode="&#xf6;" horiz-adv-x="1064" d="M82 383v231q0 176 103.5 290t347 114t347 -113.5t103.5 -290.5v-231q0 -176 -103.5 -289.5t-347 -113.5t-347 113.5t-103.5 289.5zM201 1135v241h233v-241h-233zM377 375q0 -147 155.5 -147.5t155.5 147.5v248q0 147 -155.5 147t-155.5 -147v-248zM631 1135v241h233v-241 h-233z" />
<glyph unicode="&#xf7;" horiz-adv-x="1073" d="M113 406v188h848v-188h-848zM399 0v279h275v-279h-275zM399 719v278h275v-278h-275z" />
<glyph unicode="&#xf8;" horiz-adv-x="1064" d="M82 383v231q0 176 103.5 290t346.5 114q158 0 261 -51l94 133l90 -64l-94 -135q100 -102 100 -287v-231q0 -176 -103.5 -289.5t-347.5 -113.5q-158 0 -260 51l-94 -133l-90 61l94 135q-100 103 -100 289zM377 371l260 372q-39 27 -105 27q-156 0 -155 -147v-248v-4z M428 254q35 -27 104 -27q156 0 156 148v248z" />
<glyph unicode="&#xf9;" horiz-adv-x="1132" d="M123 299v698h295v-659q0 -72 71 -72q84 0 216 72v659h294v-997h-219l-30 76q-199 -96 -398 -96q-229 0 -229 319zM285 1292l110 172q129 -94 310 -209l-103 -155q-143 79 -317 192z" />
<glyph unicode="&#xfa;" horiz-adv-x="1132" d="M123 299v698h295v-659q0 -72 71 -72q84 0 216 72v659h294v-997h-219l-30 76q-199 -96 -398 -96q-229 0 -229 319zM420 1255q180 115 309 209l111 -172q-174 -113 -318 -192z" />
<glyph unicode="&#xfb;" horiz-adv-x="1132" d="M123 299v698h295v-659q0 -72 71 -72q84 0 216 72v659h294v-997h-219l-30 76q-199 -96 -398 -96q-229 0 -229 319zM293 1208q156 121 293 240q137 -119 293 -240l-91 -121q-119 72 -202 134q-84 -61 -203 -134z" />
<glyph unicode="&#xfc;" horiz-adv-x="1132" d="M123 299v698h295v-659q0 -72 71 -72q84 0 216 72v659h294v-997h-219l-30 76q-199 -96 -398 -96q-229 0 -229 319zM254 1135v241h233v-241h-233zM684 1135v241h234v-241h-234z" />
<glyph unicode="&#xfd;" horiz-adv-x="1013" d="M10 997h299l203 -706l203 706h299l-314 -997l-127 -403h-278l117 403h-95zM395 1255q180 115 310 209l110 -172q-174 -113 -317 -192z" />
<glyph unicode="&#xfe;" horiz-adv-x="1099" d="M133 -444v1849l295 41v-510q143 82 274 82q154 0 235 -93.5t81 -275.5v-301q0 -369 -336 -368q-135 0 -254 28v-411zM428 260q102 -25 188 -24q106 0 107 112v301q0 113 -107 113q-98 0 -188 -78v-424z" />
<glyph unicode="&#xff;" horiz-adv-x="1013" d="M10 997h299l203 -706l203 706h299l-314 -997l-127 -403h-278l117 403h-95zM180 1135v241h234v-241h-234zM610 1135v241h234v-241h-234z" />
<glyph unicode="&#x152;" horiz-adv-x="1826" d="M102 418v528q0 174 130 296t399 122h1093v-272h-550v-250h507v-273h-507v-297h550v-272h-1093q-268 0 -398.5 122t-130.5 296zM410 444q0 -172 221 -172h235v820h-235q-221 0 -221 -172v-476z" />
<glyph unicode="&#x153;" horiz-adv-x="1601" d="M82 383v231q0 176 103.5 290t346.5 114q170 0 297 -82q119 82 287 82q403 0 404 -414v-209h-537v-28q0 -84 39 -115t141 -31q166 0 307 41l39 -223q-164 -59 -374 -59q-193 0 -304 81q-123 -82 -299 -81q-244 0 -347 113.5t-103 289.5zM377 375q0 -147 155 -148 q150 0 156 140v268q-10 135 -156 135q-156 0 -155 -147v-248zM983 616h258v43q0 59 -25.5 93t-97.5 34q-135 0 -135 -127v-43z" />
<glyph unicode="&#x178;" horiz-adv-x="1155" d="M0 1364h322l256 -633l256 633h321l-424 -971v-393h-307v393zM254 1489v223h233v-223h-233zM668 1489v223h233v-223h-233z" />
<glyph unicode="&#x2c6;" horiz-adv-x="770" d="M92 1208q156 121 293 240q137 -119 293 -240l-90 -121q-119 72 -203 134q-84 -61 -203 -134z" />
<glyph unicode="&#x2dc;" horiz-adv-x="854" d="M92 1206q90 178 215 178q70 0 133 -43q72 -47 105 -47q59 0 78 84l139 -63q-55 -197 -217 -197q-76 0 -137 43q-61 45 -95 45q-10 0 -19 -3t-17.5 -10t-14.5 -11t-15 -17l-13 -16l-13 -19q-10 -14 -10 -16z" />
<glyph unicode="&#x2000;" horiz-adv-x="897" />
<glyph unicode="&#x2001;" horiz-adv-x="1794" />
<glyph unicode="&#x2002;" horiz-adv-x="897" />
<glyph unicode="&#x2003;" horiz-adv-x="1794" />
<glyph unicode="&#x2004;" horiz-adv-x="598" />
<glyph unicode="&#x2005;" horiz-adv-x="448" />
<glyph unicode="&#x2006;" horiz-adv-x="299" />
<glyph unicode="&#x2007;" horiz-adv-x="299" />
<glyph unicode="&#x2008;" horiz-adv-x="223" />
<glyph unicode="&#x2009;" horiz-adv-x="358" />
<glyph unicode="&#x200a;" horiz-adv-x="98" />
<glyph unicode="&#x2010;" horiz-adv-x="692" d="M82 451v245h528v-245h-528z" />
<glyph unicode="&#x2011;" horiz-adv-x="692" d="M82 451v245h528v-245h-528z" />
<glyph unicode="&#x2013;" horiz-adv-x="978" d="M102 451v245h775v-245h-775z" />
<glyph unicode="&#x2014;" horiz-adv-x="1286" d="M102 451v245h1082v-245h-1082z" />
<glyph unicode="&#x2018;" horiz-adv-x="548" d="M133 801v360l180 285l133 -76l-116 -229h98v-340h-295z" />
<glyph unicode="&#x2019;" horiz-adv-x="528" d="M102 836l117 229h-98v340h295v-361l-180 -284z" />
<glyph unicode="&#x201a;" horiz-adv-x="559" d="M113 -229l116 229h-98v340h295v-360l-180 -285z" />
<glyph unicode="&#x201c;" horiz-adv-x="989" d="M133 801v360l180 285l133 -76l-116 -229h98v-340h-295zM573 801v360l181 285l133 -76l-117 -229h98v-340h-295z" />
<glyph unicode="&#x201d;" horiz-adv-x="989" d="M102 836l117 229h-98v340h295v-361l-180 -284zM543 836l116 229h-98v340h295v-361l-180 -284z" />
<glyph unicode="&#x201e;" horiz-adv-x="999" d="M113 -229l116 229h-98v340h295v-360l-180 -285zM553 -229l117 229h-99v340h295v-360l-180 -285z" />
<glyph unicode="&#x2022;" horiz-adv-x="712" d="M82 661.5q0 112.5 80 193.5t194.5 81t194.5 -81t80 -193.5t-80 -193.5t-194.5 -81t-194.5 81t-80 193.5z" />
<glyph unicode="&#x2026;" horiz-adv-x="1683" d="M133 0v340h295v-340h-295zM694 0v340h295v-340h-295zM1255 0v340h295v-340h-295z" />
<glyph unicode="&#x202f;" horiz-adv-x="358" />
<glyph unicode="&#x2039;" horiz-adv-x="702" d="M92 500l260 395l197 -117l-182 -278l182 -279l-197 -117z" />
<glyph unicode="&#x203a;" horiz-adv-x="702" d="M154 221l182 279l-182 278l196 117l260 -395l-260 -396z" />
<glyph unicode="&#x205f;" horiz-adv-x="448" />
<glyph unicode="&#x20ac;" horiz-adv-x="1083" d="M31 438v156h162v135h-162v156h162v41q0 197 123.5 307t373.5 110q188 0 322 -34l-37 -269q-143 25 -285 25q-186 0 -190 -180h358v-156h-358v-135h358v-156h-358q4 -180 190 -180q141 0 285 25l37 -269q-147 -35 -322 -34q-250 0 -373.5 110.5t-123.5 306.5v41h-162z" />
<glyph unicode="&#x2122;" horiz-adv-x="925" d="M61 1274v90h320v-90h-111v-328h-100v328h-109zM432 946l17 418h98l96 -252l94 252h101l16 -418h-96l-4 223l-66 -170h-92l-66 168l-4 -221h-94z" />
</font>
</defs>
</svg>
