<?xml version="1.0" standalone="no"?>
<!DOCTYPE svg PUBLIC "-//W3C//DTD SVG 1.1//EN" "http://www.w3.org/Graphics/SVG/1.1/DTD/svg11.dtd" >
<svg xmlns="http://www.w3.org/2000/svg">
<metadata>
This is a custom SVG webfont generated by Font Squirrel.
Copyright   : Copyright 2004 Process Type Foundry All rights reserved
Foundry     : Process Type Foundry
</metadata>
<defs>
<font id="webfontPhNFtUba" horiz-adv-x="1085" >
<font-face units-per-em="2048" ascent="1638" descent="-410" />
<missing-glyph horiz-adv-x="440" />
<glyph unicode=" "  horiz-adv-x="440" />
<glyph unicode="&#x09;" horiz-adv-x="440" />
<glyph unicode="&#xa0;" horiz-adv-x="440" />
<glyph unicode="!" horiz-adv-x="540" d="M88 0l39 225h174l-39 -225h-174zM199 389l24 352l117 664h168l-117 -662l-96 -354h-96z" />
<glyph unicode="&#x22;" horiz-adv-x="743" d="M195 903l88 502h129l-88 -502h-129zM526 903l88 502h129l-88 -502h-129z" />
<glyph unicode="#" horiz-adv-x="1439" d="M121 354l29 125h239l84 387h-240l27 125h242l73 332h134l-74 -332h373l73 332h133l-71 -332h235l-28 -125h-236l-84 -387h238l-29 -125h-238l-75 -354h-135l75 354h-370l-76 -354h-135l75 354h-239zM524 479h371l84 387h-371z" />
<glyph unicode="$" horiz-adv-x="1032" d="M59 53l41 135q162 -61 316 -61q147 0 192 39t68 170q14 86 14 110q0 63 -41 93t-160 63q-152 43 -208 98.5t-56 145.5q0 47 19 158q35 199 106.5 264t274.5 73l39 213h145l-39 -215q106 -8 213 -36l-31 -144q-160 37 -284 37q-49 0 -83 -3t-60.5 -7t-43.5 -19l-27 -23 q-11 -9 -19.5 -38t-12.5 -47.5t-12 -61.5q-16 -102 -17 -118q0 -55 38 -81t161 -65q154 -47 211 -101t57 -151q0 -53 -16 -145q-33 -188 -100.5 -264t-256.5 -88l-38 -215h-146l37 213q-144 8 -281 71z" />
<glyph unicode="%" horiz-adv-x="1722" d="M139 850q0 35 6 68l37 208q25 137 98.5 197.5t243.5 60.5q129 0 196.5 -57t67.5 -156q0 -18 -6 -55l-39 -223q-23 -125 -98.5 -188.5t-245.5 -63.5q-260 0 -260 209zM274 862q0 -51 33 -76.5t111 -25.5q98 0 139 37t55 121l35 198q4 20 4 43q0 53 -32.5 80t-110.5 27 q-92 0 -134 -33t-59 -117l-36 -209q-5 -29 -5 -45zM455 35l725 1349l106 -55l-725 -1349zM950 188q0 33 6 68l37 209q25 137 98.5 197.5t243.5 60.5q129 0 196.5 -57.5t67.5 -155.5q0 -18 -6 -55l-39 -224q-23 -125 -98.5 -188t-245.5 -63q-260 -1 -260 208zM1085 201 q0 -51 33 -77t111 -26q98 0 139 37t55 121l35 199q4 20 4 43q0 53 -32.5 79.5t-110.5 26.5q-92 0 -134 -32.5t-59 -116.5l-36 -209q-5 -29 -5 -45z" />
<glyph unicode="&#x26;" horiz-adv-x="1472" d="M86 223q0 31 8 80l64 359q63 356 428 356q143 0 231 -63.5t88 -174.5q0 -137 -117 -213h263q137 0 218 23.5t171 85.5l61 -105q-156 -135 -420 -137q-109 -217 -265.5 -335.5t-407.5 -118.5q-322 -1 -322 243zM252 233q0 -66 40 -89t130 -23q172 0 286.5 76.5 t204.5 236.5h-319l-33 133q88 23 137.5 77t49.5 118q0 117 -173 117q-213 0 -249 -205l-68 -383q-6 -33 -6 -58z" />
<glyph unicode="'" horiz-adv-x="411" d="M195 903l88 502h129l-88 -502h-129z" />
<glyph unicode="(" horiz-adv-x="620" d="M141 362q0 702 510 1199l105 -97q-236 -260 -342.5 -517t-106.5 -580q0 -317 150 -611l-138 -71q-178 319 -178 677z" />
<glyph unicode=")" horiz-adv-x="620" d="M-106 -219q238 256 343 513t105 585q0 317 -149 610l137 72q178 -319 178 -678q0 -702 -510 -1198z" />
<glyph unicode="*" horiz-adv-x="962" d="M205 1034l16 88h297l-119 258l86 45l121 -258l207 260l72 -57l-205 -248h299l-14 -88h-299l122 -256l-88 -43l-122 262l-213 -264l-74 60l201 241h-287z" />
<glyph unicode="+" horiz-adv-x="1073" d="M123 428v139h342v348h145v-348h340v-139h-340v-348h-145v348h-342z" />
<glyph unicode="," horiz-adv-x="522" d="M31 -203l123 203h-66l39 225h174l-41 -233l-166 -240z" />
<glyph unicode="-" horiz-adv-x="757" d="M152 506l22 141h488l-25 -141h-485z" />
<glyph unicode="." horiz-adv-x="524" d="M106 0l39 225h174l-38 -225h-175z" />
<glyph unicode="/" horiz-adv-x="894" d="M-23 -240l791 1624h158l-793 -1624h-156z" />
<glyph unicode="0" horiz-adv-x="1128" d="M104 258q0 45 7 78l116 663q33 190 140.5 267t339.5 77q170 0 267 -80.5t97 -218.5q0 -33 -6 -69l-113 -639q-33 -188 -134 -272t-351 -84q-363 -1 -363 278zM272 268q0 -74 49.5 -107.5t172.5 -33.5q145 0 207.5 50t84.5 173l109 615q8 49 8 69q0 82 -52 122t-171 40 q-141 0 -203.5 -50t-85.5 -171l-112 -637q-7 -35 -7 -70z" />
<glyph unicode="1" horiz-adv-x="710" d="M115 1116l397 207h156l-234 -1323h-168l201 1139l-291 -154z" />
<glyph unicode="2" horiz-adv-x="995" d="M31 0l14 147l422 424l170 178q41 44 79 100t46 105l8 45q8 47 8 78q0 63 -46 90t-171 27q-147 0 -325 -47l-19 137q197 59 383 59q348 0 348 -258q0 -23 -8 -75l-10 -56q-20 -115 -68.5 -183.5t-234.5 -258.5l-357 -365h527l-25 -147h-741z" />
<glyph unicode="3" horiz-adv-x="985" d="M25 43l38 133q154 -51 312 -51q152 0 205 40t71 148l17 93q33 186 -185 186h-270l25 145h274q186 0 213 158l25 141q16 90 -31 127t-174 37q-152 0 -285 -26l-14 135q145 35 329 34q199 0 284 -83.5t59 -225.5l-23 -129q-16 -100 -58 -152.5t-143 -88.5q82 -16 119 -92 t21 -175l-17 -94q-20 -117 -56 -181.5t-129 -103t-259 -38.5q-192 0 -348 63z" />
<glyph unicode="4" horiz-adv-x="1087" d="M27 336l14 162l711 825h231l-149 -848h192l-27 -139h-188l-59 -336h-166l59 336h-618zM207 475h461l120 682z" />
<glyph unicode="5" horiz-adv-x="991" d="M31 37l35 137q180 -47 321 -47q147 0 202.5 44t76.5 157l14 80q6 31 6 57q0 70 -45 98.5t-172 36.5q-193 10 -293 14l125 709h690l-24 -147h-525l-73 -424q102 -6 211 -15q279 -25 278 -239q0 -33 -8 -78l-14 -82q-18 -100 -42 -160.5t-75 -109t-135 -68.5t-213 -20 q-176 0 -340 57z" />
<glyph unicode="6" horiz-adv-x="1044" d="M102 240q0 53 9 96l96 551q45 260 163.5 358t399.5 98q137 0 248 -34l-31 -135q-100 25 -205 24q-152 0 -232.5 -31.5t-116.5 -94t-58 -187.5l-31 -176q135 47 279 47q162 0 232.5 -58.5t70.5 -173.5q0 -51 -8 -94l-19 -106q-31 -176 -125 -260t-328 -84q-344 0 -344 260 zM270 262q0 -72 46 -103.5t157 -31.5q125 0 181.5 41t74.5 147l23 125q8 53 8 68q0 57 -38 79.5t-138 22.5q-135 0 -267 -53l-41 -229q-6 -37 -6 -66z" />
<glyph unicode="7" horiz-adv-x="894" d="M51 0l740 1178h-629l24 145h807l-24 -141l-740 -1182h-178z" />
<glyph unicode="8" horiz-adv-x="1112" d="M94 225q0 25 8 78l13 68q20 119 93 188.5t224 118.5q-178 111 -178 256q0 25 4 53l6 37q31 172 128 245.5t313 73.5q158 0 247.5 -68.5t89.5 -182.5q0 -23 -6 -58l-10 -59q-39 -223 -278 -301q111 -51 162 -110.5t51 -143.5q0 -27 -7 -60l-12 -67q-20 -119 -66.5 -183.5 t-143.5 -97t-265 -32.5q-373 -1 -373 245zM260 244q0 -68 51 -94.5t181 -26.5q143 0 205.5 38t80.5 142l10 57q6 31 7 54q0 59 -43 93t-179 93q-166 -61 -224 -107.5t-73 -130.5l-10 -59q-6 -32 -6 -59zM416 938q0 -59 44 -104.5t140 -92.5q125 51 186.5 100.5t73.5 123.5 l12 67q4 29 5 41q0 127 -197 127q-121 0 -178.5 -42t-71.5 -124l-10 -59q-4 -25 -4 -37z" />
<glyph unicode="9" horiz-adv-x="1044" d="M76 14l30 136q100 -25 205 -25q156 0 238 31.5t114.5 93t55.5 188.5l31 176q-135 -47 -279 -47q-162 0 -232.5 58.5t-70.5 173.5q0 51 8 94l19 106q16 90 40.5 148.5t73.5 105.5t132 68.5t206 21.5q174 0 259 -68.5t85 -191.5q0 -53 -8 -96l-96 -551q-45 -262 -160 -359 t-403 -97q-137 -1 -248 34zM334 815q0 -59 38 -80.5t138 -21.5q135 0 266 53l41 229q6 37 6 66q0 72 -46 103.5t-156 31.5q-125 0 -181.5 -41t-74.5 -147l-23 -125q-8 -54 -8 -68z" />
<glyph unicode=":" horiz-adv-x="532" d="M92 0l39 225h174l-39 -225h-174zM207 639l39 225h174l-39 -225h-174z" />
<glyph unicode=";" horiz-adv-x="532" d="M35 -203l123 203h-66l39 225h174l-41 -233l-166 -240zM205 639l39 225h174l-39 -225h-174z" />
<glyph unicode="&#x3c;" horiz-adv-x="1134" d="M102 446v107l842 465l60 -111l-750 -407l752 -410l-60 -110z" />
<glyph unicode="=" horiz-adv-x="987" d="M133 254v121h752v-121h-752zM133 625v120h752v-120h-752z" />
<glyph unicode="&#x3e;" horiz-adv-x="1134" d="M139 90l752 410l-750 407l60 111l841 -465v-107l-843 -466z" />
<glyph unicode="?" horiz-adv-x="972" d="M225 0l39 225h174l-39 -225h-174zM264 1389q158 37 326 36q182 0 264 -59t82 -184q0 -53 -14 -140q-16 -90 -26.5 -132t-30 -89t-56.5 -80.5t-87 -71.5t-140 -96l-174 -112l-78 123l250 168q96 66 123.5 112.5t50.5 169.5q14 80 14 121q0 72 -43 96.5t-170 24.5 q-119 0 -274 -33z" />
<glyph unicode="@" horiz-adv-x="1521" d="M139 543q0 387 207 614t582 227q266 0 406.5 -129t140.5 -331q0 -227 -105.5 -367.5t-306.5 -140.5q-100 0 -145 57q-92 -57 -222 -57q-88 0 -121.5 53t-17.5 135l39 221q16 94 70.5 136.5t167.5 42.5q131 0 245 -60l-73 -424q25 -4 53 -4q152 0 222.5 110.5t70.5 287 t-112 267.5t-320 91q-309 0 -481.5 -192.5t-172.5 -530.5q0 -217 125 -336t381 -119q213 0 420 90l25 -106q-193 -98 -453 -98q-303 0 -464 152.5t-161 410.5zM670 604q-8 -47 4 -66.5t65 -19.5q80 0 162 51l55 316q-68 18 -137 18q-55 0 -79.5 -20.5t-32.5 -69.5z" />
<glyph unicode="A" horiz-adv-x="1271" d="M-16 0l686 1364h245l213 -1364h-176l-49 332h-569l-170 -332h-180zM403 479h478l-105 766z" />
<glyph unicode="B" horiz-adv-x="1187" d="M82 0l242 1364h526q283 0 283 -213q0 -25 -7 -59l-30 -172q-16 -90 -56.5 -139.5t-132.5 -80.5q78 -10 118 -64t40 -134q0 -27 -6 -60l-29 -161q-25 -145 -114 -213t-273 -68h-561zM281 145h370q100 0 148.5 38t62.5 120l27 150q4 25 4 41q0 129 -170 129h-358zM389 766 h328q96 0 145 38t64 126l26 151q4 29 4 39q0 98 -133 99h-354z" />
<glyph unicode="C" horiz-adv-x="1056" d="M111 295q0 39 10 100l104 592q39 213 160 305t369 92q184 0 340 -43l-35 -147q-170 37 -320 37q-168 0 -243.5 -57.5t-102.5 -208.5l-100 -572q-8 -43 -8 -86q0 -94 59 -134t203 -40q152 0 325 33l7 -148q-184 -39 -367 -38q-401 0 -401 315z" />
<glyph unicode="D" horiz-adv-x="1214" d="M82 0l240 1364h458q201 0 293 -85t92 -230q0 -51 -8 -95l-104 -594q-23 -129 -71 -203.5t-147.5 -115.5t-265.5 -41h-487zM281 154h288q162 0 227.5 52t90.5 187l98 559q8 53 8 84q0 86 -54 130t-181 44h-291z" />
<glyph unicode="E" horiz-adv-x="1093" d="M82 0l240 1364h794l-29 -154h-618l-76 -436h574l-27 -151h-575l-84 -469h622l-26 -154h-795z" />
<glyph unicode="F" horiz-adv-x="1052" d="M82 0l240 1364h800l-26 -154h-629l-82 -462h584l-27 -152h-584l-104 -596h-172z" />
<glyph unicode="G" horiz-adv-x="1191" d="M111 289q0 49 8 96l106 602q37 209 153 303t378 94q207 0 381 -53l-33 -145q-193 43 -369 43q-170 0 -242.5 -57.5t-99.5 -204.5l-98 -561q-10 -53 -10 -103q0 -88 55 -129t195 -41q129 0 272 31l82 454h166l-99 -567q-201 -72 -448 -71q-397 0 -397 309z" />
<glyph unicode="H" horiz-adv-x="1286" d="M82 0l240 1364h172l-105 -592h594l104 592h173l-240 -1364h-172l108 621h-594l-108 -621h-172z" />
<glyph unicode="I" horiz-adv-x="540" d="M92 0l240 1364h172l-240 -1364h-172z" />
<glyph unicode="J" horiz-adv-x="520" d="M-162 -281q156 119 194 163t50 116l240 1366h172l-246 -1397q-18 -100 -69.5 -157.5t-250.5 -215.5z" />
<glyph unicode="K" horiz-adv-x="1181" d="M82 0l240 1364h172l-240 -1364h-172zM422 694l588 670h217l-615 -674l408 -690h-191z" />
<glyph unicode="L" horiz-adv-x="1021" d="M82 0l242 1364h172l-215 -1210h593l-26 -154h-766z" />
<glyph unicode="M" horiz-adv-x="1638" d="M66 0l292 1364h209l211 -1061l578 1061h221l-188 -1364h-170l157 1100l-504 -924h-231l-176 924l-227 -1100h-172z" />
<glyph unicode="N" horiz-adv-x="1345" d="M82 0l240 1364h229l393 -1180l207 1180h168l-240 -1364h-233l-391 1163l-205 -1163h-168z" />
<glyph unicode="O" horiz-adv-x="1267" d="M115 317q0 45 8 89l98 559q39 219 167 319t390 100q203 0 316.5 -98t113.5 -256q0 -31 -8 -76l-100 -571q-35 -197 -163 -300t-398 -103q-215 0 -319.5 90.5t-104.5 246.5zM287 328q0 -96 63.5 -146.5t214.5 -50.5q172 0 257 66.5t110 199.5l98 559q8 49 8 74 q0 203 -278 203q-172 0 -257 -64.5t-112 -212.5l-96 -548q-8 -47 -8 -80z" />
<glyph unicode="P" horiz-adv-x="1142" d="M82 0l240 1364h479q352 0 352 -266q0 -39 -8 -86l-33 -189q-29 -174 -128 -254t-333 -80h-311l-86 -489h-172zM367 641h317q129 0 184.5 44t73.5 151l33 186q6 35 6 59q0 70 -45 99.5t-150 29.5h-319z" />
<glyph unicode="Q" horiz-adv-x="1267" d="M115 317q0 45 8 89l98 559q39 219 167 319t390 100q203 0 316.5 -98t113.5 -256q0 -31 -8 -76l-100 -571q-35 -197 -163 -300t-398 -103q-215 0 -319.5 90.5t-104.5 246.5zM287 328q0 -96 63.5 -146.5t214.5 -50.5q172 0 257 66.5t110 199.5l98 559q8 49 8 74 q0 203 -278 203q-172 0 -257 -64.5t-112 -212.5l-96 -548q-8 -47 -8 -80zM305 -281l25 134q283 -12 547 -70l-31 -135q-273 59 -541 71z" />
<glyph unicode="R" horiz-adv-x="1284" d="M82 0l242 1364h487q360 0 360 -268q0 -39 -6 -74l-35 -197q-23 -131 -80 -201.5t-190 -105.5l266 -518h-188l-254 496h-342l-88 -496h-172zM369 647h331q127 0 184.5 42t76.5 149l32 184q6 35 6 57q0 72 -47 101.5t-153 29.5h-332z" />
<glyph unicode="S" horiz-adv-x="1093" d="M47 55l39 138q207 -63 369 -64q160 0 221 48t84 175q14 78 14 107q0 61 -48 90t-204 69q-174 45 -241.5 107.5t-67.5 173.5q0 47 14 137q37 205 138.5 276.5t347.5 71.5q184 0 358 -47l-31 -145q-176 41 -338 41q-170 0 -225 -38t-78 -163q-14 -82 -14 -112q0 -61 46 -92 t194 -70q186 -49 254.5 -107.5t68.5 -161.5q0 -53 -16 -139q-18 -100 -44 -163.5t-79 -113.5t-143.5 -71.5t-227.5 -21.5q-207 -1 -391 75z" />
<glyph unicode="T" horiz-adv-x="1075" d="M168 1210l27 154h983l-27 -154h-406l-213 -1210h-172l211 1210h-403z" />
<glyph unicode="U" horiz-adv-x="1292" d="M133 313q0 39 8 82l170 969h172l-170 -969q-6 -37 -6 -76q0 -96 63.5 -142t207.5 -46q166 0 248.5 68.5t107.5 206.5l170 958h172l-172 -979q-35 -195 -159 -300t-390 -105q-209 0 -315.5 90.5t-106.5 242.5z" />
<glyph unicode="V" horiz-adv-x="1204" d="M195 1364h165l172 -1214l578 1214h180l-655 -1364h-242z" />
<glyph unicode="W" horiz-adv-x="1855" d="M188 1364h162l103 -1208l493 1208h232l94 -1208l491 1208h174l-565 -1364h-250l-86 1223l-485 -1223h-238z" />
<glyph unicode="X" horiz-adv-x="1208" d="M-20 0l561 698l-305 666h180l246 -541l425 541h203l-555 -684l318 -680h-183l-254 545l-440 -545h-196z" />
<glyph unicode="Y" horiz-adv-x="1095" d="M158 1364h166l231 -770l485 770h195l-625 -958l-71 -406h-172l73 420z" />
<glyph unicode="Z" horiz-adv-x="1167" d="M96 150l836 1062h-676l27 152h843v-150l-835 -1064h684l-25 -150h-850z" />
<glyph unicode="[" horiz-adv-x="628" d="M57 -258l332 1876h391l-24 -143h-228l-278 -1590h223l-24 -143h-392z" />
<glyph unicode="\" horiz-adv-x="880" d="M272 1384h144l219 -1624h-143z" />
<glyph unicode="]" horiz-adv-x="624" d="M-98 -258l24 143h228l278 1590h-223l24 143h392l-332 -1876h-391z" />
<glyph unicode="^" horiz-adv-x="942" d="M143 850l387 555h148l219 -584l-133 -47l-174 492l-338 -496z" />
<glyph unicode="_" horiz-adv-x="878" d="M-2 -20h883v-66h-883v66z" />
<glyph unicode="`" horiz-adv-x="622" d="M256 1305l88 104q92 -90 227 -184l-75 -99q-136 85 -240 179z" />
<glyph unicode="a" horiz-adv-x="1050" d="M78 178q0 25 8 78l70 395q35 195 129 281t319 86q178 0 359 -68l-168 -950h-140l7 121q-160 -141 -373 -141q-211 -1 -211 198zM248 199q0 -74 82 -74q160 0 350 174l96 549q-92 25 -192 24q-121 0 -180.5 -51t-84.5 -192l-63 -361q-8 -49 -8 -69z" />
<glyph unicode="b" horiz-adv-x="1048" d="M80 43l239 1362l173 25l-97 -545q166 133 367 133q211 0 211 -199q0 -25 -8 -78l-70 -391q-35 -193 -133 -281.5t-324 -88.5q-178 0 -358 63zM266 152q98 -27 201 -27q127 0 182.5 51t81.5 197l64 360q8 49 8 66q0 74 -82 73q-78 0 -175 -46t-181 -115z" />
<glyph unicode="c" horiz-adv-x="833" d="M72 203q0 31 8 78l65 370q37 205 133.5 286t296.5 81q129 0 242 -45l-37 -135q-109 35 -213 34q-123 0 -177 -51t-81 -192l-65 -373q-4 -29 -4 -43q0 -47 27.5 -67.5t90.5 -20.5q135 0 310 68l22 -138q-168 -76 -350 -75q-268 0 -268 223z" />
<glyph unicode="d" horiz-adv-x="1058" d="M80 178q0 41 6 78l70 393q35 197 128 283t318 86q96 0 207 -27l74 414l172 25l-252 -1430h-148l11 121q-166 -141 -377 -141q-209 -1 -209 198zM250 201q0 -39 17.5 -57.5t62.5 -18.5q154 0 356 166l98 557q-92 25 -200 24q-133 0 -185.5 -49t-79.5 -196l-63 -363 q-6 -36 -6 -63z" />
<glyph unicode="e" horiz-adv-x="927" d="M86 211q0 45 8 92l60 336q35 197 135 288t305 91q129 0 207 -58.5t78 -166.5q0 -127 -76 -202t-283 -145q-59 -20 -246 -77l-18 -103q-4 -23 -4 -45q0 -51 30.5 -75.5t106.5 -24.5q150 0 365 104l37 -125q-221 -121 -424 -120q-281 0 -281 231zM301 524l184 56 q236 70 236 194q0 49 -36 78t-103 29q-117 0 -176.5 -49.5t-79.5 -169.5z" />
<glyph unicode="f" horiz-adv-x="720" d="M-18 -319q66 61 96.5 118.5t46.5 155.5l160 901h-174l24 141h174l31 174q25 143 97.5 209t213.5 66q109 0 213 -41l-35 -129q-90 29 -167 29q-74 0 -108 -30t-46 -104l-31 -174h291l-37 -141h-278l-166 -940q-20 -115 -64.5 -186.5t-138.5 -153.5z" />
<glyph unicode="g" horiz-adv-x="1058" d="M16 -340l35 127q201 -72 381 -72q92 0 128 32t50 114l52 289q-162 -129 -367 -130q-211 0 -211 199q0 25 8 78l64 350q35 193 133 282t323 89q186 0 357 -72l-193 -1098q-27 -156 -102.5 -214t-247.5 -58q-209 0 -410 84zM254 240q0 -74 82 -74q78 0 175 46t181 116 l92 518q-98 27 -200 26q-127 0 -182.5 -51t-82.5 -196l-57 -320q-8 -49 -8 -65z" />
<glyph unicode="h" d="M72 0l247 1405l173 25l-97 -553q82 53 204 97t204 44q178 0 178 -176q0 -43 -8 -86l-133 -756h-168l135 768q4 20 4 35q0 55 -70 55q-135 0 -376 -149l-125 -709h-168z" />
<glyph unicode="i" horiz-adv-x="495" d="M72 0l174 985l172 25l-178 -1010h-168zM274 1151l45 254l173 25l-46 -256z" />
<glyph unicode="j" horiz-adv-x="485" d="M-160 -305q139 104 175 147t51 119l180 1024l172 25l-191 -1078q-16 -96 -63 -154.5t-238 -201.5zM274 1151l45 254l173 25l-46 -256z" />
<glyph unicode="k" horiz-adv-x="974" d="M72 0l247 1405l173 25l-252 -1430h-168zM383 504l424 510l162 -41l-406 -471l266 -502h-184z" />
<glyph unicode="l" horiz-adv-x="495" d="M72 0l247 1405l173 25l-252 -1430h-168z" />
<glyph unicode="m" horiz-adv-x="1683" d="M72 0l174 985l147 25l-12 -142q78 55 207 102.5t215 47.5q164 0 176 -150q84 59 210 104.5t212 45.5q178 0 178 -176q0 -43 -8 -86l-133 -756h-168l135 768q4 25 4 35q0 55 -69.5 55t-177 -45t-197.5 -104l-125 -709h-168l135 768q4 25 4 35q0 55 -70 55 q-135 0 -376 -149l-125 -709h-168z" />
<glyph unicode="n" d="M72 0l174 985l147 25l-12 -142q78 55 207 102.5t215 47.5q178 0 178 -176q0 -43 -8 -86l-133 -756h-168l135 768q4 25 4 35q0 55 -70 55q-135 0 -376 -149l-125 -709h-168z" />
<glyph unicode="o" horiz-adv-x="1036" d="M84 358l51 291q33 186 145.5 277.5t323.5 91.5q166 0 257 -82t91 -215q0 -37 -6 -70l-55 -313q-31 -178 -138.5 -268t-328.5 -90q-205 0 -288 104q-61 76 -60 187q0 41 8 87zM252 350q-6 -34 -6 -63q0 -66 29 -106q42 -56 174 -56q127 0 191.5 54t84.5 169l53 303 q6 33 6 60q0 162 -204 161q-236 0 -277 -233z" />
<glyph unicode="p" horiz-adv-x="1048" d="M-4 -428l252 1425h147l-10 -120q162 141 377 141q209 0 209 -199q0 -41 -6 -78l-70 -393q-35 -197 -128 -282.5t-318 -85.5q-96 0 -207 26l-74 -409zM266 150q92 -25 201 -25q133 0 185.5 49t78.5 197l64 362q6 37 6 64q0 39 -17.5 57t-62.5 18q-154 0 -359 -176z" />
<glyph unicode="q" horiz-adv-x="1058" d="M78 178q0 25 8 78l70 391q35 193 133 282t323 89q186 0 357 -72l-238 -1349l-172 -25l96 541q-166 -133 -366 -133q-211 -1 -211 198zM248 199q0 -74 82 -74q78 0 175 46t181 116l98 559q-98 27 -200 26q-127 0 -182.5 -51t-82.5 -196l-63 -361q-8 -49 -8 -65z" />
<glyph unicode="r" horiz-adv-x="643" d="M72 0l174 985l149 25l-18 -164q127 104 285 172l6 -154q-152 -82 -312 -200l-116 -664h-168z" />
<glyph unicode="s" horiz-adv-x="841" d="M39 35l35 131q135 -45 266 -45q109 0 143.5 25.5t48.5 109.5q3 16 3 30q0 43 -23 70q-31 37 -147 90q-147 68 -192 142q-30 50 -30 120q0 32 7 68q23 133 97.5 187.5t258.5 54.5q150 0 282 -43l-28 -133q-133 35 -258 35q-106 0 -140 -23t-49 -98q-4 -22 -4 -40 q0 -38 18 -59q26 -31 126 -84q176 -94 221 -153q31 -41 31 -108q0 -30 -7 -66q-29 -150 -100.5 -208t-265.5 -58q-166 0 -293 55z" />
<glyph unicode="t" horiz-adv-x="743" d="M104 858l25 139h176l43 246l172 23l-47 -269h275l-29 -139h-270l-119 -672q-2 -12 -2 -22q0 -43 57 -43q86 0 184 43l39 -117q-135 -68 -270 -67q-88 0 -134 44t-46 115q0 23 4 45l119 674h-177z" />
<glyph unicode="u" d="M96 156q0 43 8 86l132 743l172 25l-138 -781q-4 -25 -4 -34q0 -55 70 -56q135 0 377 150l121 696l174 25l-179 -1010h-143l10 129q-78 -55 -207 -102t-215 -47q-178 0 -178 176z" />
<glyph unicode="v" horiz-adv-x="888" d="M111 983l161 23l127 -873l283 590q37 76 37 151q0 55 -17 111l162 25q16 -70 17 -131q0 -104 -35 -174l-346 -705h-234z" />
<glyph unicode="w" horiz-adv-x="1402" d="M127 981l154 25q74 -363 74 -786q0 -42 -1 -85l346 658l-36 182l147 29l166 -867q49 129 194 539q27 78 27 172q0 74 -16 133l153 29q16 -106 17 -158q0 -121 -41 -236l-234 -616h-225l-113 584l-309 -584h-217q0 668 -86 981z" />
<glyph unicode="x" horiz-adv-x="942" d="M-35 0l414 502l-227 483l157 25l183 -396l294 383h195l-418 -514l234 -483h-174l-172 354l-297 -354h-189z" />
<glyph unicode="y" horiz-adv-x="888" d="M-20 -297q121 43 199.5 109.5t146.5 187.5h-60l-155 983l161 23l127 -873l283 590q37 76 37 151q0 55 -17 111l162 25q16 -70 17 -131q0 -104 -35 -174l-346 -705q-94 -174 -191.5 -269.5t-283.5 -156.5z" />
<glyph unicode="z" horiz-adv-x="925" d="M61 133l607 729h-494l16 135h674v-133l-606 -729h490l-21 -135h-655z" />
<glyph unicode="{" horiz-adv-x="636" d="M102 596l23 131h49q53 0 73.5 20.5t28.5 65.5l101 571q25 131 82 182.5t200 51.5h132l-27 -145h-125q-43 0 -64.5 -18.5t-29.5 -63.5l-90 -519q0 -2 -4.5 -23.5l-6.5 -30.5t-8 -31.5t-13 -35t-20.5 -29.5t-30 -27.5t-39 -19.5t-50.5 -11q109 -23 108 -134q0 -16 -12 -90 l-90 -510q-2 -12 -2 -26q0 -29 15 -39t52 -10h125l-26 -146h-131q-203 0 -203 168q0 45 8 88l96 545q4 25 4 29q0 57 -75 57h-50z" />
<glyph unicode="|" horiz-adv-x="522" d="M236 -430v2048h112v-2048h-112z" />
<glyph unicode="}" horiz-adv-x="638" d="M-102 -291l26 146h125q43 0 64.5 18t29.5 64l90 518q0 2 4.5 23.5l6.5 30.5t8 31.5t13 35t20.5 30t30 27.5t39 19.5t51.5 11.5q-109 23 -109 133q0 16 12 90l90 510q2 12 2 26q0 29 -15 39.5t-52 10.5h-125l27 145h131q203 0 202 -168q0 -45 -8 -88l-96 -545 q-4 -25 -4 -29q0 -57 76 -57h49l-23 -131h-49q-53 0 -73.5 -20.5t-28.5 -65.5l-101 -571q-25 -131 -82 -182.5t-200 -51.5h-131z" />
<glyph unicode="~" horiz-adv-x="1036" d="M84 469q66 127 123 180t155 53q74 0 183 -88q92 -76 145 -75q18 0 34.5 3t31 14t22.5 16.5t22 27.5l17 30q4 7 21 39l20 40l96 -52q-51 -119 -107 -180t-157 -61q-76 0 -180 76l-37 28l-40 29.5t-34.5 19t-42.5 9.5q-66 0 -94.5 -29t-87.5 -139z" />
<glyph unicode="&#xa1;" horiz-adv-x="542" d="M27 -403l116 661l97 354h96l-25 -352l-116 -663h-168zM229 772l39 225h174l-39 -225h-174z" />
<glyph unicode="&#xa2;" horiz-adv-x="864" d="M104 387q0 31 9 78l65 371q33 184 114 267t240 95l35 188h133l-34 -188q100 -10 184 -41l-37 -135q-109 35 -213 35q-123 0 -177 -51.5t-81 -192.5l-66 -373q-4 -29 -4 -43q0 -47 28 -67.5t91 -20.5q135 0 309 68l23 -137q-113 -51 -242 -70l-35 -190h-133l35 184 q-244 8 -244 223z" />
<glyph unicode="&#xa3;" d="M80 0l24 143q295 174 295 400q0 31 -6 73h-233l16 132h182q-53 129 -53 243q0 178 99.5 265t322.5 87q168 0 317 -47q-6 -23 -15 -67l-13 -66q-123 35 -289 35q-135 0 -195.5 -42t-60.5 -169q0 -113 55 -239h389l-20 -132h-338q6 -37 6 -77q0 -106 -65.5 -214 t-173.5 -184h581l-24 -141h-801z" />
<glyph unicode="&#xa4;" horiz-adv-x="1126" d="M137 276l125 117q-18 43 -18 90q0 31 6 62l51 289q18 96 59 149l-104 129l113 98l112 -141q74 31 195 31q102 0 168 -37l143 135l96 -98l-141 -135q16 -33 16 -86q0 -29 -4 -54l-49 -282q-18 -100 -57 -152l106 -131l-112 -98l-115 139q-70 -29 -197 -29q-96 0 -159 27 l-133 -125zM399 508q0 -51 34 -74.5t122 -23.5q100 0 143 35.5t60 123.5l41 234q6 31 6 53q0 55 -35 81t-119 26q-102 0 -145 -36t-60 -124l-40 -232q-7 -36 -7 -63z" />
<glyph unicode="&#xa5;" horiz-adv-x="1095" d="M68 274l22 111h344l6 35l-61 207h-250l23 114h192l-172 582h166l217 -733l459 733h194l-379 -582h195l-20 -114h-250l-144 -221l-4 -21h357l-21 -111h-356l-47 -274h-172l47 274h-346z" />
<glyph unicode="&#xa6;" horiz-adv-x="522" d="M236 422h112v-852h-112v852zM236 766v852h112v-852h-112z" />
<glyph unicode="&#xa7;" horiz-adv-x="1122" d="M215 877q0 156 18 278q23 125 88.5 177t223.5 52q147 0 297 -57l-31 -119q-164 47 -274 47q-78 0 -110 -24.5t-42 -93.5q-20 -111 -20 -265q0 -367 104 -845l-143 -27q-111 471 -111 877zM295 -324l31 119q164 -47 274 -47q78 0 109.5 24.5t42.5 94.5q20 111 20 264 q0 367 -104 846l143 27q111 -471 111 -877q0 -156 -19 -279q-23 -125 -88 -177t-223 -52q-147 0 -297 57z" />
<glyph unicode="&#xa8;" horiz-adv-x="815" d="M246 1153l30 172l160 6l-30 -172zM614 1153l31 172l160 6l-31 -172z" />
<glyph unicode="&#xa9;" horiz-adv-x="1644" d="M147 682q0 301 191.5 502.5t509 201.5t509 -201.5t191.5 -502.5q0 -299 -191.5 -500.5t-509 -201.5t-509 201.5t-191.5 500.5zM272 682q0 -250 158 -418t418 -168t417.5 167t157.5 419t-157.5 420t-417.5 168t-418 -168t-158 -420zM596 551v264q0 117 58.5 170t201.5 53 q102 0 203 -30l-19 -101q-82 23 -174 23q-90 0 -118.5 -21.5t-28.5 -89.5v-272q0 -68 28.5 -89.5t118.5 -21.5q92 0 174 23l19 -101q-100 -31 -203 -30q-143 0 -201.5 53t-58.5 170z" />
<glyph unicode="&#xaa;" horiz-adv-x="802" d="M231 963l39 221q23 135 84.5 188t202.5 53q109 0 225 -43l-102 -585h-105l7 67q-104 -80 -220 -80q-162 1 -131 179zM348 952q-10 -66 35 -65q100 0 211 96l57 330q-45 10 -104 10q-78 0 -112 -30.5t-48 -118.5z" />
<glyph unicode="&#xab;" horiz-adv-x="983" d="M94 500l322 395l110 -96l-258 -305l148 -322l-133 -66zM498 500l321 395l111 -96l-258 -305l147 -322l-133 -66z" />
<glyph unicode="&#xac;" horiz-adv-x="1124" d="M123 475v137h827v-491h-145v354h-682z" />
<glyph unicode="&#xad;" horiz-adv-x="757" d="M152 506l22 141h488l-25 -141h-485z" />
<glyph unicode="&#xae;" horiz-adv-x="958" d="M215 1054.5q0 157.5 100.5 264t266.5 106.5t266 -106.5t100 -264t-100 -264t-266 -106.5t-266.5 106.5t-100.5 264zM297 1055q0 -127 74.5 -210t210.5 -83q137 0 211.5 83t74.5 210t-74.5 210t-211.5 83q-135 0 -210 -83t-75 -210zM469 895v336h133q102 0 103 -90v-39 q0 -63 -50 -84l88 -123h-63l-84 113h-72v-113h-55zM524 1057h76q51 0 51 41v41q0 43 -51 43h-76v-125z" />
<glyph unicode="&#xaf;" horiz-adv-x="776" d="M256 1159l20 121h490l-21 -121h-489z" />
<glyph unicode="&#xb0;" horiz-adv-x="706" d="M225 1065q0 121 73 199.5t202 78.5q92 0 144 -52t52 -134q0 -121 -71.5 -199.5t-202.5 -78.5q-92 0 -144.5 52t-52.5 134zM322 1077q0 -115 114 -114q80 0 122 53t42 129q0 51 -28.5 83t-84.5 32q-76 0 -120.5 -52.5t-44.5 -130.5z" />
<glyph unicode="&#xb1;" horiz-adv-x="1087" d="M129 0v135h827v-135h-827zM129 616v140h342v348h145v-348h340v-140h-340v-346h-145v346h-342z" />
<glyph unicode="&#xb2;" horiz-adv-x="788" d="M141 498l11 106l243 242q125 125 154 161.5t37 82.5l6 34q10 55 -13.5 76t-101.5 21q-84 0 -192 -25l-17 113q113 35 240 34q119 0 180.5 -50t42.5 -156l-8 -45q-12 -70 -40 -112t-136 -155l-209 -211h303l-20 -116h-480z" />
<glyph unicode="&#xb3;" horiz-adv-x="794" d="M164 518l24 103q113 -27 199 -27q84 0 111.5 18.5t38.5 73.5l14 82q2 10 2 23q0 72 -98 71h-176l16 107h176q57 0 80.5 20.5t32.5 67.5l16 92q2 12 2 27q0 35 -24.5 46t-90.5 11q-92 0 -180 -16l-6 102q98 25 209 24q225 0 225 -149q0 -20 -4 -45l-16 -90 q-10 -57 -33 -88t-82 -53q86 -25 86 -113q0 -14 -4 -39l-14 -80q-20 -115 -81 -159t-206 -44q-106 0 -217 35z" />
<glyph unicode="&#xb4;" horiz-adv-x="618" d="M256 1233q164 82 303 180l64 -113q-131 -90 -308 -174z" />
<glyph unicode="&#xb5;" d="M-10 -403l246 1388l172 25l-138 -781q-4 -20 -4 -34q0 -55 70 -56q135 0 377 150l121 696l174 25l-179 -1010h-143l10 129q-78 -55 -207 -102t-215 -47q-20 0 -49 4l-67 -387h-168z" />
<glyph unicode="&#xb6;" horiz-adv-x="1030" d="M186 856q0 238 139.5 373t366.5 135l-149 -852q-162 0 -259.5 96t-97.5 248zM336 -328q170 147 210 193.5t50 99.5l246 1399h143l-242 -1364q-16 -90 -37.5 -133t-78 -99.5t-215.5 -191.5z" />
<glyph unicode="&#xb7;" horiz-adv-x="530" d="M184 553l39 225h174l-39 -225h-174z" />
<glyph unicode="&#xb8;" horiz-adv-x="620" d="M0 -389l25 82q61 -20 127 -21q127 0 127 82q0 47 -76 47q-47 0 -97 -6l-18 31l66 186h94l-49 -143q35 6 63 6q57 0 90 -29.5t33 -81.5q0 -84 -60.5 -133t-172.5 -49q-74 0 -152 29z" />
<glyph unicode="&#xb9;" horiz-adv-x="679" d="M229 1190l269 133h108l-145 -827h-137l118 673l-172 -77z" />
<glyph unicode="&#xba;" horiz-adv-x="792" d="M231 1022l31 176q20 117 85 172t206 55q117 0 174 -67.5t39 -171.5l-31 -174q-20 -113 -84.5 -170.5t-206.5 -57.5q-127 0 -179 67t-34 171zM342 1012q-10 -63 15.5 -95t101.5 -32q137 0 159 127l33 186q23 127 -112 127q-76 0 -114 -28.5t-50 -100.5z" />
<glyph unicode="&#xbb;" horiz-adv-x="983" d="M76 203l258 305l-148 321l133 66l189 -393l-322 -396zM479 203l258 305l-147 321l133 66l188 -393l-321 -396z" />
<glyph unicode="&#xbc;" horiz-adv-x="1708" d="M240 1190l268 133h108l-145 -827h-137l119 673l-172 -77zM379 -10l809 1401l94 -54l-809 -1405zM889 178l10 111l424 538h184l-96 -540h119l-17 -109h-120l-31 -178h-127l31 178h-377zM1034 287h250l76 426z" />
<glyph unicode="&#xbd;" horiz-adv-x="1751" d="M240 1190l268 133h108l-145 -827h-137l119 673l-172 -77zM379 -10l809 1401l94 -54l-809 -1405zM1014 0l10 106l244 242q125 125 153.5 162t36.5 82l6 35q10 55 -13.5 75.5t-100.5 20.5q-84 0 -193 -25l-16 113q113 35 239 35q119 0 180.5 -50.5t43.5 -156.5l-9 -45 q-12 -70 -39.5 -112t-136.5 -154l-209 -211h303l-20 -117h-479z" />
<glyph unicode="&#xbe;" horiz-adv-x="1781" d="M174 518l25 103q113 -27 198 -27q84 0 112 18.5t38 73.5l14 82q2 10 2 23q0 72 -98 71h-176l16 107h176q57 0 81 20.5t32 67.5l16 92q2 12 2 27q0 35 -24.5 46t-89.5 11q-92 0 -181 -16l-6 102q98 25 209 24q225 0 225 -149q0 -20 -4 -45l-16 -90q-10 -57 -32.5 -88 t-82.5 -53q86 -25 86 -113q0 -14 -4 -39l-14 -80q-20 -115 -80.5 -159t-206.5 -44q-106 0 -217 35zM453 -10l809 1401l94 -54l-809 -1405zM963 178l10 111l424 538h184l-96 -540h119l-17 -109h-121l-30 -178h-127l30 178h-376zM1108 287h250l76 426z" />
<glyph unicode="&#xbf;" horiz-adv-x="972" d="M68 -180q0 53 14 139q16 90 26.5 132t30 89t56 81t87 72t140.5 95l174 113l78 -123l-250 -168q-96 -66 -124 -113t-50 -170q-14 -78 -14 -121q0 -72 43 -96t170 -24q119 0 274 32l16 -145q-158 -37 -325 -37q-182 0 -264 59.5t-82 184.5zM565 772l39 225h174l-39 -225 h-174z" />
<glyph unicode="&#xc0;" horiz-adv-x="1271" d="M-16 0l686 1364h245l213 -1364h-176l-49 332h-569l-170 -332h-180zM403 479h478l-105 766zM590 1628l80 101q88 -76 219 -164l-70 -97q-110 64 -229 160z" />
<glyph unicode="&#xc1;" horiz-adv-x="1271" d="M-16 0l686 1364h245l213 -1364h-176l-49 332h-569l-170 -332h-180zM403 479h478l-105 766zM737 1567q141 86 238 159l69 -108q-119 -88 -245 -152z" />
<glyph unicode="&#xc2;" horiz-adv-x="1271" d="M-16 0l686 1364h245l213 -1364h-176l-49 332h-569l-170 -332h-180zM403 479h478l-105 766zM573 1559q152 86 263 159q96 -80 223 -168l-58 -86q-98 51 -184 109q-90 -57 -192 -109z" />
<glyph unicode="&#xc3;" horiz-adv-x="1271" d="M-16 0l686 1364h245l213 -1364h-176l-49 332h-569l-170 -332h-180zM403 479h478l-105 766zM535 1552q78 127 196 127q43 0 112.5 -38.5t102.5 -38.5q49 0 101 59l71 -51q-72 -127 -180 -127q-49 0 -121 39t-100 39q-45 0 -121 -72z" />
<glyph unicode="&#xc4;" horiz-adv-x="1271" d="M-16 0l686 1364h245l213 -1364h-176l-49 332h-569l-170 -332h-180zM403 479h478l-105 766zM545 1499l26 154h162l-26 -154h-162zM928 1499l26 154h162l-26 -154h-162z" />
<glyph unicode="&#xc5;" horiz-adv-x="1271" d="M-16 0l686 1364h245l213 -1364h-176l-49 332h-569l-170 -332h-180zM403 479h478l-105 766zM690 1571q0 78 45 122t125 44q57 0 90 -31t33 -78q0 -74 -43 -123t-127 -49q-55 0 -89 32t-34 83zM770 1581q0 -53 53 -53q78 0 78 90q0 51 -51 51q-35 0 -57.5 -24.5 t-22.5 -63.5z" />
<glyph unicode="&#xc6;" horiz-adv-x="1734" d="M-16 0l686 1364h1087l-28 -154h-791l70 -436h600l-27 -151h-551l74 -469h440l-26 -154h-566l-49 332h-569l-170 -332h-180zM403 479h478l-105 766z" />
<glyph unicode="&#xc7;" horiz-adv-x="1056" d="M111 295q0 39 10 100l104 592q39 213 160 305t369 92q184 0 340 -43l-35 -147q-170 37 -320 37q-168 0 -243.5 -57.5t-102.5 -208.5l-100 -572q-8 -43 -8 -86q0 -94 59 -134t203 -40q152 0 325 33l7 -148q-154 -33 -336 -38l-37 -111q35 6 63 6q57 0 90 -29.5t33 -81.5 q0 -84 -60.5 -133t-172.5 -49q-74 0 -152 29l25 82q61 -20 127 -21q127 0 127 82q0 47 -76 47q-47 0 -96 -6l-19 31l54 156q-338 26 -338 313z" />
<glyph unicode="&#xc8;" horiz-adv-x="1093" d="M82 0l240 1364h794l-29 -154h-618l-76 -436h574l-27 -151h-575l-84 -469h622l-26 -154h-795zM528 1628l80 101q88 -76 219 -164l-69 -97q-111 64 -230 160z" />
<glyph unicode="&#xc9;" horiz-adv-x="1093" d="M82 0l240 1364h794l-29 -154h-618l-76 -436h574l-27 -151h-575l-84 -469h622l-26 -154h-795zM637 1567q141 86 237 159l70 -108q-119 -88 -246 -152z" />
<glyph unicode="&#xca;" horiz-adv-x="1093" d="M82 0l240 1364h794l-29 -154h-618l-76 -436h574l-27 -151h-575l-84 -469h622l-26 -154h-795zM500 1559q152 86 262 159q96 -80 223 -168l-57 -86q-98 51 -185 109q-90 -57 -192 -109z" />
<glyph unicode="&#xcb;" horiz-adv-x="1093" d="M82 0l240 1364h794l-29 -154h-618l-76 -436h574l-27 -151h-575l-84 -469h622l-26 -154h-795zM459 1499l26 154h162l-26 -154h-162zM842 1499l26 154h162l-26 -154h-162z" />
<glyph unicode="&#xcc;" horiz-adv-x="540" d="M92 0l240 1364h172l-240 -1364h-172zM217 1628l80 101q88 -76 219 -164l-70 -97q-110 64 -229 160z" />
<glyph unicode="&#xcd;" horiz-adv-x="540" d="M92 0l240 1364h172l-240 -1364h-172zM346 1567q141 86 238 159l69 -108q-119 -88 -245 -152z" />
<glyph unicode="&#xce;" horiz-adv-x="540" d="M92 0l240 1364h172l-240 -1364h-172zM203 1559q152 86 262 159q96 -80 223 -168l-57 -86q-98 51 -185 109q-90 -57 -192 -109z" />
<glyph unicode="&#xcf;" horiz-adv-x="540" d="M92 0l240 1364h172l-240 -1364h-172zM168 1499l27 154h161l-26 -154h-162zM551 1499l27 154h161l-26 -154h-162z" />
<glyph unicode="&#xd0;" horiz-adv-x="1267" d="M86 623l25 139h157l107 602h459q201 0 293 -85t92 -230q0 -51 -9 -95l-104 -594q-23 -129 -71 -203.5t-147.5 -115.5t-264.5 -41h-488l109 623h-158zM334 154h289q162 0 227 52t90 187l98 559q8 53 9 84q0 86 -54.5 130t-181.5 44h-291l-80 -448h258l-24 -139h-258z" />
<glyph unicode="&#xd1;" horiz-adv-x="1345" d="M82 0l240 1364h229l393 -1180l207 1180h168l-240 -1364h-233l-391 1163l-205 -1163h-168zM557 1552q78 127 197 127q45 0 114.5 -38.5t100.5 -38.5q49 0 100 59l72 -51q-72 -127 -180 -127q-49 0 -121 39t-101 39q-45 0 -121 -72z" />
<glyph unicode="&#xd2;" horiz-adv-x="1267" d="M115 317q0 45 8 89l98 559q39 219 167 319t390 100q203 0 316.5 -98t113.5 -256q0 -31 -8 -76l-100 -571q-35 -197 -163 -300t-398 -103q-215 0 -319.5 90.5t-104.5 246.5zM287 328q0 -96 63.5 -146.5t214.5 -50.5q172 0 257 66.5t110 199.5l98 559q8 49 8 74 q0 203 -278 203q-172 0 -257 -64.5t-112 -212.5l-96 -548q-8 -47 -8 -80zM559 1628l80 101q88 -76 219 -164l-70 -97q-110 64 -229 160z" />
<glyph unicode="&#xd3;" horiz-adv-x="1267" d="M115 317q0 45 8 89l98 559q39 219 167 319t390 100q203 0 316.5 -98t113.5 -256q0 -31 -8 -76l-100 -571q-35 -197 -163 -300t-398 -103q-215 0 -319.5 90.5t-104.5 246.5zM287 328q0 -96 63.5 -146.5t214.5 -50.5q172 0 257 66.5t110 199.5l98 559q8 49 8 74 q0 203 -278 203q-172 0 -257 -64.5t-112 -212.5l-96 -548q-8 -47 -8 -80zM707 1567q141 86 237 159l70 -108q-119 -88 -246 -152z" />
<glyph unicode="&#xd4;" horiz-adv-x="1267" d="M115 317q0 45 8 89l98 559q39 219 167 319t390 100q203 0 316.5 -98t113.5 -256q0 -31 -8 -76l-100 -571q-35 -197 -163 -300t-398 -103q-215 0 -319.5 90.5t-104.5 246.5zM287 328q0 -96 63.5 -146.5t214.5 -50.5q172 0 257 66.5t110 199.5l98 559q8 49 8 74 q0 203 -278 203q-172 0 -257 -64.5t-112 -212.5l-96 -548q-8 -47 -8 -80zM553 1559q152 86 262 159q96 -80 223 -168l-57 -86q-98 51 -184 109q-90 -57 -193 -109z" />
<glyph unicode="&#xd5;" horiz-adv-x="1267" d="M115 317q0 45 8 89l98 559q39 219 167 319t390 100q203 0 316.5 -98t113.5 -256q0 -31 -8 -76l-100 -571q-35 -197 -163 -300t-398 -103q-215 0 -319.5 90.5t-104.5 246.5zM287 328q0 -96 63.5 -146.5t214.5 -50.5q172 0 257 66.5t110 199.5l98 559q8 49 8 74 q0 203 -278 203q-172 0 -257 -64.5t-112 -212.5l-96 -548q-8 -47 -8 -80zM520 1552q78 127 197 127q45 0 114.5 -38.5t100.5 -38.5q49 0 100 59l72 -51q-72 -127 -180 -127q-49 0 -121 39t-101 39q-45 0 -120 -72z" />
<glyph unicode="&#xd6;" horiz-adv-x="1267" d="M115 317q0 45 8 89l98 559q39 219 167 319t390 100q203 0 316.5 -98t113.5 -256q0 -31 -8 -76l-100 -571q-35 -197 -163 -300t-398 -103q-215 0 -319.5 90.5t-104.5 246.5zM287 328q0 -96 63.5 -146.5t214.5 -50.5q172 0 257 66.5t110 199.5l98 559q8 49 8 74 q0 203 -278 203q-172 0 -257 -64.5t-112 -212.5l-96 -548q-8 -47 -8 -80zM526 1499l27 154h162l-27 -154h-162zM909 1499l27 154h162l-27 -154h-162z" />
<glyph unicode="&#xd7;" horiz-adv-x="1073" d="M158 205l288 291l-288 290l100 101l289 -289l289 289l100 -101l-289 -290l289 -291l-100 -101l-289 291l-289 -291z" />
<glyph unicode="&#xd8;" horiz-adv-x="1267" d="M55 -68l129 172q-70 84 -69 213q0 45 8 89l98 559q39 219 167 319t390 100q184 0 301 -86l142 189l73 -55l-149 -199q63 -88 63 -203q0 -31 -8 -76l-100 -571q-35 -197 -163 -300t-398 -103q-178 0 -283 63l-125 -166zM287 328q0 -45 10 -74l686 917q-68 61 -223 62 q-172 0 -257 -64.5t-112 -212.5l-96 -548q-8 -47 -8 -80zM354 176q72 -45 211 -45q172 0 257 66.5t110 199.5l98 559q8 49 8 74q0 29 -6 53z" />
<glyph unicode="&#xd9;" horiz-adv-x="1292" d="M133 313q0 39 8 82l170 969h172l-170 -969q-6 -37 -6 -76q0 -96 63.5 -142t207.5 -46q166 0 248.5 68.5t107.5 206.5l170 958h172l-172 -979q-35 -195 -159 -300t-390 -105q-209 0 -315.5 90.5t-106.5 242.5zM610 1628l80 101q88 -76 219 -164l-69 -97q-111 64 -230 160z " />
<glyph unicode="&#xda;" horiz-adv-x="1292" d="M133 313q0 39 8 82l170 969h172l-170 -969q-6 -37 -6 -76q0 -96 63.5 -142t207.5 -46q166 0 248.5 68.5t107.5 206.5l170 958h172l-172 -979q-35 -195 -159 -300t-390 -105q-209 0 -315.5 90.5t-106.5 242.5zM698 1567q141 86 238 159l70 -108q-119 -88 -246 -152z" />
<glyph unicode="&#xdb;" horiz-adv-x="1292" d="M133 313q0 39 8 82l170 969h172l-170 -969q-6 -37 -6 -76q0 -96 63.5 -142t207.5 -46q166 0 248.5 68.5t107.5 206.5l170 958h172l-172 -979q-35 -195 -159 -300t-390 -105q-209 0 -315.5 90.5t-106.5 242.5zM580 1559q152 86 262 159q96 -80 223 -168l-57 -86 q-98 51 -185 109q-90 -57 -192 -109z" />
<glyph unicode="&#xdc;" horiz-adv-x="1292" d="M133 313q0 39 8 82l170 969h172l-170 -969q-6 -37 -6 -76q0 -96 63.5 -142t207.5 -46q166 0 248.5 68.5t107.5 206.5l170 958h172l-172 -979q-35 -195 -159 -300t-390 -105q-209 0 -315.5 90.5t-106.5 242.5zM541 1499l26 154h162l-27 -154h-161zM924 1499l26 154h162 l-27 -154h-161z" />
<glyph unicode="&#xdd;" horiz-adv-x="1095" d="M158 1364h166l231 -770l485 770h195l-625 -958l-71 -406h-172l73 420zM592 1567q141 86 237 159l70 -108q-119 -88 -246 -152z" />
<glyph unicode="&#xde;" horiz-adv-x="1148" d="M82 0l240 1364h172l-41 -240h307q352 0 352 -266q0 -39 -8 -86l-33 -188q-29 -174 -128 -254t-333 -80h-311l-45 -250h-172zM326 401h317q129 0 184.5 44t73.5 151l33 186q6 33 6 60q0 70 -45 99.5t-150 29.5h-319z" />
<glyph unicode="&#xdf;" horiz-adv-x="1202" d="M-68 -319q68 61 94.5 112t45.5 150l200 1138q35 199 131.5 282t309.5 83q160 0 249 -70.5t89 -187.5q0 -90 -22.5 -144.5t-106.5 -179.5l-25 -36l-21 -31q-7 -10 -17.5 -26.5t-14.5 -24.5l-11 -19q-7 -12 -9.5 -19.5l-5.5 -16.5t-4 -17t-1 -17q0 -25 21.5 -51t93.5 -88 q86 -74 113.5 -111.5t27.5 -87.5q0 -176 -72.5 -257.5t-279.5 -81.5q-121 0 -217 38l30 129q96 -29 194.5 -28.5t136.5 33t38 131.5q0 31 -21.5 55t-107.5 96q-127 106 -127 203q0 66 22.5 117t79.5 129q84 115 110 170t26 116q0 63 -48.5 99.5t-138.5 36.5 q-117 0 -175 -51.5t-81 -184.5l-200 -1145q-20 -119 -63.5 -191.5t-139.5 -156.5z" />
<glyph unicode="&#xe0;" horiz-adv-x="1050" d="M78 178q0 25 8 78l70 395q35 195 129 281t319 86q178 0 359 -68l-168 -950h-140l7 121q-160 -141 -373 -141q-211 -1 -211 198zM248 199q0 -74 82 -74q160 0 350 174l96 549q-92 25 -192 24q-121 0 -180.5 -51t-84.5 -192l-63 -361q-8 -49 -8 -69zM449 1305l88 104 q92 -90 227 -184l-76 -99q-135 85 -239 179z" />
<glyph unicode="&#xe1;" horiz-adv-x="1050" d="M78 178q0 25 8 78l70 395q35 195 129 281t319 86q178 0 359 -68l-168 -950h-140l7 121q-160 -141 -373 -141q-211 -1 -211 198zM248 199q0 -74 82 -74q160 0 350 174l96 549q-92 25 -192 24q-121 0 -180.5 -51t-84.5 -192l-63 -361q-8 -49 -8 -69zM506 1233 q164 82 303 180l63 -113q-131 -90 -307 -174z" />
<glyph unicode="&#xe2;" horiz-adv-x="1050" d="M78 178q0 25 8 78l70 395q35 195 129 281t319 86q178 0 359 -68l-168 -950h-140l7 121q-160 -141 -373 -141q-211 -1 -211 198zM248 199q0 -74 82 -74q160 0 350 174l96 549q-92 25 -192 24q-121 0 -180.5 -51t-84.5 -192l-63 -361q-8 -49 -8 -69zM393 1206 q172 102 287 187q76 -78 233 -195l-61 -88q-94 53 -190 131q-86 -68 -216 -131z" />
<glyph unicode="&#xe3;" horiz-adv-x="1050" d="M78 178q0 25 8 78l70 395q35 195 129 281t319 86q178 0 359 -68l-168 -950h-140l7 121q-160 -141 -373 -141q-211 -1 -211 198zM248 199q0 -74 82 -74q160 0 350 174l96 549q-92 25 -192 24q-121 0 -180.5 -51t-84.5 -192l-63 -361q-8 -49 -8 -69zM371 1204 q78 127 196 127q43 0 114 -39t103 -39q47 0 101 60l71 -51q-72 -127 -182 -127q-49 0 -120.5 38.5t-100.5 38.5q-10 0 -19.5 -2t-19.5 -7l-16 -8q-6 -3 -17.5 -12t-15.5 -12.5t-16 -15.5l-15 -14z" />
<glyph unicode="&#xe4;" horiz-adv-x="1050" d="M78 178q0 25 8 78l70 395q35 195 129 281t319 86q178 0 359 -68l-168 -950h-140l7 121q-160 -141 -373 -141q-211 -1 -211 198zM248 199q0 -74 82 -74q160 0 350 174l96 549q-92 25 -192 24q-121 0 -180.5 -51t-84.5 -192l-63 -361q-8 -49 -8 -69zM389 1153l31 172l160 6 l-31 -172zM758 1153l30 172l160 6l-30 -172z" />
<glyph unicode="&#xe5;" horiz-adv-x="1050" d="M78 178q0 25 8 78l70 395q35 195 129 281t319 86q178 0 359 -68l-168 -950h-140l7 121q-160 -141 -373 -141q-211 -1 -211 198zM248 199q0 -74 82 -74q160 0 350 174l96 549q-92 25 -192 24q-121 0 -180.5 -51t-84.5 -192l-63 -361q-8 -49 -8 -69zM520 1231q0 80 48 128 t132 48q59 0 94 -34t35 -83q0 -76 -46 -128t-134 -52q-59 0 -94 34t-35 87zM602 1241q0 -59 60 -59q39 0 61 27.5t22 70.5q0 57 -55 57q-39 0 -63.5 -26.5t-24.5 -69.5z" />
<glyph unicode="&#xe6;" horiz-adv-x="1470" d="M45 199q0 184 87 260t261 76h273l28 163q6 31 6 54q0 68 -46 95t-150 27q-145 0 -293 -32l-18 129q162 47 337 47q227 0 281 -146q109 145 322 146q127 0 200.5 -63.5t73.5 -180.5q0 -172 -144.5 -254t-451.5 -114l-25 -134q-4 -29 -4 -43q0 -109 152 -108q162 0 369 100 l36 -127q-213 -115 -426 -114q-195 0 -260 108q-164 -109 -370 -108q-115 0 -176.5 58.5t-61.5 160.5zM209 205q0 -88 123 -88q141 0 289 82q-6 37 6 102q2 16 16 102h-242q-104 0 -148 -39.5t-44 -158.5zM834 537q227 20 322 77.5t95 159.5q0 43 -30.5 75t-102.5 32 q-221 0 -266 -244z" />
<glyph unicode="&#xe7;" horiz-adv-x="837" d="M72 203q0 39 8 80l72 370q39 205 134 285t294 80q125 0 241 -45l-37 -135q-109 35 -213 34q-123 0 -177 -51t-81 -192l-65 -373q-4 -29 -4 -43q0 -47 27.5 -67.5t90.5 -20.5q135 0 310 68l22 -138q-137 -61 -293 -73l-39 -113q35 6 64 6q57 0 90 -29.5t33 -81.5 q0 -84 -60.5 -133t-173.5 -49q-74 0 -151 29l24 82q61 -20 127 -21q127 0 127 82q0 47 -75 47q-47 0 -97 -6l-18 31l53 156q-233 14 -233 221z" />
<glyph unicode="&#xe8;" horiz-adv-x="927" d="M86 211q0 45 8 92l60 336q35 197 135 288t305 91q129 0 207 -58.5t78 -166.5q0 -127 -76 -202t-283 -145q-59 -20 -246 -77l-18 -103q-4 -23 -4 -45q0 -51 30.5 -75.5t106.5 -24.5q150 0 365 104l37 -125q-221 -121 -424 -120q-281 0 -281 231zM301 524l184 56 q236 70 236 194q0 49 -36 78t-103 29q-117 0 -176.5 -49.5t-79.5 -169.5zM375 1305l88 104q92 -90 227 -184l-76 -99q-135 85 -239 179z" />
<glyph unicode="&#xe9;" horiz-adv-x="927" d="M86 211q0 45 8 92l60 336q35 197 135 288t305 91q129 0 207 -58.5t78 -166.5q0 -127 -76 -202t-283 -145q-59 -20 -246 -77l-18 -103q-4 -23 -4 -45q0 -51 30.5 -75.5t106.5 -24.5q150 0 365 104l37 -125q-221 -121 -424 -120q-281 0 -281 231zM301 524l184 56 q236 70 236 194q0 49 -36 78t-103 29q-117 0 -176.5 -49.5t-79.5 -169.5zM479 1233q164 82 303 180l64 -113q-131 -90 -307 -174z" />
<glyph unicode="&#xea;" horiz-adv-x="927" d="M86 211q0 45 8 92l60 336q35 197 135 288t305 91q129 0 207 -58.5t78 -166.5q0 -127 -76 -202t-283 -145q-59 -20 -246 -77l-18 -103q-4 -23 -4 -45q0 -51 30.5 -75.5t106.5 -24.5q150 0 365 104l37 -125q-221 -121 -424 -120q-281 0 -281 231zM301 524l184 56 q236 70 236 194q0 49 -36 78t-103 29q-117 0 -176.5 -49.5t-79.5 -169.5zM346 1206q172 102 287 187q76 -78 233 -195l-61 -88q-94 53 -191 131q-86 -68 -215 -131z" />
<glyph unicode="&#xeb;" horiz-adv-x="927" d="M86 211q0 45 8 92l60 336q35 197 135 288t305 91q129 0 207 -58.5t78 -166.5q0 -127 -76 -202t-283 -145q-59 -20 -246 -77l-18 -103q-4 -23 -4 -45q0 -51 30.5 -75.5t106.5 -24.5q150 0 365 104l37 -125q-221 -121 -424 -120q-281 0 -281 231zM301 524l184 56 q236 70 236 194q0 49 -36 78t-103 29q-117 0 -176.5 -49.5t-79.5 -169.5zM340 1153l31 172l159 6l-30 -172zM709 1153l30 172l160 6l-31 -172z" />
<glyph unicode="&#xec;" horiz-adv-x="495" d="M72 0l174 985l172 25l-178 -1010h-168zM123 1305l88 104q92 -90 227 -184l-76 -99q-135 85 -239 179z" />
<glyph unicode="&#xed;" horiz-adv-x="495" d="M72 0l174 985l172 25l-178 -1010h-168zM258 1233q164 82 303 180l64 -113q-131 -90 -308 -174z" />
<glyph unicode="&#xee;" horiz-adv-x="495" d="M72 0l174 985l172 25l-178 -1010h-168zM98 1206q172 102 287 187q76 -78 233 -195l-61 -88q-94 53 -190 131q-86 -68 -215 -131z" />
<glyph unicode="&#xef;" horiz-adv-x="495" d="M72 0l174 985l172 25l-178 -1010h-168zM98 1153l31 172l160 6l-31 -172zM467 1153l31 172l159 6l-30 -172z" />
<glyph unicode="&#xf0;" horiz-adv-x="1075" d="M96 272q0 39 8 88l37 209q35 195 126 284t296 89q172 0 277 -61q6 170 -113 278l-211 -110q-47 88 -47 90l168 90q-96 57 -209 82l41 123q178 -37 305 -131l172 92l49 -92l-139 -74q135 -141 135 -367q0 -57 -12 -131l-68 -383q-31 -180 -139 -274t-330 -94 q-176 0 -261 78.5t-85 213.5zM262 276q0 -76 46 -114.5t157 -38.5q133 0 196.5 53t83.5 172l68 387q-131 61 -260 62q-119 0 -171 -54.5t-75 -179.5l-39 -213q-6 -39 -6 -74z" />
<glyph unicode="&#xf1;" d="M72 0l174 985l147 25l-12 -142q78 55 207 102.5t215 47.5q178 0 178 -176q0 -43 -8 -86l-133 -756h-168l135 768q4 25 4 35q0 55 -70 55q-135 0 -376 -149l-125 -709h-168zM350 1204q78 127 197 127q43 0 113.5 -39t103.5 -39q47 0 100 60l72 -51q-72 -127 -182 -127 q-49 0 -121 38.5t-101 38.5q-10 0 -19 -2t-19 -7l-17 -8q-6 -3 -17 -12l-15.5 -12.5t-16.5 -15.5l-14 -14z" />
<glyph unicode="&#xf2;" horiz-adv-x="1036" d="M84 358l51 291q33 186 145.5 277.5t323.5 91.5q166 0 257 -82t91 -215q0 -37 -6 -70l-55 -313q-31 -178 -138.5 -268t-328.5 -90q-205 0 -288 104t-52 274zM252 350q-18 -113 23.5 -169t173.5 -56q127 0 191.5 54t84.5 169l53 303q6 33 6 60q0 162 -204 161 q-236 0 -277 -233zM391 1305l88 104q92 -90 228 -184l-76 -99q-136 85 -240 179z" />
<glyph unicode="&#xf3;" horiz-adv-x="1036" d="M84 358l51 291q33 186 145.5 277.5t323.5 91.5q166 0 257 -82t91 -215q0 -37 -6 -70l-55 -313q-31 -178 -138.5 -268t-328.5 -90q-205 0 -288 104t-52 274zM252 350q-18 -113 23.5 -169t173.5 -56q127 0 191.5 54t84.5 169l53 303q6 33 6 60q0 162 -204 161 q-236 0 -277 -233zM492 1233q164 82 303 180l63 -113q-131 -90 -307 -174z" />
<glyph unicode="&#xf4;" horiz-adv-x="1036" d="M84 358l51 291q33 186 145.5 277.5t323.5 91.5q166 0 257 -82t91 -215q0 -37 -6 -70l-55 -313q-31 -178 -138.5 -268t-328.5 -90q-205 0 -288 104t-52 274zM252 350q-18 -113 23.5 -169t173.5 -56q127 0 191.5 54t84.5 169l53 303q6 33 6 60q0 162 -204 161 q-236 0 -277 -233zM369 1206q172 102 286 187q76 -78 234 -195l-62 -88q-94 53 -190 131q-86 -68 -215 -131z" />
<glyph unicode="&#xf5;" horiz-adv-x="1036" d="M84 358l51 291q33 186 145.5 277.5t323.5 91.5q166 0 257 -82t91 -215q0 -37 -6 -70l-55 -313q-31 -178 -138.5 -268t-328.5 -90q-205 0 -288 104t-52 274zM252 350q-18 -113 23.5 -169t173.5 -56q127 0 191.5 54t84.5 169l53 303q6 33 6 60q0 162 -204 161 q-236 0 -277 -233zM340 1204q78 127 197 127q43 0 113.5 -39t103.5 -39q47 0 100 60l72 -51q-72 -127 -183 -127q-49 0 -120.5 38.5t-100.5 38.5q-10 0 -19 -2t-20 -7l-16 -8q-6 -3 -17.5 -12t-15.5 -12.5t-16 -15.5l-15 -14z" />
<glyph unicode="&#xf6;" horiz-adv-x="1036" d="M84 358l51 291q33 186 145.5 277.5t323.5 91.5q166 0 257 -82t91 -215q0 -37 -6 -70l-55 -313q-31 -178 -138.5 -268t-328.5 -90q-205 0 -288 104t-52 274zM252 350q-18 -113 23.5 -169t173.5 -56q127 0 191.5 54t84.5 169l53 303q6 33 6 60q0 162 -204 161 q-236 0 -277 -233zM371 1153l30 172l160 6l-31 -172zM739 1153l31 172l160 6l-31 -172z" />
<glyph unicode="&#xf7;" horiz-adv-x="1077" d="M123 434v127h831v-127h-831zM457 61v189h166v-189h-166zM457 745v189h166v-189h-166z" />
<glyph unicode="&#xf8;" horiz-adv-x="1036" d="M23 -49l110 137q-82 100 -49 270l51 291q33 186 145.5 277.5t323.5 91.5q141 0 230 -62l116 144l64 -51l-121 -148q59 -76 59 -180q0 -37 -6 -70l-55 -313q-31 -178 -138.5 -268t-328.5 -90q-139 0 -229 53l-111 -135zM250 233l485 598q-53 41 -155 41q-236 0 -277 -233 l-51 -289q-12 -72 -2 -117zM297 160q47 -35 152 -35q127 0 191.5 54t84.5 169l53 303q6 33 6 59.5t-6 47.5z" />
<glyph unicode="&#xf9;" d="M96 156q0 43 8 86l132 743l172 25l-138 -781q-4 -25 -4 -34q0 -55 70 -56q135 0 377 150l121 696l174 25l-179 -1010h-143l10 129q-78 -55 -207 -102t-215 -47q-178 0 -178 176zM432 1305l88 104q92 -90 228 -184l-76 -99q-136 85 -240 179z" />
<glyph unicode="&#xfa;" d="M96 156q0 43 8 86l132 743l172 25l-138 -781q-4 -25 -4 -34q0 -55 70 -56q135 0 377 150l121 696l174 25l-179 -1010h-143l10 129q-78 -55 -207 -102t-215 -47q-178 0 -178 176zM522 1233q164 82 303 180l64 -113q-131 -90 -307 -174z" />
<glyph unicode="&#xfb;" d="M96 156q0 43 8 86l132 743l172 25l-138 -781q-4 -25 -4 -34q0 -55 70 -56q135 0 377 150l121 696l174 25l-179 -1010h-143l10 129q-78 -55 -207 -102t-215 -47q-178 0 -178 176zM403 1206q172 102 287 187q76 -78 234 -195l-62 -88q-94 53 -190 131q-86 -68 -215 -131z " />
<glyph unicode="&#xfc;" d="M96 156q0 43 8 86l132 743l172 25l-138 -781q-4 -25 -4 -34q0 -55 70 -56q135 0 377 150l121 696l174 25l-179 -1010h-143l10 129q-78 -55 -207 -102t-215 -47q-178 0 -178 176zM401 1153l31 172l160 6l-31 -172zM770 1153l31 172l160 6l-31 -172z" />
<glyph unicode="&#xfd;" horiz-adv-x="888" d="M-20 -297q121 43 199.5 109.5t146.5 187.5h-60l-155 983l161 23l127 -873l283 590q37 76 37 151q0 55 -17 111l162 25q16 -70 17 -131q0 -104 -35 -174l-346 -705q-94 -174 -191.5 -269.5t-283.5 -156.5zM373 1233q164 82 303 180l63 -113q-131 -90 -307 -174z" />
<glyph unicode="&#xfe;" horiz-adv-x="1048" d="M-4 -428l323 1833l175 25l-99 -543q160 131 367 131q209 0 209 -199q0 -41 -6 -78l-70 -393q-35 -197 -128 -282.5t-318 -85.5q-96 0 -207 26l-74 -409zM266 150q92 -25 201 -25q133 0 185.5 49t78.5 197l64 362q6 37 6 64q0 39 -17.5 57t-62.5 18q-154 0 -359 -176z" />
<glyph unicode="&#xff;" horiz-adv-x="888" d="M-20 -297q121 43 199.5 109.5t146.5 187.5h-60l-155 983l161 23l127 -873l283 590q37 76 37 151q0 55 -17 111l162 25q16 -70 17 -131q0 -104 -35 -174l-346 -705q-94 -174 -191.5 -269.5t-283.5 -156.5zM258 1153l31 172l160 6l-31 -172zM627 1153l30 172l160 6 l-31 -172z" />
<glyph unicode="&#x152;" horiz-adv-x="1820" d="M117 338q0 45 8 88l94 518q39 219 167 319.5t390 100.5h1067l-28 -154h-619l-76 -436h574l-27 -151h-575l-84 -469h622l-26 -154h-1063q-215 0 -319.5 91t-104.5 247zM289 348q0 -96 63.5 -146t214.5 -50h269l186 1060h-264q-172 0 -257 -64.5t-112 -211.5l-92 -508 q-8 -47 -8 -80z" />
<glyph unicode="&#x153;" horiz-adv-x="1538" d="M84 358l51 291q33 188 139.5 278.5t321.5 90.5q186 0 289 -129q61 70 138 99.5t194 29.5q129 0 206.5 -58.5t77.5 -166.5q0 -125 -79 -200t-279 -140q-154 -51 -246 -78l-18 -105q-12 -76 15.5 -112.5t117.5 -36.5q150 0 364 104l37 -125q-221 -121 -424 -120 q-88 0 -150.5 30.5t-86.5 77.5q-121 -109 -328 -108q-205 0 -288 104t-52 274zM252 350q-18 -113 23.5 -169t173.5 -56q127 0 191.5 54t84.5 169l55 316q4 20 4 47q0 162 -204 161q-236 0 -277 -233zM924 524l184 56q123 37 179 82t56 106q0 113 -139 113q-117 0 -176 -49.5 t-80 -169.5z" />
<glyph unicode="&#x178;" horiz-adv-x="1095" d="M158 1364h166l231 -770l485 770h195l-625 -958l-71 -406h-172l73 420zM420 1499l26 154h162l-26 -154h-162zM803 1499l26 154h162l-26 -154h-162z" />
<glyph unicode="&#x2c6;" horiz-adv-x="786" d="M256 1206q172 102 287 187q76 -78 233 -195l-61 -88q-94 53 -191 131q-86 -68 -215 -131z" />
<glyph unicode="&#x2dc;" horiz-adv-x="851" d="M256 1204q78 127 197 127q43 0 113.5 -39t103.5 -39q47 0 100 60l72 -51q-72 -127 -183 -127q-49 0 -120.5 38.5t-100.5 38.5q-10 0 -19 -2t-20 -7l-16 -8q-6 -3 -17.5 -12t-15.5 -12.5t-16 -15.5l-15 -14z" />
<glyph unicode="&#x2000;" horiz-adv-x="868" />
<glyph unicode="&#x2001;" horiz-adv-x="1736" />
<glyph unicode="&#x2002;" horiz-adv-x="868" />
<glyph unicode="&#x2003;" horiz-adv-x="1736" />
<glyph unicode="&#x2004;" horiz-adv-x="577" />
<glyph unicode="&#x2005;" horiz-adv-x="434" />
<glyph unicode="&#x2006;" horiz-adv-x="288" />
<glyph unicode="&#x2007;" horiz-adv-x="288" />
<glyph unicode="&#x2008;" horiz-adv-x="217" />
<glyph unicode="&#x2009;" horiz-adv-x="346" />
<glyph unicode="&#x200a;" horiz-adv-x="96" />
<glyph unicode="&#x2010;" horiz-adv-x="757" d="M152 506l22 141h488l-25 -141h-485z" />
<glyph unicode="&#x2011;" horiz-adv-x="757" d="M152 506l22 141h488l-25 -141h-485z" />
<glyph unicode="&#x2013;" horiz-adv-x="995" d="M152 506l22 141h725l-25 -141h-722z" />
<glyph unicode="&#x2014;" horiz-adv-x="1273" d="M152 506l22 141h1004l-25 -141h-1001z" />
<glyph unicode="&#x2018;" horiz-adv-x="505" d="M246 958l41 234l166 240l63 -46l-123 -202h66l-39 -226h-174z" />
<glyph unicode="&#x2019;" horiz-adv-x="505" d="M246 977l123 203h-66l39 225h174l-41 -234l-166 -239z" />
<glyph unicode="&#x201a;" horiz-adv-x="522" d="M31 -203l123 203h-66l39 225h174l-41 -233l-166 -240z" />
<glyph unicode="&#x201c;" horiz-adv-x="862" d="M246 958l41 234l166 240l63 -46l-123 -202h66l-39 -226h-174zM602 958l41 234l166 240l63 -46l-122 -202h65l-39 -226h-174z" />
<glyph unicode="&#x201d;" horiz-adv-x="862" d="M246 977l123 203h-66l39 225h174l-41 -234l-166 -239zM602 977l123 203h-66l39 225h174l-41 -234l-165 -239z" />
<glyph unicode="&#x201e;" horiz-adv-x="878" d="M31 -203l123 203h-66l39 225h174l-41 -233l-166 -240zM387 -203l123 203h-66l39 225h174l-41 -233l-165 -240z" />
<glyph unicode="&#x2022;" horiz-adv-x="761" d="M154 661.5q0 102.5 72.5 175t175 72.5t176 -72.5t73.5 -175t-73.5 -175t-176 -72.5t-175 72.5t-72.5 175z" />
<glyph unicode="&#x2026;" horiz-adv-x="1572" d="M106 0l39 225h174l-38 -225h-175zM631 0l39 225h174l-39 -225h-174zM1155 0l39 225h174l-39 -225h-174z" />
<glyph unicode="&#x202f;" horiz-adv-x="346" />
<glyph unicode="&#x2039;" horiz-adv-x="579" d="M94 500l322 395l110 -96l-258 -305l148 -322l-133 -66z" />
<glyph unicode="&#x203a;" horiz-adv-x="579" d="M76 205l258 305l-148 321l133 66l189 -393l-322 -395z" />
<glyph unicode="&#x205f;" horiz-adv-x="434" />
<glyph unicode="&#x20ac;" horiz-adv-x="1069" d="M31 453l20 108h178l37 213h-178l21 109h176l12 63q39 213 160 305t368 92q143 0 285 -38l-33 -138q-133 29 -266 29q-172 0 -247 -59.5t-103 -212.5l-8 -41h448l-18 -109h-449l-37 -213h447l-19 -108h-446l-10 -60q-8 -43 -9 -86q0 -96 55.5 -138t211.5 -42q121 0 272 29 l6 -142q-139 -35 -313 -34q-401 0 -402 315q0 39 11 100l10 58h-180z" />
<glyph unicode="&#x2122;" horiz-adv-x="1032" d="M215 1298v66h322v-66h-125v-354h-72v354h-125zM618 944l15 420h82l110 -309l111 309h82l14 -420h-71l-7 289l-88 -238h-82l-88 238l-6 -289h-72z" />
</font>
</defs>
</svg>
