<?xml version="1.0" standalone="no"?>
<!DOCTYPE svg PUBLIC "-//W3C//DTD SVG 1.1//EN" "http://www.w3.org/Graphics/SVG/1.1/DTD/svg11.dtd" >
<svg xmlns="http://www.w3.org/2000/svg">
<metadata>
This is a custom SVG webfont generated by Font Squirrel.
Copyright   : Copyright 2004 Process Type Foundry All rights reserved
Foundry     : Process Type Foundry
</metadata>
<defs>
<font id="webfontQyMG82IJ" horiz-adv-x="1105" >
<font-face units-per-em="2048" ascent="1638" descent="-410" />
<missing-glyph horiz-adv-x="430" />
<glyph unicode=" "  horiz-adv-x="430" />
<glyph unicode="&#x09;" horiz-adv-x="430" />
<glyph unicode="&#xa0;" horiz-adv-x="430" />
<glyph unicode="!" horiz-adv-x="573" d="M70 0l53 299h248l-54 -299h-247zM203 444l10 353l106 608h246l-106 -608l-115 -353h-141z" />
<glyph unicode="&#x22;" horiz-adv-x="798" d="M205 899l90 506h176l-90 -506h-176zM563 899l90 506h176l-90 -506h-176z" />
<glyph unicode="#" horiz-adv-x="1427" d="M86 336l35 166h254l67 334h-256l35 165h256l68 322h178l-68 -322h326l68 322h178l-68 -322h244l-35 -165h-244l-69 -334h250l-35 -166h-250l-68 -336h-178l68 336h-324l-69 -336h-179l70 336h-254zM553 502h324l69 334h-325z" />
<glyph unicode="$" horiz-adv-x="1038" d="M31 45l57 199q176 -53 330 -54q119 0 162 35t59 137q10 61 10 91q0 47 -35.5 69.5t-146.5 52.5q-164 45 -222.5 95.5t-58.5 140.5q0 66 19 164q37 209 115.5 280.5t283.5 85.5l41 228h199l-41 -230q92 -8 209 -36l-47 -209q-158 35 -314 34q-115 0 -150.5 -28.5 t-51.5 -126.5q-10 -57 -11 -80q0 -45 35 -67.5t152 -57.5q164 -49 222 -100.5t58 -141.5q0 -55 -20 -164q-31 -186 -105.5 -272t-265.5 -104l-41 -228h-199l41 226q-151 8 -284 61z" />
<glyph unicode="%" horiz-adv-x="1769" d="M162 866q0 41 8 86l31 174q25 135 103.5 196.5t256.5 61.5q133 0 201.5 -59t68.5 -164q0 -31 -6 -67l-28 -164q-25 -145 -104 -218t-263 -73q-268 0 -268 227zM352 881q0 -78 107 -78q70 0 100.5 23.5t40.5 78.5l35 201q20 115 -105 115q-70 0 -99.5 -23.5t-39.5 -81.5 l-35 -198q-4 -25 -4 -37zM449 66l776 1318l133 -79l-774 -1325zM987 207q0 41 8 86l31 174q25 135 103.5 196.5t256.5 61.5q133 0 202 -59.5t69 -163.5q0 -31 -6 -68l-29 -164q-25 -145 -103.5 -217.5t-263.5 -72.5q-268 0 -268 227zM1178 221q0 -78 106 -78 q70 0 100.5 23.5t40.5 79.5l35 200q20 115 -104 115q-70 0 -99.5 -23.5t-39.5 -80.5l-35 -199q-4 -25 -4 -37z" />
<glyph unicode="&#x26;" horiz-adv-x="1472" d="M70 240q0 35 6 73l63 361q33 182 134.5 263t299.5 81q158 0 248 -66.5t90 -175.5q0 -115 -73 -188h229q125 0 198.5 24.5t159.5 85.5l88 -143q-166 -150 -409 -149q-225 -426 -694 -426q-340 0 -340 260zM311 250q0 -72 105 -72q152 0 257 52.5t191 175.5h-274l-45 182 q72 20 111.5 60t39.5 91q0 39 -34.5 61.5t-96.5 22.5q-156 0 -180 -137l-68 -383q-6 -33 -6 -53z" />
<glyph unicode="'" horiz-adv-x="440" d="M205 899l90 506h176l-90 -506h-176z" />
<glyph unicode="(" horiz-adv-x="634" d="M117 373q0 762 524 1186l145 -144q-231 -231 -327.5 -477t-96.5 -559q0 -289 140 -592l-199 -100q-186 330 -186 686z" />
<glyph unicode=")" horiz-adv-x="632" d="M-127 -170q231 231 327.5 477t96.5 559q0 289 -139 592l198 101q186 -330 187 -687q0 -762 -525 -1185z" />
<glyph unicode="*" horiz-adv-x="950" d="M195 1004l20 114h283l-113 248l111 57l114 -249l203 253l90 -69l-194 -240h282l-20 -114h-283l115 -242l-111 -57l-117 247l-204 -252l-90 70l188 234h-274z" />
<glyph unicode="+" horiz-adv-x="1050" d="M113 401v193h313v321h199v-321h313v-193h-313v-319h-199v319h-313z" />
<glyph unicode="," horiz-adv-x="555" d="M20 -215l146 215h-94l53 299h246l-56 -317l-204 -267z" />
<glyph unicode="-" horiz-adv-x="753" d="M135 473l37 205h508l-37 -205h-508z" />
<glyph unicode="." horiz-adv-x="567" d="M82 0l53 299h248l-53 -299h-248z" />
<glyph unicode="/" horiz-adv-x="948" d="M-25 -240l793 1624h231l-792 -1624h-232z" />
<glyph unicode="0" horiz-adv-x="1140" d="M94 262q0 39 8 84l113 641q33 188 147.5 272t354.5 84q176 0 276.5 -82.5t100.5 -220.5q0 -33 -7 -65l-112 -637q-33 -186 -138.5 -272t-361.5 -86q-381 -1 -381 282zM340 297q0 -57 35 -79.5t137 -22.5q117 0 163 39.5t64 138.5l103 579q6 37 6 56q0 61 -40 90.5 t-132 29.5q-113 0 -160 -39.5t-65 -138.5l-105 -588q-6 -36 -6 -65z" />
<glyph unicode="1" horiz-adv-x="778" d="M109 1104l421 219h226l-234 -1323h-246l185 1047l-268 -132z" />
<glyph unicode="2" horiz-adv-x="1030" d="M25 0l36 213l478 453q121 121 151.5 166t44.5 133l8 47q2 12 2 26q0 47 -41.5 67.5t-134.5 20.5q-158 0 -342 -45l-24 199q201 63 418 63q180 0 275 -70.5t95 -195.5q0 -33 -6 -65l-8 -47q-25 -141 -66 -213t-206 -238l-308 -299h455l-37 -215h-790z" />
<glyph unicode="3" horiz-adv-x="1005" d="M31 47l51 186q176 -49 301 -49q131 0 174 29t57 113l17 92q4 29 4 39q0 53 -33 77.5t-110 24.5h-281l37 209h276q80 0 117 34t49 105l21 115q4 25 4 35q0 49 -40 67.5t-136 18.5q-113 0 -281 -33l-20 188q168 45 356 45q373 0 373 -235q0 -27 -6 -61l-23 -129 q-8 -45 -14 -71t-19.5 -58.5t-33 -52t-51.5 -39t-75 -33.5q133 -43 134 -201q0 -33 -5 -57l-18 -105q-14 -86 -38.5 -140.5t-75 -98.5t-137.5 -63t-218 -19q-202 -1 -356 67z" />
<glyph unicode="4" horiz-adv-x="1146" d="M29 301l37 221l659 801h342l-145 -821h174l-29 -201h-180l-53 -301h-242l53 301h-616zM313 502h367l104 585z" />
<glyph unicode="5" horiz-adv-x="1017" d="M35 41l55 197q164 -45 313 -45q129 0 170 32.5t56 122.5l12 70q4 25 4 41q0 59 -44 82.5t-148 27.5q-92 4 -283 15l129 739h721l-37 -213h-477l-60 -338q78 -2 162 -10q287 -27 287 -260q0 -25 -8 -82l-13 -72q-25 -143 -66.5 -217t-139 -112.5t-277.5 -38.5 q-184 0 -356 61z" />
<glyph unicode="6" horiz-adv-x="1073" d="M94 254q0 45 10 106l95 535q47 260 160.5 354t388.5 94q158 0 301 -47l-45 -190q-127 31 -242 31q-176 0 -235.5 -42t-82.5 -177l-28 -164q119 33 254 32q291 0 291 -241q0 -45 -9 -92l-16 -95q-18 -100 -42 -161.5t-75 -115.5t-140 -77.5t-224 -23.5q-361 0 -361 274z M338 293q0 -55 34 -79t120 -24q100 0 142 32t56 114l21 119q4 33 4 41q0 80 -121 79q-111 0 -217 -43l-33 -184q-6 -32 -6 -55z" />
<glyph unicode="7" horiz-adv-x="931" d="M51 0l672 1108h-573l36 215h830l-37 -207l-666 -1116h-262z" />
<glyph unicode="8" horiz-adv-x="1110" d="M82 242q0 33 6 73l18 103q16 96 77 155.5t188 100.5q-143 100 -144 223q0 23 4 43l15 82q31 176 126 248.5t326 72.5q164 0 258.5 -69.5t94.5 -192.5q0 -25 -7 -59l-16 -92q-16 -98 -60 -150.5t-155 -105.5q162 -90 162 -215q0 -31 -4 -51l-17 -95q-33 -186 -131 -259.5 t-360 -73.5q-381 0 -381 262zM322 281q0 -53 39.5 -76t136.5 -23q115 0 162 32t61 112l10 57q4 25 4 43q0 45 -33.5 71.5t-138.5 73.5q-135 -49 -175 -82.5t-52 -103.5l-10 -59q-4 -25 -4 -45zM465 901q0 -43 29.5 -72.5t107.5 -64.5q100 39 141 77t52 99l14 82q4 25 4 33 q0 88 -145 88q-94 0 -134 -30t-53 -101l-12 -72q-4 -25 -4 -39z" />
<glyph unicode="9" horiz-adv-x="1071" d="M66 29l45 190q131 -33 247 -33q176 0 235.5 42t82.5 178l29 163q-119 -33 -254 -32q-291 0 -291 241q0 45 8 92l16 95q14 84 31.5 138t50.5 104t83 77t128 43t189 16q178 0 269 -74.5t91 -199.5q0 -45 -10 -106l-94 -535q-47 -260 -161 -354t-388 -94q-160 0 -307 49z M406 827q0 -80 120 -79q111 0 217 43l33 184q6 33 6 55q0 55 -33.5 79t-119.5 24q-100 0 -142.5 -32t-56.5 -114l-20 -119q-4 -33 -4 -41z" />
<glyph unicode=":" horiz-adv-x="573" d="M72 0l53 299h248l-54 -299h-247zM180 610l53 299h248l-53 -299h-248z" />
<glyph unicode=";" horiz-adv-x="573" d="M20 -215l146 215h-94l53 299h246l-56 -317l-204 -267zM180 610l53 299h248l-53 -299h-248z" />
<glyph unicode="&#x3c;" horiz-adv-x="1189" d="M102 434v131l883 453l76 -146l-735 -372l735 -373l-76 -145z" />
<glyph unicode="=" horiz-adv-x="1003" d="M113 233v166h809v-166h-809zM113 625v166h809v-166h-809z" />
<glyph unicode="&#x3e;" horiz-adv-x="1189" d="M129 127l735 373l-735 372l76 146l882 -453v-131l-882 -452z" />
<glyph unicode="?" horiz-adv-x="1007" d="M244 0l53 299h248l-53 -299h-248zM252 1384q178 41 371 41q203 0 293 -68.5t90 -205.5q0 -41 -11 -107q-27 -154 -64.5 -225t-152.5 -151l-284 -195l-123 186l247 175q78 59 97.5 89.5t34.5 110.5q8 57 8 72q0 55 -40 78.5t-149 23.5q-127 0 -293 -34z" />
<glyph unicode="@" horiz-adv-x="1511" d="M123 547q0 387 208 612t584 225q264 0 415 -135t151 -350q0 -223 -101.5 -353t-312.5 -130q-102 0 -149 59q-90 -59 -207 -59q-90 0 -136.5 54t-31.5 134l35 199q18 106 74.5 153.5t178.5 47.5q137 0 261 -64l-68 -387q25 -8 51 -8q123 0 182.5 98t59.5 252 q0 162 -108.5 252t-307.5 90q-287 0 -449.5 -184.5t-162.5 -491.5q0 -209 116.5 -320.5t356.5 -111.5q221 0 432 90l20 -139q-195 -100 -456 -100q-317 0 -476 153.5t-159 413.5zM690 616q-12 -72 66 -71q70 0 127 35l49 278q-61 16 -117 16q-80 0 -92 -73z" />
<glyph unicode="A" horiz-adv-x="1325" d="M-31 0l670 1364h344l205 -1364h-264l-37 291h-506l-137 -291h-275zM479 504h381l-74 657z" />
<glyph unicode="B" horiz-adv-x="1185" d="M61 0l240 1364h530q322 0 322 -219q0 -31 -6 -64l-27 -151q-16 -88 -61 -140.5t-144 -84.5q170 -53 170 -209q0 -29 -4 -54l-24 -139q-27 -152 -121 -227.5t-305 -75.5h-570zM350 205h264q96 0 138.5 27.5t56.5 105.5l20 115q2 12 2 30q0 106 -133 107h-278zM455 788h233 q156 0 178 130l23 129q4 25 4 32q0 80 -111 80h-6h-256z" />
<glyph unicode="C" horiz-adv-x="1062" d="M92 309q0 41 8 86l105 592q39 215 166 306t379 91q168 0 368 -53l-53 -217q-197 41 -340 41q-133 0 -192.5 -43t-81.5 -172l-91 -510q-8 -49 -8 -74q0 -78 47 -112.5t158 -34.5q164 0 344 35l8 -217q-170 -47 -395 -47q-211 0 -316.5 89.5t-105.5 239.5z" />
<glyph unicode="D" horiz-adv-x="1236" d="M61 0l242 1364h500q203 0 299 -91t96 -235q0 -43 -8 -86l-105 -592q-31 -176 -136 -268t-355 -92h-533zM354 223h242q127 0 177 47t71 160l90 512q6 33 6 62q0 70 -44 103.5t-151 33.5h-229z" />
<glyph unicode="E" horiz-adv-x="1093" d="M61 0l240 1364h838l-41 -223h-582l-57 -326h538l-39 -223h-538l-66 -369h582l-37 -223h-838z" />
<glyph unicode="F" horiz-adv-x="1062" d="M61 0l242 1364h840l-39 -223h-588l-63 -363h542l-39 -223h-542l-99 -555h-254z" />
<glyph unicode="G" horiz-adv-x="1208" d="M92 301q0 47 8 94l105 592q37 207 158.5 302t386.5 95q213 0 415 -65l-53 -217q-207 53 -389 53q-137 0 -193.5 -46t-78.5 -169l-91 -510q-8 -43 -8 -88q0 -68 44 -102.5t157 -34.5q121 0 227 22l74 404h240l-103 -574q-190 -78 -465 -77q-434 -1 -434 321z" />
<glyph unicode="H" horiz-adv-x="1308" d="M61 0l240 1364h254l-98 -563h493l99 563h254l-240 -1364h-254l100 578h-493l-101 -578h-254z" />
<glyph unicode="I" horiz-adv-x="581" d="M72 0l239 1364h254l-239 -1364h-254z" />
<glyph unicode="J" horiz-adv-x="581" d="M-152 -242q166 131 191 160q25 31 33 80l239 1366h254l-246 -1399q-12 -72 -35.5 -115t-90 -103t-218.5 -169z" />
<glyph unicode="K" horiz-adv-x="1218" d="M61 0l240 1364h254l-240 -1364h-254zM471 696l514 668h309l-542 -674l319 -690h-280z" />
<glyph unicode="L" horiz-adv-x="1032" d="M61 0l240 1364h254l-201 -1141h564l-39 -223h-818z" />
<glyph unicode="M" horiz-adv-x="1636" d="M35 0l311 1364h270l179 -924l516 924h278l-172 -1364h-254l119 877l-393 -699h-277l-131 701l-196 -879h-250z" />
<glyph unicode="N" horiz-adv-x="1390" d="M61 0l240 1364h317l338 -1038l183 1038h245l-239 -1364h-320l-338 1012l-178 -1012h-248z" />
<glyph unicode="O" horiz-adv-x="1273" d="M94 317q0 49 8 91l101 567q37 209 169 309t404 100q223 0 340 -100t117 -260q0 -35 -6 -72l-99 -557q-39 -217 -170 -316t-417 -99q-225 0 -336 90.5t-111 246.5zM352 350q0 -76 51.5 -111.5t178.5 -35.5q258 0 297 213l94 536q4 33 4 47q0 162 -227 162 q-260 0 -297 -209l-95 -534q-6 -37 -6 -68z" />
<glyph unicode="P" horiz-adv-x="1177" d="M61 0l240 1364h506q401 0 401 -293q0 -51 -8 -94l-31 -174q-20 -123 -63 -195.5t-144.5 -118t-271.5 -45.5h-297l-78 -444h-254zM432 664h275q111 0 153.5 35.5t59.5 125.5l24 140q6 35 6 57q0 59 -35.5 89t-119.5 30h-279z" />
<glyph unicode="Q" horiz-adv-x="1273" d="M94 317q0 49 8 91l101 567q37 209 169 309t404 100q223 0 340 -100t117 -260q0 -35 -6 -72l-99 -557q-39 -217 -170 -316t-417 -99q-225 0 -336 90.5t-111 246.5zM299 -326l37 197q317 -4 600 -74l-39 -200q-283 59 -598 77zM352 350q0 -76 51.5 -111.5t178.5 -35.5 q258 0 297 213l94 536q4 33 4 47q0 162 -227 162q-260 0 -297 -209l-95 -534q-6 -37 -6 -68z" />
<glyph unicode="R" horiz-adv-x="1327" d="M61 0l240 1364h514q408 0 408 -293q0 -37 -9 -84l-32 -184q-25 -135 -81.5 -207t-182.5 -111l260 -485h-283l-246 453h-256l-78 -453h-254zM434 672h285q111 0 155 36.5t60 129.5l22 127q6 35 7 57q0 66 -40 92.5t-128 26.5h-281z" />
<glyph unicode="S" horiz-adv-x="1087" d="M37 63l55 197q221 -66 371 -65q139 0 185 34.5t65 141.5q10 57 10 86q0 51 -41 74.5t-184 60.5q-172 43 -240 113.5t-68 185.5q0 49 15 135q39 217 137 287.5t365 70.5q205 0 380 -53l-43 -211q-199 47 -358 47q-133 0 -176 -28.5t-59 -128.5q-10 -57 -11 -86 q0 -49 42 -75t175 -61q182 -47 252 -109.5t70 -174.5q0 -43 -14 -133q-27 -150 -71 -227.5t-150.5 -120.5t-299.5 -43q-94 0 -210.5 22t-196.5 61z" />
<glyph unicode="T" horiz-adv-x="1114" d="M156 1141l39 223h1019l-40 -223h-381l-201 -1141h-254l201 1141h-383z" />
<glyph unicode="U" horiz-adv-x="1292" d="M115 322q0 37 6 73l170 969h254l-166 -946q-6 -37 -6 -68q0 -76 48 -111.5t169 -35.5q141 0 204.5 55t82.5 162l165 944h254l-170 -971q-35 -199 -157.5 -306t-407.5 -107q-221 0 -333.5 95t-112.5 247z" />
<glyph unicode="V" horiz-adv-x="1206" d="M176 1364h252l131 -1145l512 1145h270l-632 -1364h-369z" />
<glyph unicode="W" horiz-adv-x="1925" d="M184 1364h240l84 -1077l453 1077h311l74 -1088l440 1088h256l-569 -1364h-322l-78 1092l-452 -1092h-322z" />
<glyph unicode="X" horiz-adv-x="1261" d="M-27 0l551 709l-282 655h264l201 -479l354 479h289l-537 -686l307 -678h-268l-215 487l-373 -487h-291z" />
<glyph unicode="Y" horiz-adv-x="1132" d="M156 1364h252l182 -690l409 690h287l-612 -969l-70 -395h-254l72 408z" />
<glyph unicode="Z" horiz-adv-x="1169" d="M92 209l766 938h-633l39 217h891l-2 -211l-770 -940h623l-39 -213h-871z" />
<glyph unicode="[" horiz-adv-x="665" d="M37 -258l330 1876h432l-35 -197h-186l-261 -1482h185l-35 -197h-430z" />
<glyph unicode="\" horiz-adv-x="954" d="M272 1384h217l220 -1624h-217z" />
<glyph unicode="]" horiz-adv-x="665" d="M-78 -258l35 197h186l260 1482h-184l35 197h430l-330 -1876h-432z" />
<glyph unicode="^" horiz-adv-x="968" d="M164 864l389 541h178l227 -580l-165 -63l-172 452l-316 -454z" />
<glyph unicode="_" horiz-adv-x="899" d="M-2 -20h903v-84h-903v84z" />
<glyph unicode="`" horiz-adv-x="643" d="M256 1311l111 131q94 -94 245 -211l-96 -119q-141 90 -260 199z" />
<glyph unicode="a" horiz-adv-x="1056" d="M66 207q0 43 10 104l51 291q20 115 44 181.5t76 126t143 84t233 24.5q72 0 185.5 -19.5t190.5 -44.5l-168 -954h-206l-2 111q-145 -131 -326 -131q-231 0 -231 227zM311 240q0 -53 68 -54q55 0 130 44t136 106l82 461q-80 14 -141 14q-111 0 -152 -44t-59 -153l-62 -350 q-2 -12 -2 -24z" />
<glyph unicode="b" horiz-adv-x="1060" d="M59 45l240 1360l252 35l-90 -510q158 88 315 88q231 0 232 -227q0 -43 -11 -105l-51 -291q-41 -233 -147.5 -324t-366.5 -91q-70 0 -185.5 19t-187.5 46zM332 201q78 -14 145 -15q113 0 158 45t63 152l62 350q2 12 2 25q0 53 -70 53q-127 0 -268 -92z" />
<glyph unicode="c" horiz-adv-x="819" d="M53 227q0 37 10 99l60 336q37 203 141.5 279.5t317.5 76.5q133 0 237 -41l-55 -197q-90 29 -186 29q-106 0 -151.5 -38t-64.5 -142l-59 -338q-4 -25 -4 -35q0 -66 76 -66q111 0 293 64l24 -199q-160 -76 -338 -75q-301 -1 -301 247z" />
<glyph unicode="d" horiz-adv-x="1081" d="M66 207q0 43 10 104l51 291q12 76 24.5 121t34 99.5t54 85t82 58t122 40t168.5 12.5q80 0 164 -19l72 406l252 35l-254 -1440h-209v111q-145 -131 -340 -131q-231 0 -231 227zM311 240q0 -53 70 -54q72 0 152.5 47.5t125.5 102.5l82 463q-53 12 -145 12q-113 0 -158 -45 t-63 -150l-62 -352q-2 -12 -2 -24z" />
<glyph unicode="e" horiz-adv-x="937" d="M70 336l53 303q35 188 137 283.5t318 95.5q143 0 231 -69.5t88 -190.5q0 -133 -91 -217t-298 -148q-115 -35 -193 -55l-8 -47q-4 -23 -4 -41q0 -24 7 -39q13 -27 75 -27q158 0 383 115l53 -188q-94 -57 -222 -94t-249 -37q-186 0 -249 93q-42 62 -41 159q0 48 10 104z M354 559l150 45q158 49 158 144q0 35 -28 56t-77 21q-156 0 -184 -163z" />
<glyph unicode="f" horiz-adv-x="727" d="M-14 -276q109 106 133 251l145 822h-153l34 200h154l27 154q29 162 104.5 228.5t239.5 66.5q127 0 239 -43l-49 -191q-100 29 -170 29q-57 0 -82.5 -19.5t-36.5 -70.5l-26 -154h270l-53 -200h-252l-150 -844q-20 -121 -69 -206t-148 -171z" />
<glyph unicode="g" horiz-adv-x="1071" d="M2 -346l47 182q229 -68 393 -67q74 0 99.5 24.5t38.5 91.5l38 219q-152 -84 -315 -84q-231 0 -231 228q0 43 10 104l45 250q43 244 138 330t356 86q203 0 391 -76l-193 -1094q-29 -158 -111.5 -215t-258.5 -57q-209 0 -447 78zM317 281q0 -53 70 -54q127 0 268 92l86 478 q-78 14 -145 14q-113 0 -158 -45t-63 -152l-56 -309q-2 -12 -2 -24z" />
<glyph unicode="h" d="M51 0l248 1405l252 35l-94 -535q211 113 379 113q182 0 182 -199q0 -43 -10 -98l-127 -721h-246l125 711q2 10 2 26q0 43 -51 43q-47 0 -134.5 -34.5t-162.5 -81.5l-117 -664h-246z" />
<glyph unicode="i" horiz-adv-x="532" d="M51 0l172 979l252 35l-178 -1014h-246zM250 1124l49 281l252 35l-49 -279z" />
<glyph unicode="j" horiz-adv-x="522" d="M-154 -254l55 43l44 35l31 26q19 16 25.5 24.5t17 21t14.5 23.5t7 26l7 35l176 999l252 35l-186 -1061q-18 -106 -72.5 -176t-249.5 -201zM250 1124l49 281l252 35l-49 -279z" />
<glyph unicode="k" horiz-adv-x="1017" d="M51 0l248 1405l252 35l-254 -1440h-246zM422 504l364 514l263 -43l-365 -473l207 -502h-260z" />
<glyph unicode="l" horiz-adv-x="532" d="M51 0l248 1405l252 35l-254 -1440h-246z" />
<glyph unicode="m" horiz-adv-x="1689" d="M51 0l172 977l213 37l-4 -121q229 125 404 125q143 0 174 -127q219 127 409 127q182 0 183 -199q0 -47 -11 -98l-127 -721h-245l124 711q2 10 3 26q0 43 -52 43q-47 0 -134 -35.5t-163 -80.5l-116 -664h-246l125 711q2 10 2 26q0 43 -51 43q-47 0 -134.5 -35.5 t-162.5 -80.5l-117 -664h-246z" />
<glyph unicode="n" d="M51 0l172 977l213 37l-4 -121q229 125 404 125q182 0 182 -199q0 -43 -10 -98l-127 -721h-246l125 711q2 10 2 26q0 43 -51 43q-47 0 -134.5 -35.5t-162.5 -80.5l-117 -664h-246z" />
<glyph unicode="o" horiz-adv-x="1067" d="M68 305q0 39 6 80l43 240q37 197 149.5 295t349.5 98q184 0 280.5 -90t96.5 -230q0 -35 -6 -71l-47 -267q-33 -190 -143.5 -285t-358.5 -95q-184 0 -277 92t-93 233zM311 315q0 -129 164 -129q188 0 219 174l49 279q4 25 5 45q0 127 -164 127q-188 0 -222 -182l-47 -269 q-4 -25 -4 -45z" />
<glyph unicode="p" horiz-adv-x="1081" d="M-27 -438l254 1435h209v-110q145 131 340 131q231 0 232 -227q0 -43 -11 -105l-51 -291q-12 -76 -24.5 -121t-34 -99t-54 -85t-82 -58.5t-122 -39.5t-168.5 -12q-80 0 -164 18l-72 -401zM332 199q53 -12 145 -13q113 0 158 45t63 150l62 352q2 12 2 25q0 53 -70 53 q-72 0 -152.5 -47t-125.5 -102z" />
<glyph unicode="q" horiz-adv-x="1081" d="M66 207q0 43 10 104l51 291q41 233 147.5 324.5t366.5 91.5q70 0 185.5 -19.5t187.5 -46.5l-240 -1355l-252 -35l90 506q-158 -88 -315 -88q-231 0 -231 227zM311 240q0 -53 70 -54q127 0 268 93l92 518q-78 14 -145 14q-113 0 -158 -45t-63 -152l-62 -350q-2 -12 -2 -24 z" />
<glyph unicode="r" horiz-adv-x="665" d="M51 0l172 977l215 37l-10 -146q129 94 256 148l18 -223q-113 -61 -296 -179l-109 -614h-246z" />
<glyph unicode="s" horiz-adv-x="847" d="M29 43l47 186q150 -51 278 -51q80 0 106.5 17.5t37.5 70.5q2 12 2 23q0 33 -19 54q-25 28 -131 81q-152 76 -189 143q-25 44 -25 110q0 36 7 79q27 152 105 207t272 55q150 0 297 -49l-41 -189q-131 39 -258 39q-78 0 -104.5 -12t-34.5 -64q-2 -15 -3 -26q0 -29 14 -45 q19 -23 104 -70q176 -96 220 -151q30 -38 30 -104q0 -30 -7 -66q-31 -172 -110.5 -236.5t-284.5 -64.5q-168 0 -313 63z" />
<glyph unicode="t" horiz-adv-x="716" d="M63 801l37 196h158l45 258l252 35l-51 -293h254l-39 -196h-250l-100 -570q-1 -7 -2 -13q0 -38 43 -38q57 0 172 45l53 -168q-145 -78 -313 -77q-115 0 -167 65q-39 48 -39 122q0 26 5 54l102 580h-160z" />
<glyph unicode="u" d="M80 178q0 43 10 98l123 703l252 35l-127 -727q-2 -14 -2 -27q0 -43 51 -43q47 0 134 36t163 81l113 645l252 35l-179 -1014h-208l4 104q-229 -125 -404 -124q-182 -1 -182 198z" />
<glyph unicode="v" horiz-adv-x="974" d="M109 973l243 35l94 -791l236 531q29 68 29 137q0 49 -15 94l240 35q18 -59 18 -125q0 -106 -34 -178l-330 -711h-338z" />
<glyph unicode="w" horiz-adv-x="1435" d="M113 969l233 37q48 -226 48 -519q0 -110 -7 -229l283 547l-35 164l219 35l152 -766l137 487q18 63 18 127q0 57 -16 117l231 45q20 -82 21 -158q0 -92 -54 -246l-208 -610h-299l-103 498l-262 -498h-285q-2 346 -15 549t-58 420z" />
<glyph unicode="x" horiz-adv-x="970" d="M-43 0l401 502l-215 469l230 43l149 -355l246 338h264l-407 -526l219 -471h-248l-137 289l-240 -289h-262z" />
<glyph unicode="y" horiz-adv-x="974" d="M18 -246q125 43 190.5 96.5t127.5 149.5h-84l-143 973l243 35l94 -791l236 531q29 68 29 137q0 49 -15 94l240 35q18 -59 18 -125q0 -100 -34 -178l-330 -711q-92 -182 -191.5 -272t-312.5 -164z" />
<glyph unicode="z" horiz-adv-x="944" d="M76 190l520 613h-424l29 194h682l-2 -188l-523 -612h430l-32 -197h-672z" />
<glyph unicode="{" horiz-adv-x="694" d="M104 567l37 193h43q90 0 107 100l86 488q27 147 95.5 208.5t209.5 61.5h174l-35 -201h-104q-43 0 -65.5 -17.5t-30.5 -62.5l-76 -430q-20 -111 -64.5 -171t-156.5 -72q104 -12 129.5 -74t5.5 -170l-76 -432q-2 -12 -2 -25q0 -53 74 -53h100l-35 -201h-176q-115 0 -166 43 t-51 137q0 37 10 103l86 483q16 92 -71 92h-48z" />
<glyph unicode="|" horiz-adv-x="534" d="M225 -430v2048h166v-2048h-166z" />
<glyph unicode="}" horiz-adv-x="696" d="M-102 -291l34 201h105q43 0 65.5 17.5t30.5 62.5l76 430q20 111 64 171t157 73q-104 12 -130 73.5t-5 169.5l76 432q2 12 2 25q0 53 -74 53h-100l34 201h177q115 0 166 -43t51 -137q0 -37 -11 -103l-86 -483q-16 -92 72 -92h47l-37 -193h-43q-90 0 -106 -100l-86 -487 q-27 -147 -95.5 -209t-209.5 -62h-174z" />
<glyph unicode="~" horiz-adv-x="985" d="M78 473q61 129 124.5 189.5t164.5 60.5q59 0 163.5 -70.5t151.5 -70.5q31 0 51.5 7t41 34.5t26.5 38t33 61.5l122 -78q-49 -119 -112.5 -184.5t-165.5 -65.5q-76 0 -178.5 70t-141.5 70q-53 0 -85.5 -33t-71.5 -107z" />
<glyph unicode="&#xa1;" horiz-adv-x="571" d="M0 -403l106 608l115 352h141l-10 -352l-106 -608h-246zM195 698l53 299h248l-54 -299h-247z" />
<glyph unicode="&#xa2;" horiz-adv-x="880" d="M100 412q0 37 11 98l59 336q31 172 109.5 252t228.5 96l35 190h166l-33 -184q119 -10 190 -39l-55 -196q-90 29 -186 28q-106 0 -151.5 -37.5t-63.5 -142.5l-60 -338q-4 -25 -4 -35q0 -66 76 -65q111 0 293 63l24 -198q-113 -55 -245 -70l-33 -190h-166l33 188 q-228 27 -228 244z" />
<glyph unicode="&#xa3;" horiz-adv-x="1095" d="M57 0l35 207q268 150 268 356q0 18 -2 29h-223l25 180h162q-43 92 -43 213q0 180 104 269t328 89q172 0 344 -47l-37 -192q-145 35 -295 35q-113 0 -158 -36t-45 -136q0 -88 39 -195h369l-29 -180h-319q4 -29 4 -51q0 -190 -189 -336h555l-37 -205h-856z" />
<glyph unicode="&#xa4;" horiz-adv-x="1126" d="M115 291l112 123q-12 37 -12 78q0 43 4 65l47 268q18 92 53 138l-100 122l154 132l112 -140q78 23 179 23q86 0 149 -23l125 137l149 -133l-126 -139q10 -29 10 -63q0 -18 -6 -56l-50 -276q-14 -86 -45 -131l107 -129l-154 -131l-114 141q-78 -25 -191 -25q-80 0 -135 19 l-119 -133zM428 532q0 -43 28.5 -57t96.5 -14q76 0 110.5 20.5t47.5 85.5l41 232q2 14 2 35q0 45 -31 61t-92 16q-74 0 -111 -23.5t-49 -88.5l-39 -230q-4 -29 -4 -37z" />
<glyph unicode="&#xa5;" horiz-adv-x="1134" d="M63 252l29 158h324l-54 194h-237l29 158h163l-155 561h252l172 -649l383 649h286l-354 -561h184l-28 -158h-256l-123 -194h346l-29 -158h-352l-43 -252h-254l43 252h-326z" />
<glyph unicode="&#xa6;" horiz-adv-x="534" d="M225 420h166v-850h-166v850zM225 768v850h166v-850h-166z" />
<glyph unicode="&#xa7;" horiz-adv-x="1110" d="M195 803q0 213 24 344q20 123 92 180t236 57q176 0 325 -57l-41 -164q-168 47 -288 47q-57 0 -85 -22.5t-38 -75.5q-23 -121 -23 -309q0 -334 72 -770l-195 -33q-79 428 -79 803zM252 -326l41 164q168 -47 289 -47q57 0 84.5 22.5t38.5 75.5q23 121 22 310q0 334 -72 770 l195 32q80 -428 80 -802q0 -213 -25 -344q-20 -123 -92 -180.5t-235 -57.5q-176 0 -326 57z" />
<glyph unicode="&#xa8;" horiz-adv-x="864" d="M246 1141l39 215l200 8l-36 -215zM635 1141l39 215l200 8l-36 -215z" />
<glyph unicode="&#xa9;" horiz-adv-x="1611" d="M147 682q0 299 194 500.5t507 201.5t505.5 -201.5t192.5 -500.5q0 -297 -192.5 -499.5t-505.5 -202.5t-507 202.5t-194 499.5zM315 682q0 -231 146.5 -386t386.5 -155q238 0 385 155t147 386q0 233 -147.5 388t-384.5 155q-240 0 -386.5 -155t-146.5 -388zM578 571v228 q0 125 64.5 183t219.5 58q102 0 199 -34l-27 -138q-84 23 -160 23q-70 0 -94 -20.5t-24 -75.5v-220q0 -55 24.5 -75.5t93.5 -20.5q76 0 160 23l27 -137q-96 -35 -199 -35q-156 0 -220 58t-64 183z" />
<glyph unicode="&#xaa;" horiz-adv-x="782" d="M195 913q0 31 6 68l32 182q16 96 40 146.5t89.5 83t182.5 32.5q123 0 237 -41l-104 -600h-131l-2 70q-90 -84 -205 -84q-145 0 -145 143zM350 952q-10 -51 41 -51q74 0 168 94l53 291q-57 8 -90 8q-70 0 -95.5 -27.5t-37.5 -95.5z" />
<glyph unicode="&#xab;" horiz-adv-x="1024" d="M74 500l317 393l152 -127l-230 -268l131 -303l-178 -89zM518 500l318 393l151 -127l-229 -268l131 -303l-178 -89z" />
<glyph unicode="&#xac;" horiz-adv-x="1101" d="M123 510v192h825v-522h-203v330h-622z" />
<glyph unicode="&#xad;" horiz-adv-x="753" d="M135 473l37 205h508l-37 -205h-508z" />
<glyph unicode="&#xae;" horiz-adv-x="915" d="M205 1055q0 160 100.5 265t263.5 105q166 0 266.5 -105.5t100.5 -264.5q0 -158 -101.5 -265.5t-265 -107.5t-264 107.5t-100.5 265.5zM305 1055q0 -119 68.5 -197t195.5 -78t197 78t70 197t-70 196.5t-197 77.5t-195.5 -77.5t-68.5 -196.5zM453 895v336h135 q106 0 106 -94v-35q0 -61 -49 -82l86 -125h-76l-80 113h-57v-113h-65zM518 1067h66q45 0 45 37v31q0 35 -47 34h-64v-102z" />
<glyph unicode="&#xaf;" horiz-adv-x="757" d="M236 1122l28 164h504l-29 -164h-503z" />
<glyph unicode="&#xb0;" horiz-adv-x="724" d="M195 1030q0 139 78.5 226t228.5 87q104 0 163.5 -58t59.5 -148q0 -133 -81 -222.5t-228 -89.5q-102 0 -161.5 57.5t-59.5 147.5zM326 1051q0 -111 108 -111q76 0 117 52t41 126q0 111 -107 111q-74 0 -116.5 -49t-42.5 -129z" />
<glyph unicode="&#xb1;" horiz-adv-x="1081" d="M133 0v182h825v-182h-825zM133 625v192h313v322h199v-322h313v-192h-313v-320h-199v320h-313z" />
<glyph unicode="&#xb2;" horiz-adv-x="825" d="M160 502l22 137l221 203q111 102 145 144t42 85l2 12q4 29 4 39q0 27 -16.5 41.5t-57.5 16.5q-111 0 -219 -29l-27 152q135 41 256 40q123 0 185.5 -54t62.5 -142q0 -29 -4 -53l-6 -35q-10 -53 -32.5 -94t-82.5 -101l-206 -209h264l-25 -153h-528z" />
<glyph unicode="&#xb3;" horiz-adv-x="794" d="M164 526l33 133q119 -29 215 -28q57 0 80.5 15.5t29.5 55.5l15 74q2 12 2 21q0 49 -74 49h-201l25 137h188q80 0 94 74l11 63q2 12 2 27q0 29 -21.5 40t-77.5 11q-104 0 -176 -14l-8 135q104 25 217 24q131 0 188.5 -38.5t57.5 -118.5q0 -12 -4 -49l-10 -62 q-10 -68 -36 -99.5t-89 -55.5q86 -33 86 -117q0 -23 -6 -53l-9 -56q-23 -121 -82 -165t-213 -44q-114 0 -237 41z" />
<glyph unicode="&#xb4;" horiz-adv-x="620" d="M236 1245q150 78 323 199l82 -148q-135 -92 -330 -184z" />
<glyph unicode="&#xb5;" d="M-31 -403l244 1382l252 35l-127 -727q-2 -14 -2 -27q0 -43 51 -43q47 0 134 36t163 81l113 645l252 35l-179 -1014h-208l4 104q-213 -115 -383 -124l-68 -383h-246z" />
<glyph unicode="&#xb6;" horiz-adv-x="1071" d="M172 831q0 242 146.5 387.5t383.5 145.5l-157 -893q-170 0 -271.5 100t-101.5 260zM324 -287q201 166 242.5 208t51.5 102l238 1341h191l-238 -1341q-23 -127 -73 -184.5t-312 -262.5z" />
<glyph unicode="&#xb7;" horiz-adv-x="557" d="M154 532l53 299h248l-54 -299h-247z" />
<glyph unicode="&#xb8;" horiz-adv-x="591" d="M-20 -379l30 98q66 -20 119 -20q117 0 117 70q0 41 -60 41q-55 0 -100 -5l-29 33l74 193h111l-49 -144q37 6 65 7q57 0 88 -34t31 -81q0 -188 -250 -189q-69 0 -147 31z" />
<glyph unicode="&#xb9;" horiz-adv-x="712" d="M209 1178l299 145h141l-145 -825h-180l110 618l-172 -72z" />
<glyph unicode="&#xba;" horiz-adv-x="788" d="M195 977q0 23 6 55l24 146q20 125 92 186t224 61q117 0 177 -56t60 -144q0 -16 -4 -45l-29 -168q-23 -121 -92 -181.5t-225 -60.5q-119 0 -176 57.5t-57 149.5zM350 1012q-20 -111 103 -111q119 0 137 111l31 174q2 12 2 28q0 80 -103 80q-119 0 -139 -114z" />
<glyph unicode="&#xbb;" horiz-adv-x="1024" d="M49 233l230 269l-132 303l179 88l192 -393l-317 -394zM494 233l229 269l-131 303l178 88l193 -393l-318 -394z" />
<glyph unicode="&#xbc;" horiz-adv-x="1759" d="M219 1178l299 145h141l-145 -825h-180l110 618l-172 -72zM365 -20l862 1431l116 -70l-862 -1435zM909 166l15 133l391 526h252l-92 -518h118l-22 -141h-121l-29 -166h-170l29 166h-371zM1104 307h201l67 381z" />
<glyph unicode="&#xbd;" horiz-adv-x="1808" d="M219 1178l299 145h141l-145 -825h-180l110 618l-172 -72zM358 -20l863 1431l116 -70l-862 -1435zM1030 0l23 137l221 203q111 102 144.5 144t41.5 85l2 13q4 29 4 39q0 27 -16 41t-57 16q-111 0 -219 -29l-27 152q135 41 256 41q123 0 185.5 -54.5t62.5 -142.5 q0 -29 -4 -53l-7 -35q-10 -53 -32.5 -94t-81.5 -101l-207 -208h264l-24 -154h-529z" />
<glyph unicode="&#xbe;" horiz-adv-x="1826" d="M154 526l32 133q119 -29 215 -28q59 0 82 13t29 54l14 80q2 10 2 21q0 47 -73 47h-201l25 137h188q80 0 94 74l12 69q2 10 2 23q0 29 -22.5 39t-77.5 10q-92 0 -176 -14l-8 135q92 25 217 24q131 0 188.5 -36.5t57.5 -116.5q0 -27 -4 -51l-13 -70q-12 -72 -35.5 -101.5 t-87.5 -47.5q88 -33 88 -115q0 -12 -6 -49l-12 -70q-23 -119 -80 -160t-213 -41q-114 0 -237 41zM432 -20l862 1431l117 -70l-862 -1435zM977 166l14 133l391 526h252l-92 -518h119l-23 -141h-120l-29 -166h-170l29 166h-371zM1171 307h201l68 381z" />
<glyph unicode="&#xbf;" horiz-adv-x="1007" d="M41 -150q0 41 10 107q27 154 65 225.5t152 151.5l285 194l123 -186l-248 -174q-78 -59 -97.5 -90t-33.5 -111q-8 -57 -8 -71q0 -55 40 -79t148 -24q127 0 293 35l25 -211q-178 -41 -371 -41q-203 0 -293 68.5t-90 205.5zM502 698l53 299h248l-53 -299h-248z" />
<glyph unicode="&#xc0;" horiz-adv-x="1325" d="M-31 0l670 1364h344l205 -1364h-264l-37 291h-506l-137 -291h-275zM479 504h381l-74 657zM590 1630l108 131q80 -78 224 -184l-95 -121q-112 65 -237 174z" />
<glyph unicode="&#xc1;" horiz-adv-x="1325" d="M-31 0l670 1364h344l205 -1364h-264l-37 291h-506l-137 -291h-275zM479 504h381l-74 657zM737 1587q162 94 273 174l84 -147q-135 -94 -281 -160z" />
<glyph unicode="&#xc2;" horiz-adv-x="1325" d="M-31 0l670 1364h344l205 -1364h-264l-37 291h-506l-137 -291h-275zM479 504h381l-74 657zM588 1577q154 88 280 176q80 -82 224 -186l-80 -111q-84 41 -174 107q-90 -63 -181 -107z" />
<glyph unicode="&#xc3;" horiz-adv-x="1325" d="M-31 0l670 1364h344l205 -1364h-264l-37 291h-506l-137 -291h-275zM479 504h381l-74 657zM518 1556q84 158 221 158q51 0 124 -44t104 -44q57 0 96 76l104 -57q-39 -84 -88 -128t-131 -44q-57 0 -122.5 43t-98.5 43q-47 0 -119 -86z" />
<glyph unicode="&#xc4;" horiz-adv-x="1327" d="M-31 0l670 1364h344l205 -1364h-264l-37 291h-506l-137 -291h-275zM479 504h381l-74 657zM520 1493l35 199h207l-35 -199h-207zM948 1493l35 199h207l-35 -199h-207z" />
<glyph unicode="&#xc5;" horiz-adv-x="1325" d="M-31 0l670 1364h344l205 -1364h-264l-37 291h-506l-137 -291h-275zM479 504h381l-74 657zM680 1583q0 90 51 140.5t146 50.5q68 0 107.5 -36t39.5 -89q0 -86 -49 -141.5t-152 -55.5q-63 0 -103 37t-40 94zM782 1593q0 -53 56 -53q82 0 82 92q0 53 -56 54q-37 0 -59.5 -25 t-22.5 -68z" />
<glyph unicode="&#xc6;" horiz-adv-x="1761" d="M-31 0l670 1364h1167l-41 -223h-749l49 -326h600l-39 -223h-528l55 -369h451l-37 -223h-643l-37 291h-506l-137 -291h-275zM479 504h381l-74 657z" />
<glyph unicode="&#xc7;" horiz-adv-x="1069" d="M92 303q0 41 8 88l107 596q37 209 166 303t377 94q172 0 374 -53l-57 -219q-207 43 -342 43q-129 0 -190.5 -49t-81.5 -172l-91 -506q-6 -37 -6 -70q0 -80 47.5 -113.5t153.5 -33.5q164 0 344 35l10 -217q-162 -43 -352 -47l-33 -95q39 6 68 7q57 0 87 -33t30 -82 q0 -188 -250 -189q-68 0 -148 31l31 98q70 -20 121 -20q115 0 115 70q0 41 -54 41q-59 0 -106 -5l-27 33l53 146q-178 14 -266 99t-88 220z" />
<glyph unicode="&#xc8;" horiz-adv-x="1093" d="M61 0l240 1364h838l-41 -223h-582l-57 -326h538l-39 -223h-538l-66 -369h582l-37 -223h-838zM528 1630l109 131q80 -78 223 -184l-94 -121q-113 65 -238 174z" />
<glyph unicode="&#xc9;" horiz-adv-x="1093" d="M61 0l240 1364h838l-41 -223h-582l-57 -326h538l-39 -223h-538l-66 -369h582l-37 -223h-838zM596 1587q162 94 272 174l84 -147q-135 -94 -280 -160z" />
<glyph unicode="&#xca;" horiz-adv-x="1093" d="M61 0l240 1364h838l-41 -223h-582l-57 -326h538l-39 -223h-538l-66 -369h582l-37 -223h-838zM500 1577q154 88 280 176q80 -82 224 -186l-80 -111q-84 41 -174 107q-90 -63 -181 -107z" />
<glyph unicode="&#xcb;" horiz-adv-x="1093" d="M61 0l240 1364h838l-41 -223h-582l-57 -326h538l-39 -223h-538l-66 -369h582l-37 -223h-838zM428 1493l35 199h207l-35 -199h-207zM856 1493l35 199h207l-35 -199h-207z" />
<glyph unicode="&#xcc;" horiz-adv-x="581" d="M72 0l239 1364h254l-239 -1364h-254zM231 1630l109 131q80 -78 223 -184l-94 -121q-113 65 -238 174z" />
<glyph unicode="&#xcd;" horiz-adv-x="581" d="M72 0l239 1364h254l-239 -1364h-254zM371 1587q162 94 272 174l84 -147q-135 -94 -281 -160z" />
<glyph unicode="&#xce;" horiz-adv-x="581" d="M72 0l239 1364h254l-239 -1364h-254zM213 1577q154 88 281 176q80 -82 223 -186l-80 -111q-84 41 -174 107q-90 -63 -180 -107z" />
<glyph unicode="&#xcf;" horiz-adv-x="581" d="M72 0l239 1364h254l-239 -1364h-254zM154 1493l34 199h207l-35 -199h-206zM582 1493l34 199h207l-35 -199h-206z" />
<glyph unicode="&#xd0;" horiz-adv-x="1308" d="M102 588l35 203h135l103 573h499q203 0 299.5 -91t96.5 -235q0 -43 -8 -86l-105 -592q-31 -176 -136.5 -268t-354.5 -92h-533l105 588h-136zM426 223h242q127 0 177 47t70 160l91 512q6 33 6 62q0 70 -44 103.5t-151 33.5h-229l-62 -350h224l-35 -203h-226z" />
<glyph unicode="&#xd1;" horiz-adv-x="1390" d="M61 0l240 1364h317l338 -1038l183 1038h245l-239 -1364h-320l-338 1012l-178 -1012h-248zM561 1556q84 158 221 158q51 0 124 -44t104 -44q57 0 96 76l104 -57q-39 -84 -88 -128t-131 -44q-57 0 -122.5 43t-98.5 43q-47 0 -119 -86z" />
<glyph unicode="&#xd2;" horiz-adv-x="1273" d="M94 317q0 49 8 91l101 567q37 209 169 309t404 100q223 0 340 -100t117 -260q0 -35 -6 -72l-99 -557q-39 -217 -170 -316t-417 -99q-225 0 -336 90.5t-111 246.5zM352 350q0 -76 51.5 -111.5t178.5 -35.5q258 0 297 213l94 536q4 33 4 47q0 162 -227 162 q-260 0 -297 -209l-95 -534q-6 -37 -6 -68zM553 1630l109 131q80 -78 223 -184l-94 -121q-113 65 -238 174z" />
<glyph unicode="&#xd3;" horiz-adv-x="1273" d="M94 317q0 49 8 91l101 567q37 209 169 309t404 100q223 0 340 -100t117 -260q0 -35 -6 -72l-99 -557q-39 -217 -170 -316t-417 -99q-225 0 -336 90.5t-111 246.5zM352 350q0 -76 51.5 -111.5t178.5 -35.5q258 0 297 213l94 536q4 33 4 47q0 162 -227 162 q-260 0 -297 -209l-95 -534q-6 -37 -6 -68zM678 1587q162 94 272 174l84 -147q-135 -94 -280 -160z" />
<glyph unicode="&#xd4;" horiz-adv-x="1273" d="M94 317q0 49 8 91l101 567q37 209 169 309t404 100q223 0 340 -100t117 -260q0 -35 -6 -72l-99 -557q-39 -217 -170 -316t-417 -99q-225 0 -336 90.5t-111 246.5zM352 350q0 -76 51.5 -111.5t178.5 -35.5q258 0 297 213l94 536q4 33 4 47q0 162 -227 162 q-260 0 -297 -209l-95 -534q-6 -37 -6 -68zM557 1577q154 88 281 176q80 -82 223 -186l-80 -111q-84 41 -174 107q-90 -63 -180 -107z" />
<glyph unicode="&#xd5;" horiz-adv-x="1273" d="M94 317q0 49 8 91l101 567q37 209 169 309t404 100q223 0 340 -100t117 -260q0 -35 -6 -72l-99 -557q-39 -217 -170 -316t-417 -99q-225 0 -336 90.5t-111 246.5zM352 350q0 -76 51.5 -111.5t178.5 -35.5q258 0 297 213l94 536q4 33 4 47q0 162 -227 162 q-260 0 -297 -209l-95 -534q-6 -37 -6 -68zM471 1556q84 158 221 158q51 0 124 -44t104 -44q57 0 96 76l104 -57q-39 -84 -88 -128t-131 -44q-57 0 -122.5 43t-98.5 43q-47 0 -119 -86z" />
<glyph unicode="&#xd6;" horiz-adv-x="1273" d="M94 317q0 49 8 91l101 567q37 209 169 309t404 100q223 0 340 -100t117 -260q0 -35 -6 -72l-99 -557q-39 -217 -170 -316t-417 -99q-225 0 -336 90.5t-111 246.5zM352 350q0 -76 51.5 -111.5t178.5 -35.5q258 0 297 213l94 536q4 33 4 47q0 162 -227 162 q-260 0 -297 -209l-95 -534q-6 -37 -6 -68zM496 1493l34 199h207l-35 -199h-206zM924 1493l34 199h207l-35 -199h-206z" />
<glyph unicode="&#xd7;" horiz-adv-x="1007" d="M131 250l238 242l-238 239l139 141l240 -239l238 239l139 -141l-238 -239l238 -242l-139 -141l-238 241l-240 -241z" />
<glyph unicode="&#xd8;" horiz-adv-x="1273" d="M29 -55l131 170q-66 80 -66 202q0 49 8 91l101 567q37 209 169 309t404 100q184 0 303 -75l138 178l88 -68l-142 -184q70 -88 70 -211q0 -35 -6 -72l-99 -557q-39 -217 -170 -316t-417 -99q-186 0 -295 63l-127 -166zM352 365l578 749q-53 47 -180 47q-260 0 -297 -209 l-95 -534q-6 -30 -6 -53zM399 242q51 -39 183 -39q258 0 297 213l94 536q4 29 4 41z" />
<glyph unicode="&#xd9;" horiz-adv-x="1292" d="M115 322q0 37 6 73l170 969h254l-166 -946q-6 -37 -6 -68q0 -76 48 -111.5t169 -35.5q141 0 204.5 55t82.5 162l165 944h254l-170 -971q-35 -199 -157.5 -306t-407.5 -107q-221 0 -333.5 95t-112.5 247zM608 1630l109 131q80 -78 223 -184l-94 -121q-113 65 -238 174z " />
<glyph unicode="&#xda;" horiz-adv-x="1292" d="M115 322q0 37 6 73l170 969h254l-166 -946q-6 -37 -6 -68q0 -76 48 -111.5t169 -35.5q141 0 204.5 55t82.5 162l165 944h254l-170 -971q-35 -199 -157.5 -306t-407.5 -107q-221 0 -333.5 95t-112.5 247zM676 1587q162 94 272 174l84 -147q-135 -94 -280 -160z" />
<glyph unicode="&#xdb;" horiz-adv-x="1292" d="M115 322q0 37 6 73l170 969h254l-166 -946q-6 -37 -6 -68q0 -76 48 -111.5t169 -35.5q141 0 204.5 55t82.5 162l165 944h254l-170 -971q-35 -199 -157.5 -306t-407.5 -107q-221 0 -333.5 95t-112.5 247zM580 1577q154 88 280 176q80 -82 223 -186l-79 -111 q-84 41 -175 107q-90 -63 -180 -107z" />
<glyph unicode="&#xdc;" horiz-adv-x="1292" d="M115 322q0 37 6 73l170 969h254l-166 -946q-6 -37 -6 -68q0 -76 48 -111.5t169 -35.5q141 0 204.5 55t82.5 162l165 944h254l-170 -971q-35 -199 -157.5 -306t-407.5 -107q-221 0 -333.5 95t-112.5 247zM504 1493l35 199h206l-34 -199h-207zM932 1493l35 199h207 l-35 -199h-207z" />
<glyph unicode="&#xdd;" horiz-adv-x="1132" d="M156 1364h252l182 -690l409 690h287l-612 -969l-70 -395h-254l72 408zM610 1587q162 94 273 174l84 -147q-135 -94 -281 -160z" />
<glyph unicode="&#xde;" horiz-adv-x="1183" d="M61 0l240 1364h254l-41 -227h252q401 0 401 -293q0 -51 -8 -94l-31 -175q-20 -123 -63 -195.5t-144.5 -117.5t-271.5 -45h-297l-39 -217h-252zM391 436h275q111 0 153.5 36t59.5 126l24 139q6 33 6 58q0 59 -35.5 88.5t-119.5 29.5h-279z" />
<glyph unicode="&#xdf;" horiz-adv-x="1210" d="M-86 -276q68 68 93.5 119t41.5 141l191 1087q35 199 139 287t330 88q178 0 279.5 -75t101.5 -197q0 -145 -125 -314q-100 -133 -107 -160q-4 -12 -4 -24q0 -43 100 -135q78 -72 107 -116t29 -89q0 -176 -80 -266t-281 -90q-125 0 -235 34l38 185q90 -23 189 -23 q68 0 97.5 21.5t29.5 85.5q0 20 -17.5 39.5t-103.5 99.5q-123 115 -123 201q0 68 22.5 121t90.5 141q76 96 100.5 147t24.5 105q0 104 -152 104q-100 0 -145 -39t-62 -139l-194 -1106q-20 -117 -66.5 -199t-152.5 -182z" />
<glyph unicode="&#xe0;" horiz-adv-x="1056" d="M66 207q0 43 10 104l51 291q20 115 44 181.5t76 126t143 84t233 24.5q72 0 185.5 -19.5t190.5 -44.5l-168 -954h-206l-2 111q-145 -131 -326 -131q-231 0 -231 227zM311 240q0 -53 68 -54q55 0 130 44t136 106l82 461q-80 14 -141 14q-111 0 -152 -44t-59 -153l-62 -350 q-2 -12 -2 -24zM449 1311l110 131q94 -94 246 -211l-96 -119q-141 90 -260 199z" />
<glyph unicode="&#xe1;" horiz-adv-x="1056" d="M66 207q0 43 10 104l51 291q20 115 44 181.5t76 126t143 84t233 24.5q72 0 185.5 -19.5t190.5 -44.5l-168 -954h-206l-2 111q-145 -131 -326 -131q-231 0 -231 227zM311 240q0 -53 68 -54q55 0 130 44t136 106l82 461q-80 14 -141 14q-111 0 -152 -44t-59 -153l-62 -350 q-2 -12 -2 -24zM485 1245q150 78 324 199l82 -148q-135 -92 -330 -184z" />
<glyph unicode="&#xe2;" horiz-adv-x="1056" d="M66 207q0 43 10 104l51 291q20 115 44 181.5t76 126t143 84t233 24.5q72 0 185.5 -19.5t190.5 -44.5l-168 -954h-206l-2 111q-145 -131 -326 -131q-231 0 -231 227zM311 240q0 -53 68 -54q55 0 130 44t136 106l82 461q-80 14 -141 14q-111 0 -152 -44t-59 -153l-62 -350 q-2 -12 -2 -24zM391 1217q174 102 316 210q109 -121 237 -221l-80 -108q-98 53 -188 133q-102 -76 -213 -133z" />
<glyph unicode="&#xe3;" horiz-adv-x="1056" d="M66 207q0 43 10 104l51 291q20 115 44 181.5t76 126t143 84t233 24.5q72 0 185.5 -19.5t190.5 -44.5l-168 -954h-206l-2 111q-145 -131 -326 -131q-231 0 -231 227zM311 240q0 -53 68 -54q55 0 130 44t136 106l82 461q-80 14 -141 14q-111 0 -152 -44t-59 -153l-62 -350 q-2 -12 -2 -24zM348 1208q88 158 221 158q51 0 124 -44t104 -44q57 0 96 76l104 -58q-39 -84 -87 -128t-130 -44q-59 0 -124.5 43t-98.5 43q-57 0 -119 -86z" />
<glyph unicode="&#xe4;" horiz-adv-x="1056" d="M66 207q0 43 10 104l51 291q20 115 44 181.5t76 126t143 84t233 24.5q72 0 185.5 -19.5t190.5 -44.5l-168 -954h-206l-2 111q-145 -131 -326 -131q-231 0 -231 227zM311 240q0 -53 68 -54q55 0 130 44t136 106l82 461q-80 14 -141 14q-111 0 -152 -44t-59 -153l-62 -350 q-2 -12 -2 -24zM360 1141l39 215l201 8l-37 -215zM750 1141l38 215l201 8l-37 -215z" />
<glyph unicode="&#xe5;" horiz-adv-x="1056" d="M66 207q0 43 10 104l51 291q20 115 44 181.5t76 126t143 84t233 24.5q72 0 185.5 -19.5t190.5 -44.5l-168 -954h-206l-2 111q-145 -131 -326 -131q-231 0 -231 227zM311 240q0 -53 68 -54q55 0 130 44t136 106l82 461q-80 14 -141 14q-111 0 -152 -44t-59 -153l-62 -350 q-2 -12 -2 -24zM502 1253q0 94 57 150.5t156 56.5q70 0 110.5 -40t40.5 -97q0 -90 -54 -151.5t-159 -61.5q-66 0 -108.5 41t-42.5 102zM606 1266q0 -63 62 -64q43 0 68.5 30t25.5 75q0 63 -62 63q-41 0 -67.5 -29.5t-26.5 -74.5z" />
<glyph unicode="&#xe6;" horiz-adv-x="1439" d="M35 225q0 326 350 326h236l20 111q6 35 6 57q0 53 -38 74.5t-136 21.5q-129 0 -287 -31l-24 183q182 51 354 51q211 0 277 -123q106 123 305 123q152 0 234.5 -69.5t82.5 -190.5q0 -340 -581 -387l-13 -70q-4 -25 -4 -37q0 -43 25.5 -62.5t87.5 -19.5q152 0 348 101 l49 -179q-197 -125 -426 -124q-190 0 -272 106q-137 -106 -328 -106q-127 0 -196.5 68t-69.5 177zM268 244q0 -78 94 -78q106 0 216 61q-2 63 12 144h-166q-82 4 -119 -23.5t-37 -103.5zM866 557q156 16 234 58t78 124q0 86 -99 86q-162 0 -196 -178z" />
<glyph unicode="&#xe7;" horiz-adv-x="819" d="M53 227q0 37 10 99l60 336q37 203 141.5 279.5t317.5 76.5q133 0 237 -41l-55 -197q-90 29 -186 29q-106 0 -151.5 -38t-64.5 -142l-59 -338q-4 -25 -4 -35q0 -66 76 -66q111 0 293 64l24 -199q-119 -59 -272 -71l-33 -97q37 6 66 7q57 0 87.5 -34t30.5 -81 q0 -188 -249 -189q-72 0 -148 31l31 98q66 -20 119 -20q117 0 116 70q0 41 -59 41q-55 0 -100 -5l-29 33l53 144q-252 16 -252 245z" />
<glyph unicode="&#xe8;" horiz-adv-x="937" d="M70 336l53 303q35 188 137 283.5t318 95.5q143 0 231 -69.5t88 -190.5q0 -133 -91 -217t-298 -148q-115 -35 -193 -55l-8 -47q-10 -53 3.5 -80t74.5 -27q158 0 383 115l53 -188q-94 -57 -222 -94t-249 -37q-186 0 -248.5 93t-31.5 263zM352 1311l111 131q94 -94 246 -211 l-97 -119q-141 90 -260 199zM354 559l150 45q158 49 158 144q0 35 -28 56t-77 21q-156 0 -184 -163z" />
<glyph unicode="&#xe9;" horiz-adv-x="937" d="M70 336l53 303q35 188 137 283.5t318 95.5q143 0 231 -69.5t88 -190.5q0 -133 -91 -217t-298 -148q-115 -35 -193 -55l-8 -47q-10 -53 3.5 -80t74.5 -27q158 0 383 115l53 -188q-94 -57 -222 -94t-249 -37q-186 0 -248.5 93t-31.5 263zM354 559l150 45q158 49 158 144 q0 35 -28 56t-77 21q-156 0 -184 -163zM401 1245q150 78 324 199l82 -148q-135 -92 -330 -184z" />
<glyph unicode="&#xea;" horiz-adv-x="937" d="M70 336l53 303q35 188 137 283.5t318 95.5q143 0 231 -69.5t88 -190.5q0 -133 -91 -217t-298 -148q-115 -35 -193 -55l-8 -47q-10 -53 3.5 -80t74.5 -27q158 0 383 115l53 -188q-94 -57 -222 -94t-249 -37q-186 0 -248.5 93t-31.5 263zM334 1217q174 102 315 210 q109 -121 238 -221l-80 -108q-98 53 -189 133q-102 -76 -212 -133zM354 559l150 45q158 49 158 144q0 35 -28 56t-77 21q-156 0 -184 -163z" />
<glyph unicode="&#xeb;" horiz-adv-x="937" d="M70 336l53 303q35 188 137 283.5t318 95.5q143 0 231 -69.5t88 -190.5q0 -133 -91 -217t-298 -148q-115 -35 -193 -55l-8 -47q-10 -53 3.5 -80t74.5 -27q158 0 383 115l53 -188q-94 -57 -222 -94t-249 -37q-186 0 -248.5 93t-31.5 263zM307 1141l39 215l201 8l-37 -215z M354 559l150 45q158 49 158 144q0 35 -28 56t-77 21q-156 0 -184 -163zM696 1141l39 215l201 8l-37 -215z" />
<glyph unicode="&#xec;" horiz-adv-x="532" d="M51 0l172 979l252 35l-178 -1014h-246zM109 1311l110 131q94 -94 246 -211l-96 -119q-141 90 -260 199z" />
<glyph unicode="&#xed;" horiz-adv-x="532" d="M51 0l172 979l252 35l-178 -1014h-246zM270 1245q150 78 324 199l82 -148q-135 -92 -330 -184z" />
<glyph unicode="&#xee;" horiz-adv-x="532" d="M51 0l172 979l252 35l-178 -1014h-246zM113 1217q174 102 315 210q109 -121 238 -221l-80 -108q-98 53 -189 133q-102 -76 -213 -133z" />
<glyph unicode="&#xef;" horiz-adv-x="532" d="M51 0l172 979l252 35l-178 -1014h-246zM94 1141l39 215l201 8l-37 -215zM483 1141l39 215l201 8l-37 -215z" />
<glyph unicode="&#xf0;" horiz-adv-x="1034" d="M72 248q0 41 8 88l24 143q33 190 123 275.5t277 85.5q113 0 211 -41q8 61 8 82q0 127 -84 184l-190 -131l-62 90l156 109q-80 41 -215 73l78 197q207 -35 335 -119l136 92l61 -88l-107 -74q133 -129 134 -319q0 -68 -19 -174l-67 -383q-31 -184 -130.5 -271t-328.5 -87 q-348 0 -348 268zM317 276q0 -49 30 -69.5t106 -20.5q92 0 127.5 32t52.5 120l45 258q-96 31 -176 31q-66 0 -101.5 -30t-48.5 -99l-28 -162q-7 -37 -7 -60z" />
<glyph unicode="&#xf1;" d="M51 0l172 977l213 37l-4 -121q229 125 404 125q182 0 182 -199q0 -43 -10 -98l-127 -721h-246l125 711q2 10 2 26q0 43 -51 43q-47 0 -134.5 -35.5t-162.5 -80.5l-117 -664h-246zM354 1208q88 158 221 158q51 0 124 -44t104 -44q57 0 96 76l105 -58q-39 -84 -87.5 -128 t-130.5 -44q-59 0 -124.5 43t-98.5 43q-57 0 -119 -86z" />
<glyph unicode="&#xf2;" horiz-adv-x="1067" d="M68 305q0 39 6 80l43 240q37 197 149.5 295t349.5 98q184 0 280.5 -90t96.5 -230q0 -35 -6 -71l-47 -267q-33 -190 -143.5 -285t-358.5 -95q-184 0 -277 92t-93 233zM311 315q0 -129 164 -129q188 0 219 174l49 279q4 25 5 45q0 127 -164 127q-188 0 -222 -182l-47 -269 q-4 -25 -4 -45zM379 1311l110 131q94 -94 246 -211l-96 -119q-141 90 -260 199z" />
<glyph unicode="&#xf3;" horiz-adv-x="1067" d="M68 305q0 39 6 80l43 240q37 197 149.5 295t349.5 98q184 0 280.5 -90t96.5 -230q0 -35 -6 -71l-47 -267q-33 -190 -143.5 -285t-358.5 -95q-184 0 -277 92t-93 233zM311 315q0 -129 164 -129q188 0 219 174l49 279q4 25 5 45q0 127 -164 127q-188 0 -222 -182l-47 -269 q-4 -25 -4 -45zM477 1245q150 78 324 199l82 -148q-135 -92 -330 -184z" />
<glyph unicode="&#xf4;" horiz-adv-x="1067" d="M68 305q0 39 6 80l43 240q37 197 149.5 295t349.5 98q184 0 280.5 -90t96.5 -230q0 -35 -6 -71l-47 -267q-33 -190 -143.5 -285t-358.5 -95q-184 0 -277 92t-93 233zM311 315q0 -129 164 -129q188 0 219 174l49 279q4 25 5 45q0 127 -164 127q-188 0 -222 -182l-47 -269 q-4 -25 -4 -45zM371 1217q174 102 315 210q109 -121 238 -221l-80 -108q-98 53 -189 133q-102 -76 -213 -133z" />
<glyph unicode="&#xf5;" horiz-adv-x="1067" d="M68 305q0 39 6 80l43 240q37 197 149.5 295t349.5 98q184 0 280.5 -90t96.5 -230q0 -35 -6 -71l-47 -267q-33 -190 -143.5 -285t-358.5 -95q-184 0 -277 92t-93 233zM311 315q0 -129 164 -129q188 0 219 174l49 279q4 25 5 45q0 127 -164 127q-188 0 -222 -182l-47 -269 q-4 -25 -4 -45zM322 1208q88 158 221 158q51 0 123.5 -44t103.5 -44q57 0 96 76l105 -58q-39 -84 -87 -128t-130 -44q-59 0 -125 43t-99 43q-57 0 -118 -86z" />
<glyph unicode="&#xf6;" horiz-adv-x="1067" d="M68 305q0 39 6 80l43 240q37 197 149.5 295t349.5 98q184 0 280.5 -90t96.5 -230q0 -35 -6 -71l-47 -267q-33 -190 -143.5 -285t-358.5 -95q-184 0 -277 92t-93 233zM311 315q0 -129 164 -129q188 0 219 174l49 279q4 25 5 45q0 127 -164 127q-188 0 -222 -182l-47 -269 q-4 -25 -4 -45zM354 1141l39 215l201 8l-37 -215zM743 1141l39 215l201 8l-37 -215z" />
<glyph unicode="&#xf7;" horiz-adv-x="1103" d="M133 420v160h838v-160h-838zM436 20v242h232v-242h-232zM436 733v242h232v-242h-232z" />
<glyph unicode="&#xf8;" horiz-adv-x="1067" d="M12 -43l121 143q-66 80 -65 205q0 39 6 80l43 240q37 197 149.5 295t349.5 98q150 0 244 -62l123 144l70 -60l-125 -145q66 -80 65 -197q0 -35 -6 -71l-47 -267q-33 -190 -143.5 -285t-358.5 -95q-145 0 -239 61l-119 -141zM311 309l398 467q-41 35 -125 35 q-188 0 -222 -182l-47 -269q-4 -25 -4 -45v-6zM350 219q43 -33 125 -33q188 0 219 174l49 279q4 25 5 43z" />
<glyph unicode="&#xf9;" d="M80 178q0 43 10 98l123 703l252 35l-127 -727q-2 -14 -2 -27q0 -43 51 -43q47 0 134 36t163 81l113 645l252 35l-179 -1014h-208l4 104q-229 -125 -404 -124q-182 -1 -182 198zM408 1311l110 131q94 -94 246 -211l-96 -119q-141 90 -260 199z" />
<glyph unicode="&#xfa;" d="M80 178q0 43 10 98l123 703l252 35l-127 -727q-2 -14 -2 -27q0 -43 51 -43q47 0 134 36t163 81l113 645l252 35l-179 -1014h-208l4 104q-229 -125 -404 -124q-182 -1 -182 198zM520 1245q150 78 324 199l82 -148q-135 -92 -330 -184z" />
<glyph unicode="&#xfb;" d="M80 178q0 43 10 98l123 703l252 35l-127 -727q-2 -14 -2 -27q0 -43 51 -43q47 0 134 36t163 81l113 645l252 35l-179 -1014h-208l4 104q-229 -125 -404 -124q-182 -1 -182 198zM406 1217q174 102 315 210q109 -121 237 -221l-79 -108q-98 53 -189 133q-102 -76 -213 -133 z" />
<glyph unicode="&#xfc;" d="M80 178q0 43 10 98l123 703l252 35l-127 -727q-2 -14 -2 -27q0 -43 51 -43q47 0 134 36t163 81l113 645l252 35l-179 -1014h-208l4 104q-229 -125 -404 -124q-182 -1 -182 198zM377 1141l39 215l200 8l-36 -215zM766 1141l39 215l201 8l-37 -215z" />
<glyph unicode="&#xfd;" horiz-adv-x="974" d="M18 -246q125 43 190.5 96.5t127.5 149.5h-84l-143 973l243 35l94 -791l236 531q29 68 29 137q0 49 -15 94l240 35q18 -59 18 -125q0 -100 -34 -178l-330 -711q-92 -182 -191.5 -272t-312.5 -164zM401 1245q150 78 324 199l82 -148q-135 -92 -330 -184z" />
<glyph unicode="&#xfe;" horiz-adv-x="1081" d="M-27 -438l326 1843l252 35l-94 -535q137 113 319 113q231 0 232 -227q0 -43 -11 -105l-51 -291q-12 -76 -24.5 -121t-34 -99t-54 -85t-82 -58.5t-122 -39.5t-168.5 -12q-80 0 -164 18l-72 -401zM332 199q53 -12 145 -13q113 0 158 45t63 150l62 352q2 12 2 25 q0 53 -70 53q-72 0 -152.5 -47t-125.5 -102z" />
<glyph unicode="&#xff;" horiz-adv-x="974" d="M18 -246q125 43 190.5 96.5t127.5 149.5h-84l-143 973l243 35l94 -791l236 531q29 68 29 137q0 49 -15 94l240 35q18 -59 18 -125q0 -100 -34 -178l-330 -711q-92 -182 -191.5 -272t-312.5 -164zM264 1141l39 215l201 8l-37 -215zM653 1141l39 215l201 8l-37 -215z" />
<glyph unicode="&#x152;" horiz-adv-x="1808" d="M98 338q0 49 8 90l93 526q37 209 169 309.5t404 100.5h1081l-41 -223h-581l-57 -326h538l-39 -223h-538l-66 -369h582l-37 -223h-1069q-225 0 -336 91t-111 247zM356 371q0 -76 51.5 -112t178.5 -36h229l162 918h-232q-260 0 -296 -209l-87 -494q-6 -36 -6 -67z" />
<glyph unicode="&#x153;" horiz-adv-x="1554" d="M68 305q0 39 6 80l43 240q35 195 144.5 294t326.5 99q188 0 293 -117q131 117 317 117q143 0 229 -69.5t86 -190.5q0 -133 -90 -217t-295 -148q-115 -35 -192 -55l-8 -47q-10 -53 3 -80t75 -27q158 0 383 115l53 -188q-215 -131 -434 -131q-168 0 -260 106 q-131 -106 -310 -106q-184 0 -277 92t-93 233zM311 315q0 -129 164 -129q188 0 219 174l49 279q4 25 5 45q0 127 -164 127q-188 0 -222 -182l-47 -269q-4 -25 -4 -45zM975 559l149 45q82 27 118 60.5t36 83.5q0 78 -100 77q-156 0 -185 -163z" />
<glyph unicode="&#x178;" horiz-adv-x="1132" d="M156 1364h252l182 -690l409 690h287l-612 -969l-70 -395h-254l72 408zM412 1493l34 199h207l-35 -199h-206zM840 1493l34 199h207l-34 -199h-207z" />
<glyph unicode="&#x2c6;" horiz-adv-x="778" d="M236 1217q174 102 315 210q109 -121 237 -221l-79 -108q-98 53 -189 133q-102 -76 -213 -133z" />
<glyph unicode="&#x2dc;" horiz-adv-x="874" d="M236 1208q88 158 221 158q51 0 123.5 -44t103.5 -44q57 0 96 76l105 -58q-39 -84 -87 -128t-130 -44q-59 0 -125 43t-99 43q-57 0 -118 -86z" />
<glyph unicode="&#x2000;" horiz-adv-x="886" />
<glyph unicode="&#x2001;" horiz-adv-x="1773" />
<glyph unicode="&#x2002;" horiz-adv-x="886" />
<glyph unicode="&#x2003;" horiz-adv-x="1773" />
<glyph unicode="&#x2004;" horiz-adv-x="589" />
<glyph unicode="&#x2005;" horiz-adv-x="442" />
<glyph unicode="&#x2006;" horiz-adv-x="294" />
<glyph unicode="&#x2007;" horiz-adv-x="294" />
<glyph unicode="&#x2008;" horiz-adv-x="221" />
<glyph unicode="&#x2009;" horiz-adv-x="354" />
<glyph unicode="&#x200a;" horiz-adv-x="98" />
<glyph unicode="&#x2010;" horiz-adv-x="753" d="M135 473l37 205h508l-37 -205h-508z" />
<glyph unicode="&#x2011;" horiz-adv-x="753" d="M135 473l37 205h508l-37 -205h-508z" />
<glyph unicode="&#x2013;" horiz-adv-x="995" d="M135 473l37 205h750l-37 -205h-750z" />
<glyph unicode="&#x2014;" horiz-adv-x="1292" d="M135 473l37 205h1047l-37 -205h-1047z" />
<glyph unicode="&#x2018;" horiz-adv-x="555" d="M215 856l55 318l205 266l90 -70l-145 -215h94l-53 -299h-246z" />
<glyph unicode="&#x2019;" horiz-adv-x="534" d="M215 891l145 215h-94l53 299h246l-55 -318l-205 -266z" />
<glyph unicode="&#x201a;" horiz-adv-x="555" d="M20 -215l146 215h-94l53 299h246l-56 -317l-204 -267z" />
<glyph unicode="&#x201c;" horiz-adv-x="968" d="M215 856l55 318l205 266l90 -70l-145 -215h94l-53 -299h-246zM629 856l55 318l205 266l90 -70l-145 -215h94l-54 -299h-245z" />
<glyph unicode="&#x201d;" horiz-adv-x="968" d="M215 891l145 215h-94l53 299h246l-55 -318l-205 -266zM629 891l145 215h-94l53 299h246l-55 -318l-205 -266z" />
<glyph unicode="&#x201e;" horiz-adv-x="968" d="M20 -215l146 215h-94l53 299h246l-56 -317l-204 -267zM434 -215l146 215h-95l54 299h245l-55 -317l-205 -267z" />
<glyph unicode="&#x2022;" horiz-adv-x="731" d="M125 662q0 111 77 188.5t185.5 77.5t185 -78t76.5 -188q0 -109 -76.5 -187t-185 -78t-185.5 78t-77 187z" />
<glyph unicode="&#x2026;" horiz-adv-x="1701" d="M82 0l53 299h248l-53 -299h-248zM649 0l53 299h248l-53 -299h-248zM1217 0l53 299h248l-54 -299h-247z" />
<glyph unicode="&#x202f;" horiz-adv-x="354" />
<glyph unicode="&#x2039;" horiz-adv-x="579" d="M74 500l317 393l152 -127l-230 -268l131 -303l-178 -89z" />
<glyph unicode="&#x203a;" horiz-adv-x="579" d="M49 233l230 269l-132 303l179 88l192 -393l-317 -394z" />
<glyph unicode="&#x205f;" horiz-adv-x="442" />
<glyph unicode="&#x20ac;" horiz-adv-x="1097" d="M57 442l25 140h166l28 163h-167l24 140h168l12 61q39 215 166 306t379 91q145 0 299 -47l-53 -206q-158 35 -270 34q-139 0 -200 -43t-83 -172l-4 -24h387l-25 -140h-387l-28 -163h389l-25 -140h-389l-2 -12q-8 -49 -8 -84q0 -80 46 -113.5t167 -33.5q125 0 274 28 l8 -207q-133 -41 -325 -40q-211 0 -316.5 90t-105.5 239q0 41 8 86l8 47h-166z" />
<glyph unicode="&#x2122;" horiz-adv-x="1011" d="M225 1286v78h316v-78h-117v-340h-84v340h-115zM608 946l17 418h88l102 -277l103 277h88l16 -418h-82l-4 260l-78 -207h-86l-78 203l-4 -256h-82z" />
</font>
</defs>
</svg>
